<?xml version="1.0" encoding="UTF-8"?>
<svg version="1.1" xmlns="http://www.w3.org/2000/svg" width="1080" height="553">
<path d="M0 0 C2.8355523 0.68237356 5.6353785 1.44239644 8.43945312 2.24414062 C9.44016846 2.51782471 10.44088379 2.79150879 11.47192383 3.07348633 C13.46670818 3.61973652 15.4600135 4.17142207 17.45166016 4.72900391 C21.08545847 5.74454911 24.73000751 6.71439086 28.37695312 7.68164062 C29.5396875 7.99101563 30.70242188 8.30039063 31.90039062 8.61914062 C32.98578125 8.90789062 34.07117188 9.19664063 35.18945312 9.49414062 C36.25421875 9.78289062 37.31898438 10.07164063 38.41601562 10.36914062 C43.2529631 11.64266604 47.43165426 12.53225173 52.43945312 12.49414062 C55.68881301 12.77354418 56.86289429 13.17879946 59.23632812 15.47070312 C61.39080071 18.39216795 63.29176646 21.39961749 65.18945312 24.49414062 C66.41894264 26.35303576 67.66734165 28.19838263 68.91601562 30.04443359 C70.12219023 31.83195846 71.31477764 33.62755007 72.50195312 35.42773438 C77.58088961 43.11869534 82.69442925 50.78539443 87.88085938 58.40429688 C88.47874771 59.28274513 88.47874771 59.28274513 89.0887146 60.17893982 C90.71913723 62.57354761 92.35007017 64.96780201 93.9831543 67.3605957 C98.66532425 74.22324727 103.28134847 81.11215327 107.67871094 88.1628418 C109.15398735 90.43941168 110.72339868 92.59457394 112.37695312 94.74414062 C114.50814992 97.51692808 116.26049419 100.32793966 117.94335938 103.40039062 C119.99226884 106.84307236 122.32512926 110.08945344 124.62133789 113.37036133 C127.95629749 118.13839136 131.18568047 122.97092882 134.39257812 127.82617188 C135.93671334 130.11887699 137.53666975 132.34209661 139.18945312 134.55664062 C141.18945312 137.49414063 141.18945312 137.49414063 141.18945312 140.49414062 C141.84945312 140.49414062 142.50945313 140.49414062 143.18945312 140.49414062 C144.27856445 141.94311523 144.27856445 141.94311523 145.45898438 143.95898438 C148.13639004 148.41740851 150.98107338 152.73774865 153.87695312 157.05664062 C154.93690663 158.64123747 155.99680152 160.22587351 157.05664062 161.81054688 C157.58225586 162.59574707 158.10787109 163.38094727 158.64941406 164.18994141 C160.08607608 166.33946838 161.51792775 168.49208238 162.94726562 170.64648438 C166.49375271 175.9895911 170.04254963 181.32433982 173.75195312 186.55664062 C176.47077213 190.40246423 179.03545788 194.33451281 181.56445312 198.30664062 C186.55898859 206.14636697 191.84941922 213.75595299 197.20507812 221.35351562 C197.81867187 222.22492188 198.43226563 223.09632813 199.06445312 223.99414062 C199.86496094 225.12335938 199.86496094 225.12335938 200.68164062 226.27539062 C201.69492488 227.76644102 202.66503922 229.28766729 203.59179688 230.83398438 C205.58226171 234.14818133 207.72298743 237.34716567 209.87695312 240.55664062 C210.76629157 241.88605732 211.65561426 243.21548455 212.54492188 244.54492188 C212.98755371 245.20572754 213.43018555 245.8665332 213.88623047 246.54736328 C215.82493377 249.44343299 217.75709324 252.34383447 219.68945312 255.24414062 C220.31851563 256.18773437 220.94757812 257.13132812 221.59570312 258.10351562 C222.79361979 259.90039062 223.99153646 261.69726562 225.18945312 263.49414062 C225.19091969 262.17847233 225.19238625 260.86280403 225.19389725 259.507267 C225.22958231 228.29135837 225.28579888 197.07556139 225.36737408 165.85974075 C225.3773918 162.01944994 225.38723588 158.17915871 225.39697266 154.33886719 C225.39891403 153.57431905 225.4008554 152.80977091 225.4028556 152.02205464 C225.43389531 139.63489656 225.45086174 127.24775701 225.46264735 114.86056736 C225.47504872 102.15463563 225.50252711 89.44880135 225.54406619 76.74293113 C225.56923076 68.89970509 225.58256826 61.05664061 225.5808827 53.21337363 C225.58084949 47.20392174 225.60177056 41.19473126 225.63062096 35.18534088 C225.63916503 32.71659755 225.64083959 30.24781979 225.63525581 27.77906799 C225.62866233 24.41698304 225.64642569 21.05589335 225.67047119 17.69390869 C225.66271077 16.70947729 225.65495036 15.7250459 225.64695477 14.71078324 C225.73062843 8.1345242 225.73062843 8.1345242 228.0343895 4.91915512 C231.91968128 2.35004438 235.12203961 2.36510574 239.67103577 2.35369873 C240.33216242 2.35072761 240.99328907 2.34775649 241.67444986 2.34469533 C243.89438884 2.33600961 246.11427388 2.33450016 248.33422852 2.33300781 C249.92433792 2.32837937 251.51444622 2.32335467 253.10455322 2.31796265 C257.42928883 2.30483494 261.75400891 2.29839239 266.07876134 2.29395199 C268.78263193 2.29102048 271.48649829 2.28691541 274.19036674 2.28244781 C282.65539787 2.26876886 291.12041931 2.25910545 299.58546072 2.25524592 C309.3463892 2.25077091 319.10717724 2.23325062 328.86806303 2.20424533 C336.41811408 2.18259163 343.96812574 2.1725396 351.51820749 2.17120481 C356.02449754 2.17015896 360.53065565 2.1642989 365.03691292 2.14638519 C369.28128544 2.12984177 373.52542778 2.12777927 377.76982117 2.1365242 C379.3217474 2.13729136 380.87368632 2.13299448 382.42558098 2.12306595 C398.19042797 2.02818138 410.51884221 5.43777239 422.18945312 16.49414062 C422.18945312 17.15414062 422.18945312 17.81414062 422.18945312 18.49414062 C423.17945313 18.82414062 424.16945313 19.15414062 425.18945312 19.49414062 C447.53780246 44.16833627 453.66176596 80.50479742 452.35791016 112.58837891 C451.51657039 127.10088014 449.28050462 140.8609607 444.18945312 154.49414062 C443.93728027 155.17541016 443.68510742 155.85667969 443.42529297 156.55859375 C438.71977517 169.16505856 438.71977517 169.16505856 435.18945312 173.49414062 C434.57070312 174.57695312 434.57070312 174.57695312 433.93945312 175.68164062 C429.03650653 183.56137622 422.86375454 190.09225967 416.18945312 196.49414062 C417.17945313 197.15414062 418.16945313 197.81414062 419.18945312 198.49414062 C419.18945312 199.15414062 419.18945312 199.81414062 419.18945312 200.49414062 C419.78242187 200.75582031 420.37539063 201.0175 420.98632812 201.28710938 C435.20203906 209.0755042 442.74853912 231.49651047 447.05664062 246.15820312 C449.06557422 253.47286786 450.195791 260.98274318 451.18945312 268.49414062 C451.28444092 269.20981201 451.37942871 269.9254834 451.47729492 270.6628418 C454.64855343 296.59624433 451.66860755 324.85350442 440.18945312 348.49414062 C439.54363281 349.89599609 439.54363281 349.89599609 438.88476562 351.32617188 C434.24914793 361.08602643 428.85748813 369.88992348 420.18945312 376.49414062 C419.52945313 377.48414063 418.86945312 378.47414063 418.18945312 379.49414062 C417.19945312 379.49414062 416.20945312 379.49414062 415.18945312 379.49414062 C414.85945312 380.48414063 414.52945313 381.47414063 414.18945312 382.49414062 C412.25585938 383.77539063 412.25585938 383.77539063 409.75195312 384.99414062 C408.94886719 385.39632813 408.14578125 385.79851562 407.31835938 386.21289062 C398.18559951 389.95264748 390.23351439 390.92288996 380.36816406 390.85058594 C379.00338612 390.85137862 377.63860841 390.85348139 376.27383423 390.85678101 C372.59113903 390.86188208 368.90872698 390.84843782 365.22607708 390.83125401 C361.34198951 390.81608985 357.45790371 390.81738869 353.5737915 390.81658936 C347.04068254 390.81290407 340.50767906 390.797988 333.97460938 390.77539062 C325.65696741 390.74667429 317.33941088 390.73617737 309.0217247 390.73170853 C301.80141093 390.72768498 294.58111483 390.71518104 287.36081409 390.70136166 C285.07643742 390.69731454 282.79206131 390.69436271 280.5076828 390.69156647 C271.06738831 390.6778106 261.62904107 390.6197523 252.18945312 390.49414062 C250.47575279 390.47429863 250.47575279 390.47429863 248.72743225 390.45405579 C245.63577514 390.40827887 242.54671975 390.33256722 239.45605469 390.24316406 C238.57541225 390.23141773 237.69476982 390.2196714 236.78744125 390.20756912 C231.57841643 390.00929318 228.80491448 389.2572735 225.06445312 385.30664062 C223.46289063 382.84960938 223.46289063 382.84960938 222.18945312 380.49414062 C221.3622635 379.36461561 220.52991919 378.23882193 219.68945312 377.11914062 C218.18945312 374.49414062 218.18945312 374.49414062 218.18945312 371.49414062 C217.52945313 371.49414062 216.86945312 371.49414062 216.18945312 371.49414062 C214.98779297 370.03222656 214.98779297 370.03222656 213.65039062 367.97851562 C212.90849487 366.85147217 212.90849487 366.85147217 212.15161133 365.70166016 C211.62784912 364.89067871 211.10408691 364.07969727 210.56445312 363.24414062 C209.48263182 361.59035744 208.40059994 359.93671198 207.31835938 358.28320312 C206.78742676 357.46754883 206.25649414 356.65189453 205.70947266 355.81152344 C204.37813752 353.78180402 203.02636552 351.7698766 201.65429688 349.76757812 C200.94402344 348.72859375 200.23375 347.68960937 199.50195312 346.61914062 C198.87933594 345.71421875 198.25671875 344.80929687 197.61523438 343.87695312 C196.30286488 341.68367808 195.62525803 339.99275539 195.18945312 337.49414062 C194.52945313 337.49414062 193.86945312 337.49414062 193.18945312 337.49414062 C191.60351563 335.29882813 191.60351563 335.29882813 189.81445312 332.36914062 C187.84784233 329.17904336 185.89237533 326.00801806 183.75195312 322.93164062 C182.18945312 320.49414062 182.18945312 320.49414062 182.18945312 318.49414062 C181.52945313 318.49414062 180.86945312 318.49414062 180.18945312 318.49414062 C179.13356244 316.86230956 178.14584052 315.18621064 177.18945312 313.49414062 C176.26637444 312.1095226 175.34252258 310.72540331 174.41210938 309.34570312 C172.30561784 306.1556808 170.29142325 302.90648997 168.26367188 299.66601562 C166.54072862 297.03130767 164.76873512 294.45683296 162.95507812 291.88476562 C158.93319695 286.16594456 155.07858448 280.34486844 151.25195312 274.49414062 C150.56810547 273.45902344 149.88425781 272.42390625 149.1796875 271.35742188 C148.53451172 270.37128906 147.88933594 269.38515625 147.22460938 268.36914062 C146.64074463 267.4796875 146.05687988 266.59023438 145.45532227 265.67382812 C144.18945312 263.49414063 144.18945312 263.49414063 144.18945312 261.49414062 C95.67945313 261.49414062 47.16945313 261.49414062 -2.81054688 261.49414062 C-2.81054688 263.47414063 -2.81054688 265.45414062 -2.81054688 267.49414062 C-3.38549805 269.69067383 -3.38549805 269.69067383 -4.16601562 271.73242188 C-6.20021175 277.43937281 -7.39832012 283.26125125 -8.65234375 289.1796875 C-8.84505859 290.06076172 -9.03777344 290.94183594 -9.23632812 291.84960938 C-9.56346802 293.35575806 -9.56346802 293.35575806 -9.8972168 294.89233398 C-10.59753328 297.65410066 -11.38512347 300.26574499 -12.29614258 302.95727539 C-17.82502694 319.92162061 -17.54511509 336.44249381 -17.37304688 354.05664062 C-17.3280246 359.19952685 -17.30337566 364.34149111 -17.31760979 369.48457146 C-17.31451821 371.51774178 -17.28098847 373.54885595 -17.24549866 375.5816803 C-17.2457756 376.8116423 -17.24605255 378.04160431 -17.24633789 379.30883789 C-17.2291848 380.92472557 -17.2291848 380.92472557 -17.21168518 382.57325745 C-18.03154863 386.57205279 -19.68535508 387.92387617 -22.81054688 390.49414062 C-25.82092494 391.11628377 -25.82092494 391.11628377 -29.24547863 391.11217308 C-30.55350702 391.12274502 -31.86153542 391.13331696 -33.20920104 391.14420927 C-34.65909952 391.13063558 -36.1089937 391.11659655 -37.55888367 391.10214233 C-39.10032957 391.10503866 -40.64177266 391.11012895 -42.18320495 391.11722624 C-46.42106089 391.13036106 -50.65830001 391.11226606 -54.89609206 391.08912778 C-59.46528172 391.06961345 -64.03442275 391.07892604 -68.6036377 391.0847168 C-77.5546628 391.09154057 -86.50544475 391.07185531 -95.45642003 391.04355352 C-105.87258947 391.01174561 -116.2887157 391.0073051 -126.70492671 391.00436158 C-145.28356257 390.99829429 -163.8620894 390.96915849 -182.44067383 390.92626953 C-200.48429579 390.88465143 -218.5278666 390.85633244 -236.5715332 390.84423828 C-237.68323813 390.84349007 -238.79494306 390.84274185 -239.94033601 390.84197097 C-244.40837461 390.8389969 -248.87641322 390.83605961 -253.34445189 390.83318468 C-272.59233347 390.82046102 -291.84020357 390.79669532 -311.08807233 390.77154642 C-314.2096698 390.76756229 -317.33126749 390.76384439 -320.45286536 390.76019239 C-331.37607163 390.74718354 -342.29925761 390.73088509 -353.22244223 390.70520799 C-357.74109477 390.69459965 -362.2597358 390.68550054 -366.77839851 390.68063736 C-370.90908302 390.67610584 -375.0397297 390.66695514 -379.17039607 390.65397592 C-380.67026876 390.65005912 -382.17014696 390.64783737 -383.67002472 390.64741771 C-385.6977364 390.64658008 -387.72544213 390.63906887 -389.75313854 390.63115501 C-390.8827542 390.62882437 -392.01236987 390.62649373 -393.1762163 390.62409246 C-395.81054688 390.49414062 -395.81054688 390.49414062 -397.81054688 389.49414062 C-397.81054688 388.83414062 -397.81054688 388.17414063 -397.81054688 387.49414062 C-398.47054687 387.49414062 -399.13054687 387.49414062 -399.81054688 387.49414062 C-401.95259498 384.00097512 -402.06362977 381.2204133 -402.07060909 377.16219521 C-402.08120748 375.19638919 -402.08120748 375.19638919 -402.09201998 373.19086993 C-402.08976853 371.73292869 -402.08732202 370.27498774 -402.08470154 368.81704712 C-402.0891527 367.27106828 -402.09446634 365.72509171 -402.10057026 364.17911851 C-402.11477515 359.92413189 -402.11641308 355.66921822 -402.11597335 351.41421127 C-402.11761935 346.82787814 -402.13068169 342.24157527 -402.14216614 337.65525818 C-402.16503104 327.62442079 -402.17293816 317.59360453 -402.17799258 307.56274462 C-402.18124748 301.30182994 -402.18776866 295.04092142 -402.19499397 288.78001022 C-402.21456084 271.45157634 -402.23096488 254.12314818 -402.23387051 236.79470253 C-402.23405808 235.68549817 -402.23424565 234.5762938 -402.2344389 233.43347719 C-402.23480515 231.18477496 -402.23516885 228.93607272 -402.23553001 226.68737049 C-402.23580423 225.01294241 -402.23580423 225.01294241 -402.23608398 223.3046875 C-402.23626453 222.18704283 -402.23644508 221.06939816 -402.2366311 219.91788547 C-402.2401743 201.79969945 -402.26720542 183.68163218 -402.30458187 165.56348737 C-402.34263242 146.97010134 -402.36202774 128.37677428 -402.36233002 109.78334844 C-402.36291528 99.3404166 -402.37145146 88.89762644 -402.40032768 78.45473099 C-402.42479795 69.56423918 -402.43215389 60.67394074 -402.41708016 51.78342439 C-402.4098937 47.24591471 -402.41084313 42.70878719 -402.43349075 38.17131996 C-402.45401987 34.01858818 -402.45153783 29.86653384 -402.43061591 25.71380989 C-402.42710934 24.21046289 -402.43208032 22.7070676 -402.44632035 21.20378394 C-402.55831318 8.56800089 -402.55831318 8.56800089 -399.4812336 4.60772705 C-396.00992639 1.86052809 -394.00966963 1.74515852 -389.60522461 1.74951172 C-388.898909 1.74221039 -388.19259338 1.73490906 -387.46487427 1.72738647 C-385.14030444 1.71123081 -382.81854839 1.73833348 -380.49414062 1.76757812 C-378.8741913 1.76861596 -377.25423944 1.76757812 -375.6342926 1.76455688 C-372.24384826 1.76473607 -368.85435771 1.78553875 -365.46411133 1.82177734 C-361.12035672 1.86719025 -356.7779926 1.86823173 -352.43406582 1.85474205 C-349.09080157 1.84805693 -345.74785391 1.86133184 -342.40464973 1.88100052 C-340.80309773 1.88869273 -339.20151049 1.89100581 -337.59994316 1.88782883 C-335.36143844 1.88708627 -333.12471183 1.91235169 -330.88647461 1.94482422 C-329.61360092 1.954039 -328.34072723 1.96325378 -327.02928162 1.9727478 C-323.2493993 2.58503917 -322.0852115 3.47132266 -319.81054688 6.49414062 C-318.82039094 9.46460842 -318.68618902 11.3878041 -318.68749905 14.48602581 C-318.685508 15.52308405 -318.68351695 16.56014228 -318.68146557 17.62862653 C-318.68437841 18.7716087 -318.68729125 19.91459087 -318.69029236 21.09220886 C-318.68943793 22.30350364 -318.68858351 23.51479841 -318.68770319 24.76279908 C-318.68633791 28.13090844 -318.68947442 31.49896006 -318.69448125 34.86706245 C-318.69879091 38.49690048 -318.69733896 42.12673667 -318.69657898 45.75657654 C-318.69605407 52.04749666 -318.69919742 58.33840644 -318.70481682 64.62932396 C-318.7129363 73.72498716 -318.7155475 82.82064534 -318.71680481 91.91631178 C-318.71899462 106.67264494 -318.7256528 121.42897257 -318.73510742 136.18530273 C-318.74428336 150.52156548 -318.75135185 164.85782672 -318.75561523 179.1940918 C-318.75588323 180.0864687 -318.75615123 180.9788456 -318.75642735 181.89826423 C-318.75850671 188.87701048 -318.76046366 195.85575676 -318.76238191 202.83450305 C-318.77181933 237.05438731 -318.79193675 271.27425775 -318.81054688 305.49414062 C-244.56054688 305.49414062 -170.31054688 305.49414062 -93.81054688 305.49414062 C-93.48054688 302.52414062 -93.15054687 299.55414063 -92.81054688 296.49414062 C-92.18172798 294.48192015 -91.51435845 292.4813733 -90.81054688 290.49414062 C-90.4891462 289.12947956 -90.18616571 287.76041636 -89.89648438 286.38867188 C-88.85654452 281.61411738 -87.63714649 276.90104283 -86.37304688 272.18164062 C-84.71943845 265.95242593 -83.09191604 259.71962259 -81.54492188 253.46289062 C-81.01893991 251.33658055 -80.48700531 249.21173951 -79.95117188 247.08789062 C-78.40425698 240.95094956 -76.8794103 234.81162074 -75.43164062 228.65039062 C-72.88690355 217.84368434 -70.21384979 207.12280785 -67.07917786 196.47135925 C-65.39203079 190.67768178 -63.89543866 184.86796251 -62.53320312 178.99023438 C-59.83871842 167.52928617 -57.00944953 156.10361887 -54.15380859 144.68188477 C-53.30895681 141.30027621 -52.46789564 137.9177388 -51.62695312 134.53515625 C-47.91934417 119.66641447 -43.97129906 104.89386081 -39.68554688 90.18164062 C-38.19573969 84.97913936 -36.90419348 79.76508044 -35.71679688 74.48632812 C-32.64019949 60.8375553 -29.40014004 47.22474586 -25.56933594 33.7668457 C-24.17623995 28.86447996 -22.89974544 23.9437064 -21.68554688 18.99414062 C-19.43214889 9.90154067 -19.43214889 9.90154067 -18.24804688 5.61914062 C-18.04050781 4.85859375 -17.83296875 4.09804687 -17.61914062 3.31445312 C-14.8383113 -2.94577134 -5.4574474 -0.98226468 0 0 Z M37.18945312 105.49414062 C36.87492187 106.76386719 36.56039063 108.03359375 36.23632812 109.34179688 C32.36005097 124.94297372 32.36005097 124.94297372 30.31445312 132.43164062 C28.29303606 139.91745747 26.49612938 147.45397442 24.68945312 154.99414062 C21.95630353 166.38944887 19.11851049 177.7265633 15.90820312 188.99804688 C15.68535645 189.78606689 15.46250977 190.57408691 15.23291016 191.38598633 C14.80661303 192.88985921 14.37576931 194.39245587 13.93896484 195.89331055 C12.26954022 201.77155672 11.29870578 207.393251 10.18945312 213.49414062 C43.51945312 213.49414062 76.84945312 213.49414062 111.18945312 213.49414062 C106.94724903 206.82781991 102.70532402 200.18474926 98.31445312 193.61914062 C97.79979492 192.84812012 97.28513672 192.07709961 96.75488281 191.28271484 C92.98241625 185.64509023 89.13966921 180.06110269 85.26367188 174.49414062 C81.83778329 169.53918312 78.51795561 164.51478684 75.18945312 159.49414062 C73.52420304 156.9931956 71.85677744 154.49370312 70.18945312 151.99414062 C69.33785327 150.71682178 68.48629036 149.4394783 67.63476562 148.16210938 C67.22258789 147.54384277 66.81041016 146.92557617 66.38574219 146.28857422 C64.61197917 143.62792969 62.83821615 140.96728516 61.06445312 138.30664062 C60.42636719 137.35015625 59.78828125 136.39367187 59.13085938 135.40820312 C57.78212523 133.38374503 56.43595417 131.35757795 55.09179688 129.33007812 C50.819245 122.88489298 50.819245 122.88489298 46.37695312 116.55664062 C44.49876884 113.92718263 42.81595982 111.28243782 41.18945312 108.49414062 C40.52945312 107.50414062 39.86945313 106.51414062 39.18945312 105.49414062 C38.52945312 105.49414062 37.86945313 105.49414062 37.18945312 105.49414062 Z " fill="#0CD8F3" transform="translate(485.810546875,80.505859375)"/>
<path d="M0 0 C1.12514275 -0.00420695 1.12514275 -0.00420695 2.27301566 -0.00849889 C4.81175947 -0.01551386 7.35026403 -0.00815726 9.88900465 -0.00098395 C11.72523213 -0.00306836 13.56145878 -0.00602946 15.39768359 -0.00979269 C20.48208714 -0.01763296 25.56641548 -0.01289372 30.65081791 -0.00623678 C36.16761967 -0.0011903 41.68440935 -0.00767245 47.20120943 -0.01272345 C56.88282742 -0.01996922 66.56442315 -0.019714 76.24604219 -0.01462913 C89.96981298 -0.00744073 103.6935668 -0.01034468 117.41733739 -0.01618721 C142.30437778 -0.0267748 167.19140942 -0.02747937 192.0784511 -0.02189231 C193.18538419 -0.02164392 193.18538419 -0.02164392 194.31467957 -0.02139052 C195.423373 -0.02114173 195.423373 -0.02114173 196.55446427 -0.02088792 C219.04937271 -0.01584666 241.54427753 -0.01453638 264.03918642 -0.0169332 C265.54406149 -0.01708816 267.04893656 -0.01724247 268.55381163 -0.01739614 C274.60088356 -0.01801705 280.64795549 -0.01865438 286.69502742 -0.01931567 C303.60023657 -0.02114991 320.50544573 -0.02229095 337.41065496 -0.02288795 C338.18055009 -0.02291524 338.95044523 -0.02294253 339.74367051 -0.02297065 C364.28489074 -0.0237895 388.82610971 -0.02153387 413.36732954 -0.01718879 C414.56172331 -0.01697804 414.56172331 -0.01697804 415.78024626 -0.01676304 C428.71200758 -0.01447299 441.64376887 -0.01203413 454.57553016 -0.00958269 C505.87073681 0.00013088 557.16593302 -0.00032086 608.46113962 -0.01004386 C621.38748067 -0.01248612 634.31382171 -0.01490818 647.24016279 -0.01718879 C648.03602172 -0.01732968 648.83188065 -0.01747058 649.65185651 -0.01761575 C674.16780016 -0.02192629 698.68374293 -0.02375701 723.19968694 -0.02288795 C724.35366732 -0.02284719 724.35366732 -0.02284719 725.53096042 -0.02280562 C742.41659913 -0.02218074 759.30223775 -0.02091361 776.18787637 -0.01906694 C782.22930993 -0.01840862 788.27074349 -0.01778246 794.31217705 -0.01716552 C795.81520705 -0.01701074 797.31823705 -0.01685328 798.82126705 -0.01669312 C821.3124841 -0.01430321 843.80369708 -0.0163441 866.29491362 -0.02139052 C867.40197091 -0.0216389 867.40197091 -0.0216389 868.53139299 -0.02189231 C869.26807708 -0.02205767 870.00476116 -0.02222304 870.76376901 -0.02239341 C895.57612894 -0.02790218 920.38847836 -0.02589628 945.20083679 -0.01533082 C959.51984389 -0.009386 973.83882706 -0.00910467 988.15783362 -0.01662317 C997.70493009 -0.02108503 1007.25200647 -0.01835862 1016.79909995 -0.00961363 C1022.2502862 -0.00482503 1027.70142276 -0.00329311 1033.15260757 -0.0104256 C1038.10122675 -0.01683496 1043.04975169 -0.01421653 1047.99836386 -0.00406428 C1049.78748657 -0.00203219 1051.5766169 -0.00342807 1053.36573364 -0.00847615 C1055.7769057 -0.01480228 1058.18774202 -0.00903229 1060.59889793 0 C1061.30222305 -0.00478148 1062.00554817 -0.00956297 1062.73018617 -0.01448935 C1067.50846298 0.02238693 1067.50846298 0.02238693 1069.73677438 2.25069833 C1069.93438867 5.21950404 1070.00435092 8.09507803 1069.98845667 11.06514382 C1069.99136355 11.99376947 1069.99427043 12.92239512 1069.9972654 13.87916094 C1070.00462993 17.02614207 1069.99759219 20.17293213 1069.99074167 23.3199122 C1069.99304356 25.58472934 1069.99621824 27.84954575 1070.00019616 30.11436057 C1070.00859022 36.36546476 1070.00439808 42.61650835 1069.99822372 48.86761284 C1069.99418103 54.90805118 1069.99948366 60.94847651 1070.00451845 66.9889123 C1070.015069 80.11207238 1070.01412958 93.23521303 1070.00836063 106.35837497 C1070.00333679 117.84241791 1070.00201271 129.32645371 1070.00440592 140.81049752 C1070.00463507 141.9515125 1070.00463507 141.9515125 1070.00486886 143.11557829 C1070.0054915 146.20312726 1070.00612829 149.29067622 1070.00678838 152.37822518 C1070.01291144 181.3635506 1070.00735144 210.34886363 1069.99659459 239.33418714 C1069.98710282 265.10665715 1069.98795205 290.8791074 1069.99751657 316.65157723 C1070.00821731 345.58264445 1070.01247726 374.5137007 1070.00629205 403.44476962 C1070.00565057 406.52681279 1070.0050249 409.60885596 1070.00440592 412.69089913 C1070.00424776 413.4498209 1070.00408961 414.20874267 1070.00392666 414.99066206 C1070.00164819 426.46971341 1070.00431882 437.94875684 1070.00936502 449.42780709 C1070.01507194 462.4751923 1070.01367873 475.52255497 1070.00280353 488.56993735 C1069.99743326 495.23333551 1069.99552024 501.89670233 1070.00210184 508.5601027 C1070.00802672 514.65051441 1070.00484392 520.74084831 1069.99414673 526.83125287 C1069.99189791 529.04386467 1069.99308179 531.25648294 1069.99789831 533.46909064 C1070.00391008 536.45824045 1069.99781357 539.44711769 1069.98845667 542.43625283 C1069.993139 543.31121276 1069.99782133 544.18617268 1070.00264555 545.08764654 C1069.96507511 551.0223976 1069.96507511 551.0223976 1067.73677438 553.25069833 C1065.31716075 553.44738478 1063.01210253 553.51783583 1060.59133524 553.50139666 C1059.84182373 553.50420129 1059.09231222 553.50700592 1058.32008824 553.50989555 C1055.77730338 553.51692371 1053.23475634 553.50954731 1050.69197458 553.50238061 C1048.85520717 553.50446453 1047.01844058 553.50742527 1045.18167585 553.51118934 C1040.09111114 553.51903659 1035.00062145 553.51428679 1029.91005784 553.50763344 C1024.38831555 553.50259027 1018.86658536 553.50906778 1013.34484476 553.5141201 C1003.65300165 553.52136834 993.96118079 553.52110916 984.26933664 553.51602578 C970.53092993 553.50883942 956.79254018 553.51174018 943.05413367 553.51758387 C918.14129723 553.52817322 893.22846953 553.52887523 868.31563181 553.52328897 C867.2073948 553.52304058 867.2073948 553.52304058 866.07676917 553.52278717 C865.33677008 553.52262132 864.59677098 553.52245546 863.83434767 553.52228457 C841.31524992 553.51724383 818.79615578 553.5159328 796.27705759 553.51832986 C794.77071273 553.51848482 793.26436788 553.51863913 791.75802302 553.5187928 C785.70507283 553.5194137 779.65212263 553.52005103 773.59917244 553.52071233 C756.67730704 553.5225466 739.75544163 553.52368761 722.83357614 553.5242846 C721.67757879 553.52432554 721.67757879 553.52432554 720.49822795 553.5243673 C695.93121781 553.5251862 671.36420893 553.52293033 646.79719919 553.51858544 C646.00006279 553.51844495 645.20292638 553.51830445 644.38163433 553.51815969 C631.43559576 553.51586963 618.48955722 553.51343078 605.54351868 553.51097934 C554.19387126 553.50126622 502.84423426 553.50171704 451.49458688 553.51144052 C438.55517446 553.51388278 425.61576203 553.51630483 412.67634958 553.51858544 C411.48135709 553.51879679 411.48135709 553.51879679 410.26222334 553.5190124 C385.72147294 553.52332296 361.1807234 553.52515366 336.63997263 553.5242846 C335.48481768 553.52424385 335.48481768 553.52424385 334.30632626 553.52420227 C317.40345129 553.52357739 300.50057641 553.52231026 283.59770153 553.5204636 C277.55007172 553.51980527 271.50244191 553.51917912 265.4548121 553.51856217 C263.95023614 553.5184074 262.44566018 553.51824994 260.94108421 553.51808978 C238.42631448 553.51569983 215.91154882 553.51774084 193.3967796 553.52278717 C192.65795493 553.52295277 191.91913026 553.52311836 191.15791696 553.52328897 C190.42044745 553.52345433 189.68297793 553.52361969 188.92316085 553.52379007 C164.08412169 553.52929888 139.24509304 553.52729286 114.40605539 553.51672748 C100.07150092 553.51078264 85.73697036 553.51050134 71.40241644 553.51801983 C61.84492109 553.52248169 52.2874458 553.51975527 42.72995344 553.51101029 C37.2728102 553.50622167 31.8157166 553.50468978 26.35857481 553.51182225 C21.40453803 553.51823161 16.45059541 553.5156132 11.49656564 553.50546093 C9.70547944 553.50342884 7.91438562 553.50482474 6.12330538 553.50987281 C3.70949093 553.51619891 1.29601185 553.51042897 -1.11778647 553.50139666 C-2.17394022 553.50856888 -2.17394022 553.50856888 -3.25143042 553.515886 C-8.03491422 553.47900972 -8.03491422 553.47900972 -10.26322562 551.25069833 C-10.46174325 548.28194744 -10.53262522 545.40633192 -10.51770121 542.43625283 C-10.52251093 541.04331436 -10.52251093 541.04331436 -10.52741781 539.62223572 C-10.53579389 536.47525761 -10.52976713 533.32846607 -10.52392203 530.18148446 C-10.52693924 527.91666705 -10.53082655 525.65185065 -10.53551459 523.38703609 C-10.54585869 517.13593462 -10.54359657 510.88489009 -10.539334 504.63378382 C-10.53713023 498.59334367 -10.54426454 492.55291925 -10.55109425 486.51248436 C-10.56636312 472.62556922 -10.56803639 458.73867226 -10.56557123 444.85175049 C-10.56374113 434.13146446 -10.56549221 423.41118442 -10.56979567 412.69089913 C-10.57039806 411.15269217 -10.57099926 409.6144852 -10.57159927 408.07627824 C-10.57250649 405.75857599 -10.57341515 403.44087373 -10.57433162 401.12317148 C-10.58276546 379.56475598 -10.58709384 358.00634273 -10.5829249 336.44792581 C-10.58276853 335.63461799 -10.58261215 334.82131018 -10.58245104 333.98335667 C-10.58164521 329.86084869 -10.58079944 325.73834072 -10.57993773 321.61583275 C-10.57976665 320.79703594 -10.57959556 319.97823914 -10.57941929 319.13463032 C-10.57907263 317.47882338 -10.5787241 315.82301645 -10.5783737 314.16720951 C-10.5730148 288.39473262 -10.58094994 262.62228993 -10.59940726 236.84981942 C-10.62010219 207.91875084 -10.63085483 178.98770344 -10.62683177 150.05662704 C-10.6264364 146.97458387 -10.62607486 143.8925407 -10.62573439 140.81049752 C-10.62564366 140.05157576 -10.62555293 139.29265399 -10.62545944 138.51073459 C-10.62429129 127.03167736 -10.63095828 115.55264146 -10.64154631 104.07358956 C-10.65356839 91.02619732 -10.65519191 77.97885221 -10.64275614 64.93145931 C-10.6366901 58.2680466 -10.63584825 51.60470621 -10.64775854 44.94129395 C-10.65851868 38.85085099 -10.65563309 32.76057844 -10.64149686 26.67014378 C-10.63882246 24.45753131 -10.64130107 22.24490589 -10.64923272 20.03230602 C-10.65921135 17.043041 -10.65102717 14.05438326 -10.63795573 11.06514382 C-10.64526507 10.1901839 -10.65257442 9.31522397 -10.66010526 8.41375011 C-10.63812244 6.01699805 -10.63812244 6.01699805 -10.26322562 2.25069833 C-6.67755395 -0.13974945 -4.13803168 -0.02822794 0 0 Z M36.73677438 47.25069833 C36.73677438 198.72069833 36.73677438 350.19069833 36.73677438 506.25069833 C362.11677438 506.25069833 687.49677438 506.25069833 1022.73677438 506.25069833 C1022.73677438 354.78069833 1022.73677438 203.31069833 1022.73677438 47.25069833 C697.35677438 47.25069833 371.97677438 47.25069833 36.73677438 47.25069833 Z " fill="#0CD8F3" transform="translate(10.263225615024567,-0.2506983280181885)"/>
<path d="M0 0 C0.66 0 1.32 0 2 0 C2 97.68 2 195.36 2 296 C75.62867663 295.92076245 75.62867663 295.92076245 149.25732422 295.81982422 C163.46704102 295.81079102 163.46704102 295.81079102 170.1098938 295.80911255 C174.7698251 295.80724208 179.42971128 295.79971881 184.08963013 295.78884888 C190.02329912 295.77518985 195.95690193 295.77100666 201.89058518 295.77385545 C204.07470578 295.77325924 206.25882856 295.76925856 208.44293571 295.76156974 C211.38057067 295.75170403 214.31794446 295.75398965 217.25558472 295.75949097 C218.12108507 295.75366564 218.98658543 295.74784031 219.87831306 295.74183846 C225.77175035 295.77175035 225.77175035 295.77175035 228 298 C152.43 298 76.86 298 -1 298 C-1.04033135 223.50799827 -1.04033135 223.50799827 -1.04882812 192.47460938 C-1.05078614 185.37068683 -1.05280666 178.2667643 -1.05493164 171.1628418 C-1.05519539 170.27242186 -1.05545914 169.38200191 -1.05573088 168.46459955 C-1.06008587 154.07004646 -1.06797281 139.67549735 -1.0771528 125.28094662 C-1.08648853 110.51959005 -1.09205544 95.75823558 -1.09408849 80.99687618 C-1.09546389 71.8807694 -1.09981536 62.76467385 -1.10791647 53.64857053 C-1.11318294 47.40607022 -1.11480452 41.16357576 -1.11350138 34.92107338 C-1.11285784 31.31394215 -1.11387724 27.70683061 -1.11920547 24.09970284 C-1.12492665 20.19830214 -1.12300111 16.29692753 -1.12025452 12.39552307 C-1.12316736 11.24282427 -1.1260802 10.09012547 -1.12908131 8.9024964 C-1.12709026 7.86593686 -1.12509921 6.82937733 -1.12304783 5.7614069 C-1.12342755 4.85957111 -1.12380727 3.95773533 -1.1241985 3.02857119 C-1 1 -1 1 0 0 Z " fill="#2CCDE3" transform="translate(165,90)"/>
<path d="M0 0 C0.33 0 0.66 0 1 0 C1 124.74 1 249.48 1 378 C0.34 378 -0.32 378 -1 378 C-2.22901195 375.5419761 -2.12533696 373.94830945 -2.12584114 371.19896221 C-2.12844889 370.17858008 -2.13105664 369.15819795 -2.13374341 368.10689515 C-2.13151268 366.97693881 -2.12928196 365.84698247 -2.12698364 364.68278503 C-2.12854363 363.48836031 -2.13010362 362.29393558 -2.13171089 361.06331617 C-2.1350217 357.73494904 -2.13381294 354.40663792 -2.13072467 351.07827413 C-2.12846929 347.48936032 -2.13195199 343.90045153 -2.13470459 340.3115387 C-2.13916887 333.25677492 -2.13818029 326.20202174 -2.13529195 319.14725753 C-2.13302853 313.37606196 -2.13272951 307.60486936 -2.13381577 301.83367348 C-2.133969 301.01015652 -2.13412223 300.18663957 -2.13428011 299.33816755 C-2.1345999 297.66403808 -2.13492412 295.9899086 -2.1352527 294.31577913 C-2.13811243 278.56380891 -2.13481897 262.81184449 -2.12945233 247.05987523 C-2.12503931 233.69933767 -2.12571288 220.33880886 -2.13037109 206.97827148 C-2.13580562 191.38444081 -2.1377797 175.79061533 -2.13475883 160.19678384 C-2.13444041 158.50851683 -2.13412604 156.82024982 -2.13381577 155.1319828 C-2.13358435 153.88699719 -2.13358435 153.88699719 -2.13334826 152.61686036 C-2.132505 146.92250689 -2.13391886 141.22815688 -2.13629532 135.53380394 C-2.14893915 102.16397521 -2.04397468 68.79963821 -1.58563146 35.43254878 C-1.55439843 33.12919341 -1.52473002 30.82582222 -1.49537492 28.52244222 C-1.44926364 24.94767977 -1.3978288 21.37303396 -1.34188429 17.79841219 C-1.31247729 15.86312215 -1.28736148 13.92776842 -1.26235652 11.9924165 C-1.2428397 10.84435682 -1.22332288 9.69629713 -1.20321465 8.51344776 C-1.18807095 7.51502159 -1.17292726 6.51659542 -1.15732467 5.48791391 C-1 3 -1 3 0 0 Z " fill="#1ADCE8" transform="translate(86,88)"/>
<path d="M0 0 C1.82421875 0.22265625 1.82421875 0.22265625 4 1 C5.45703125 2.93359375 5.45703125 2.93359375 6.8125 5.4375 C9.46733144 10.18216028 12.47020186 14.46221643 15.77734375 18.7734375 C17 21 17 21 16.69140625 23.2890625 C16.46324219 23.85367188 16.23507812 24.41828125 16 25 C16 24.34 16 23.68 16 23 C15.34 23 14.68 23 14 23 C13.67 22.34 13.34 21.68 13 21 C12.01 20.67 11.02 20.34 10 20 C10 18.35 10 16.7 10 15 C8.35 15 6.7 15 5 15 C5 13.35 5 11.7 5 10 C4.01 9.67 3.02 9.34 2 9 C2 7.02 2 5.04 2 3 C1.34 3 0.68 3 0 3 C0 2.01 0 1.02 0 0 Z " fill="#11D7EE" transform="translate(595,175)"/>
<path d="M0 0 C5.24650385 3.76379624 8.65261783 8.05165924 12.1875 13.375 C12.60306152 13.99898682 13.01862305 14.62297363 13.44677734 15.26586914 C19.48197172 24.5696244 19.48197172 24.5696244 21 29 C20.67 29.99 20.34 30.98 20 32 C19.34 31.34 18.68 30.68 18 30 C17.34 30.33 16.68 30.66 16 31 C16 28.36 16 25.72 16 23 C15.34 23 14.68 23 14 23 C14 22.01 14 21.02 14 20 C13.34 20 12.68 20 12 20 C11.67 18.35 11.34 16.7 11 15 C10.34 15 9.68 15 9 15 C9 14.01 9 13.02 9 12 C8.01 11.67 7.02 11.34 6 11 C6 10.34 6 9.68 6 9 C5.01 9 4.02 9 3 9 C3 8.34 3 7.68 3 7 C2.01 7 1.02 7 0 7 C0 4.69 0 2.38 0 0 Z " fill="#21D9EF" transform="translate(906,281)"/>
<path d="M0 0 C3.61464252 3.41382904 6.33996795 6.80843434 9 11 C9.80050781 12.10988281 9.80050781 12.10988281 10.6171875 13.2421875 C11.17664063 14.02851563 11.73609375 14.81484375 12.3125 15.625 C12.84488281 16.35976563 13.37726562 17.09453125 13.92578125 17.8515625 C15 20 15 20 14.66796875 22.2734375 C14.44753906 22.84320313 14.22710938 23.41296875 14 24 C14 23.34 14 22.68 14 22 C13.34 22 12.68 22 12 22 C11.67 20.35 11.34 18.7 11 17 C10.01 16.67 9.02 16.34 8 16 C6.8125 13.4375 6.8125 13.4375 6 11 C4.35 11 2.7 11 1 11 C1.020625 10.113125 1.04125 9.22625 1.0625 8.3125 C1.00713781 5.37830369 0.6694266 2.84506304 0 0 Z " fill="#14D7EC" transform="translate(648,252)"/>
<path d="M0 0 C0.66 0 1.32 0 2 0 C2 0.66 2 1.32 2 2 C2.66 2 3.32 2 4 2 C4 2.66 4 3.32 4 4 C-6.37357631 9.37129841 -6.37357631 9.37129841 -12 11 C-12 10.01 -12 9.02 -12 8 C-10.25 6.5 -10.25 6.5 -8 5 C-7.01 4.1646875 -7.01 4.1646875 -6 3.3125 C-4 2 -4 2 0 2 C0 1.34 0 0.68 0 0 Z " fill="#17D9EF" transform="translate(896,459)"/>
<path d="M0 0 C6.27 0 12.54 0 19 0 C19 0.99 19 1.98 19 3 C12.4 3 5.8 3 -1 3 C-0.67 2.01 -0.34 1.02 0 0 Z " fill="#6EDDEB" transform="translate(719,83)"/>
<path d="M0 0 C1.32 0.33 2.64 0.66 4 1 C2.07289294 12.52164009 2.07289294 12.52164009 0 18 C-0.66 18 -1.32 18 -2 18 C-1.814375 17.030625 -1.62875 16.06125 -1.4375 15.0625 C-0.78143953 10.61586794 -1.34865134 6.41915017 -2 2 C-1.34 2 -0.68 2 0 2 C0 1.34 0 0.68 0 0 Z " fill="#15D3EA" transform="translate(477,351)"/>
<path d="M0 0 C4.70371502 2.12787108 8.2439596 4.5122482 12 8 C12 8.66 12 9.32 12 10 C12.99 10.33 13.98 10.66 15 11 C15.33 11.99 15.66 12.98 16 14 C15.38125 14.12375 14.7625 14.2475 14.125 14.375 C11.80879168 14.87197356 11.80879168 14.87197356 10 17 C10 14.36 10 11.72 10 9 C9.01 8.67 8.02 8.34 7 8 C7 7.34 7 6.68 7 6 C6.401875 5.87625 5.80375 5.7525 5.1875 5.625 C3 5 3 5 0 3 C0 2.01 0 1.02 0 0 Z " fill="#23D2EB" transform="translate(896,89)"/>
<path d="M0 0 C2.0625 0.4375 2.0625 0.4375 4 1 C3.67 1.66 3.34 2.32 3 3 C3.99 3 4.98 3 6 3 C6.12375 3.763125 6.2475 4.52625 6.375 5.3125 C6.88102792 8.20267136 6.88102792 8.20267136 9 11 C8.625 13.1875 8.625 13.1875 8 15 C4.48453819 10.51750177 1.35287886 6.22861968 -1 1 C-0.67 0.67 -0.34 0.34 0 0 Z " fill="#17D6EA" transform="translate(656,380)"/>
<path d="M0 0 C0.66 0 1.32 0 2 0 C1.4618629 5.69051363 0.8599867 11.34865884 0 17 C-0.33 16.01 -0.66 15.02 -1 14 C-1.66 14 -2.32 14 -3 14 C-3.33 14.66 -3.66 15.32 -4 16 C-4 14.35 -4 12.7 -4 11 C-3.34 11 -2.68 11 -2 11 C-1.93941406 10.28972656 -1.87882813 9.57945312 -1.81640625 8.84765625 C-1.69072266 7.46900391 -1.69072266 7.46900391 -1.5625 6.0625 C-1.48128906 5.14597656 -1.40007813 4.22945313 -1.31640625 3.28515625 C-1 1 -1 1 0 0 Z " fill="#0BDAF0" transform="translate(935,385)"/>
<path d="M0 0 C1.73046875 0.13671875 1.73046875 0.13671875 4 1 C6.17578125 3.58203125 6.17578125 3.58203125 8.3125 6.8125 C9.03050781 7.87082031 9.74851562 8.92914063 10.48828125 10.01953125 C12 13 12 13 11.73046875 15.38671875 C11.36888672 16.18529297 11.36888672 16.18529297 11 17 C8 13.25 8 13.25 8 11 C7.34 11 6.68 11 6 11 C5.67 9.35 5.34 7.7 5 6 C4.34 6 3.68 6 3 6 C2.87625 5.195625 2.7525 4.39125 2.625 3.5625 C2.315625 2.2940625 2.315625 2.2940625 2 1 C1.34 0.67 0.68 0.34 0 0 Z " fill="#1BD6E7" transform="translate(573,143)"/>
<path d="M0 0 C3.5 0.3125 3.5 0.3125 7 1 C7.33 1.66 7.66 2.32 8 3 C7.67 3.99 7.34 4.98 7 6 C6.01 5.67 5.02 5.34 4 5 C4.33 4.34 4.66 3.68 5 3 C4.34 3 3.68 3 3 3 C3 3.99 3 4.98 3 6 C1.35 6.33 -0.3 6.66 -2 7 C-1.125 1.125 -1.125 1.125 0 0 Z " fill="#1CD9EF" transform="translate(470,81)"/>
<path d="M0 0 C1.258125 0.12375 2.51625 0.2475 3.8125 0.375 C4.87404297 0.47941406 4.87404297 0.47941406 5.95703125 0.5859375 C8 1 8 1 11 3 C10.01 3.33 9.02 3.66 8 4 C7.67 4.99 7.34 5.98 7 7 C4.03 6.505 4.03 6.505 1 6 C0.67 4.02 0.34 2.04 0 0 Z " fill="#19D7EF" transform="translate(522,91)"/>
<path d="M0 0 C0.33 0.66 0.66 1.32 1 2 C1.99 2.33 2.98 2.66 4 3 C5.02028865 4.31787285 6.01971384 5.65210653 7 7 C7.99 7.66 8.98 8.32 10 9 C9.67 10.32 9.34 11.64 9 13 C4.6180876 11.53936253 2.05288059 7.98797296 0 4 C0 2.68 0 1.36 0 0 Z " fill="#17D1EA" transform="translate(669,399)"/>
<path d="M0 0 C0.66 0 1.32 0 2 0 C3.3671875 1.72265625 3.3671875 1.72265625 4.875 4.0625 C5.4009375 4.8771875 5.926875 5.691875 6.46875 6.53125 C8.39983971 9.64463953 10.22661902 12.79427284 12 16 C11.01 16 10.02 16 9 16 C9 15.34 9 14.68 9 14 C8.34 13.67 7.68 13.34 7 13 C6.375 10.9375 6.375 10.9375 6 9 C5.34 9 4.68 9 4 9 C1.3879169 7.11930017 1.00531495 6.02464205 0.3125 2.8125 C0.209375 1.884375 0.10625 0.95625 0 0 Z " fill="#23D4EB" transform="translate(667,281)"/>
<path d="M0 0 C1.32 0 2.64 0 4 0 C3.45015228 3.87511727 1.72444669 5.59576506 -1.0625 8.25 C-1.79597656 8.95640625 -2.52945313 9.6628125 -3.28515625 10.390625 C-3.85105469 10.92171875 -4.41695312 11.4528125 -5 12 C-5.99 11.67 -6.98 11.34 -8 11 C-8 10.01 -8 9.02 -8 8 C-6.35 8 -4.7 8 -3 8 C-2.67 7.01 -2.34 6.02 -2 5 C-1.34 5 -0.68 5 0 5 C0 3.35 0 1.7 0 0 Z " fill="#1DD4EB" transform="translate(909,263)"/>
<path d="M0 0 C0.66 0 1.32 0 2 0 C2.508783 1.55966218 3.00663469 3.12289241 3.5 4.6875 C3.7784375 5.55761719 4.056875 6.42773438 4.34375 7.32421875 C4.99850805 9.99391677 5.11831495 12.26396684 5 15 C4.34 15 3.68 15 3 15 C3 13.35 3 11.7 3 10 C2.34 10 1.68 10 1 10 C1 8.35 1 6.7 1 5 C0.34 4.67 -0.32 4.34 -1 4 C-0.67 2.68 -0.34 1.36 0 0 Z " fill="#24D8EA" transform="translate(928,134)"/>
<path d="M0 0 C0.66 0 1.32 0 2 0 C3.4631783 1.97440927 4.80713064 3.93238871 6.125 6 C6.49753906 6.57234375 6.87007812 7.1446875 7.25390625 7.734375 C8.17550408 9.15221782 9.08855821 10.57560725 10 12 C9.01 12.495 9.01 12.495 8 13 C7.01 12.67 6.02 12.34 5 12 C5 11.34 5 10.68 5 10 C4.34 10 3.68 10 3 10 C3 8.02 3 6.04 3 4 C2.01 3.67 1.02 3.34 0 3 C0 2.01 0 1.02 0 0 Z " fill="#25D5EA" transform="translate(545,99)"/>
<path d="M0 0 C3.34072178 1.38779449 4.90199421 2.81588196 6.8125 5.875 C7.25207031 6.55304688 7.69164062 7.23109375 8.14453125 7.9296875 C9.16843185 10.40762047 8.90457722 11.52489914 8 14 C8 13.34 8 12.68 8 12 C7.34 12 6.68 12 6 12 C5.67 10.35 5.34 8.7 5 7 C4.01 6.67 3.02 6.34 2 6 C0 3 0 3 0 0 Z " fill="#2BCADB" transform="translate(654,262)"/>
<path d="M0 0 C1.875 0.3125 1.875 0.3125 4 1 C6 4 6 4 5.625 7.1875 C5.41875 8.115625 5.2125 9.04375 5 10 C4.01 9.67 3.02 9.34 2 9 C2 7.02 2 5.04 2 3 C1.34 3 0.68 3 0 3 C0 2.01 0 1.02 0 0 Z " fill="#23DCEC" transform="translate(595,175)"/>
<path d="M0 0 C0.66 0 1.32 0 2 0 C1.45018084 6.04801071 0.09570426 11.30601106 -2 17 C-2.33 17 -2.66 17 -3 17 C-3 15.02 -3 13.04 -3 11 C-2.34 11 -1.68 11 -1 11 C-1.33 9.35 -1.66 7.7 -2 6 C-1.34 6 -0.68 6 0 6 C0 4.02 0 2.04 0 0 Z " fill="#2CD2E3" transform="translate(513,217)"/>
<path d="M0 0 C0.66 0.33 1.32 0.66 2 1 C1.69078116 2.45903258 1.37751201 3.91720722 1.0625 5.375 C0.88847656 6.18710937 0.71445312 6.99921875 0.53515625 7.8359375 C0 10 0 10 -1 12 C-1.99 11.67 -2.98 11.34 -4 11 C-2.7874262 7.27566618 -1.49140021 3.62197194 0 0 Z " fill="#24D9EE" transform="translate(930,410)"/>
<path d="M0 0 C3 1 3 1 4.203125 2.7421875 C4.54859375 3.44601562 4.8940625 4.14984375 5.25 4.875 C5.60578125 5.57367188 5.9615625 6.27234375 6.328125 6.9921875 C7 9 7 9 6 12 C5.34 11.34 4.68 10.68 4 10 C3.01 10.495 3.01 10.495 2 11 C2 8.36 2 5.72 2 3 C1.34 3 0.68 3 0 3 C0 2.01 0 1.02 0 0 Z " fill="#14D1E5" transform="translate(920,301)"/>
<path d="M0 0 C0.66 0.66 1.32 1.32 2 2 C0.02 5.96 -1.96 9.92 -4 14 C-4.99 14 -5.98 14 -7 14 C-7 13.34 -7 12.68 -7 12 C-6.34 12 -5.68 12 -5 12 C-5 11.01 -5 10.02 -5 9 C-4.34 9 -3.68 9 -3 9 C-2.67 6.69 -2.34 4.38 -2 2 C-1.34 2 -0.68 2 0 2 C0 1.34 0 0.68 0 0 Z " fill="#23D5EA" transform="translate(925,425)"/>
<path d="M0 0 C4.06540996 1.35513665 4.97300269 3.30796918 7 7 C6.75 9.375 6.75 9.375 6 11 C6 10.34 6 9.68 6 9 C5.34 9 4.68 9 4 9 C3.67 8.34 3.34 7.68 3 7 C2.01 6.67 1.02 6.34 0 6 C0 4.02 0 2.04 0 0 Z " fill="#1AD3E7" transform="translate(605,189)"/>
<path d="M0 0 C5.445 1.485 5.445 1.485 11 3 C11 3.66 11 4.32 11 5 C9.02 5 7.04 5 5 5 C5 4.34 5 3.68 5 3 C3.02 3 1.04 3 -1 3 C-0.67 2.01 -0.34 1.02 0 0 Z " fill="#17D3E6" transform="translate(497,84)"/>
<path d="M0 0 C5.8022175 -0.36263859 9.63999211 0.74315457 15 3 C15 3.66 15 4.32 15 5 C10 4 5 3 0 2 C0 1.34 0 0.68 0 0 Z " fill="#24D6E8" transform="translate(480,81)"/>
<path d="M0 0 C2.875 -0.125 2.875 -0.125 6 0 C6.66 0.66 7.32 1.32 8 2 C7.625 4.125 7.625 4.125 7 6 C3.535 4.02 3.535 4.02 0 2 C0 1.34 0 0.68 0 0 Z " fill="#2CE8F1" transform="translate(1072,0)"/>
<path d="M0 0 C0.66 0 1.32 0 2 0 C2 0.66 2 1.32 2 2 C2.66 2 3.32 2 4 2 C4 1.34 4 0.68 4 0 C4.66 0 5.32 0 6 0 C5.74438677 2.3431213 5.40729228 4.67843403 5 7 C4.01 7.495 4.01 7.495 3 8 C0.37613513 4.93882432 0 4.26826873 0 0 Z " fill="#11D2ED" transform="translate(651,372)"/>
<path d="M0 0 C0.66 0.33 1.32 0.66 2 1 C2.6328125 3.28515625 2.6328125 3.28515625 3.125 6.0625 C3.29257812 6.98160156 3.46015625 7.90070313 3.6328125 8.84765625 C3.75398437 9.55792969 3.87515625 10.26820313 4 11 C3.01 11 2.02 11 1 11 C1 9.02 1 7.04 1 5 C0.34 5 -0.32 5 -1 5 C-0.67 3.35 -0.34 1.7 0 0 Z " fill="#26DAE9" transform="translate(930,323)"/>
<path d="M0 0 C0.99 0 1.98 0 3 0 C3 0.99 3 1.98 3 3 C2.34 3 1.68 3 1 3 C1 3.66 1 4.32 1 5 C1.66 5.33 2.32 5.66 3 6 C1.02 6.99 1.02 6.99 -1 8 C-1.66 7.01 -2.32 6.02 -3 5 C-2.67 4.01 -2.34 3.02 -2 2 C-1.34 2.33 -0.68 2.66 0 3 C0 2.01 0 1.02 0 0 Z " fill="#1AD5ED" transform="translate(553,220)"/>
<path d="M0 0 C1.32 0 2.64 0 4 0 C4.33 0.99 4.66 1.98 5 3 C6.29355827 4.37195574 7.62298702 5.71182656 9 7 C5 7 5 7 3.515625 5.72265625 C0 1.11111111 0 1.11111111 0 0 Z " fill="#10CDE9" transform="translate(709,461)"/>
<path d="M0 0 C2.33524782 2.25740623 4.18705073 4.2805761 6 7 C6 7.99 6 8.98 6 10 C5.01 9.67 4.02 9.34 3 9 C3 8.34 3 7.68 3 7 C2.34 7 1.68 7 1 7 C0.67 4.69 0.34 2.38 0 0 Z " fill="#22D5E9" transform="translate(689,313)"/>
<path d="M0 0 C0.99 0.495 0.99 0.495 2 1 C2 1.66 2 2.32 2 3 C2.99 3.33 3.98 3.66 5 4 C5.33 4.99 5.66 5.98 6 7 C5.38125 7.12375 4.7625 7.2475 4.125 7.375 C1.80879168 7.87197356 1.80879168 7.87197356 0 10 C0 6.7 0 3.4 0 0 Z " fill="#30DCEE" transform="translate(906,96)"/>
<path d="M0 0 C4.875 4.625 4.875 4.625 6 8 C5.67 8.66 5.34 9.32 5 10 C4.01 9.67 3.02 9.34 2 9 C1.09162237 6.52260646 1 4.66420516 1 2 C0.34 1.67 -0.32 1.34 -1 1 C-0.67 0.67 -0.34 0.34 0 0 Z " fill="#29D8EF" transform="translate(634,231)"/>
<path d="M0 0 C0.66 0.66 1.32 1.32 2 2 C3.32 2 4.64 2 6 2 C5.67 3.32 5.34 4.64 5 6 C3.68 6 2.36 6 1 6 C0.67 6.99 0.34 7.98 0 9 C0 6.03 0 3.06 0 0 Z " fill="#1AD6EB" transform="translate(521,180)"/>
<path d="M0 0 C0.99 0.33 1.98 0.66 3 1 C3 2.32 3 3.64 3 5 C3.66 5 4.32 5 5 5 C5 6.65 5 8.3 5 10 C1.32769295 6.92000054 0.43197635 4.7517398 0 0 Z " fill="#1AD8EA" transform="translate(697,440)"/>
<path d="M0 0 C0.99 0 1.98 0 3 0 C1.515 5.445 1.515 5.445 0 11 C-0.66 11 -1.32 11 -2 11 C-2 9.35 -2 7.7 -2 6 C-1.34 6 -0.68 6 0 6 C0 4.02 0 2.04 0 0 Z " fill="#15CFE2" transform="translate(472,377)"/>
<path d="M0 0 C0.99 0.33 1.98 0.66 3 1 C3 1.66 3 2.32 3 3 C3.66 3 4.32 3 5 3 C5.33 4.98 5.66 6.96 6 9 C5.34 9 4.68 9 4 9 C0 3.70588235 0 3.70588235 0 0 Z " fill="#27D8E9" transform="translate(586,276)"/>
<path d="M0 0 C1.98 0.99 1.98 0.99 4 2 C4 3.65 4 5.3 4 7 C4.66 7 5.32 7 6 7 C6 7.66 6 8.32 6 9 C2.83884224 7.63016497 2.0072908 7.0109362 0 4 C0 2.68 0 1.36 0 0 Z " fill="#14D3EA" transform="translate(544,212)"/>
<path d="M0 0 C4.20390632 1.50139512 5.89110738 4.17275043 8 8 C7.67 8.99 7.34 9.98 7 11 C6.34 9.68 5.68 8.36 5 7 C4.34 7 3.68 7 3 7 C0 2.61538462 0 2.61538462 0 0 Z " fill="#1ACFE8" transform="translate(695,324)"/>
<path d="M0 0 C2 3 2 3 1.7578125 5.26171875 C1.54898437 6.06222656 1.34015625 6.86273438 1.125 7.6875 C0.92132813 8.49574219 0.71765625 9.30398438 0.5078125 10.13671875 C0.25644531 11.05904297 0.25644531 11.05904297 0 12 C-0.66 12 -1.32 12 -2 12 C-2.21278058 7.53160785 -1.59138085 4.17737474 0 0 Z " fill="#1BD4E8" transform="translate(417,284)"/>
<path d="M0 0 C1.44977894 2.34112451 2.04314411 3.5796929 1.7578125 6.359375 C1.54898437 7.14828125 1.34015625 7.9371875 1.125 8.75 C0.92132813 9.54921875 0.71765625 10.3484375 0.5078125 11.171875 C0.34023438 11.77515625 0.17265625 12.3784375 0 13 C-1.44977894 10.65887549 -2.04314411 9.4203071 -1.7578125 6.640625 C-1.54898437 5.85171875 -1.34015625 5.0628125 -1.125 4.25 C-0.92132813 3.45078125 -0.71765625 2.6515625 -0.5078125 1.828125 C-0.34023438 1.22484375 -0.17265625 0.6215625 0 0 Z " fill="#1FD1E6" transform="translate(497,279)"/>
<path d="M0 0 C0.66 0.66 1.32 1.32 2 2 C1.6875 3.75 1.6875 3.75 1 6 C0.65421232 7.99788438 0.31856451 9.99759451 0 12 C-0.99 11.34 -1.98 10.68 -3 10 C-2.01 6.7 -1.02 3.4 0 0 Z " fill="#32D3ED" transform="translate(437,206)"/>
<path d="M0 0 C3.19665902 2.13110601 4.33819262 3.59329487 6 7 C5.67 7.99 5.34 8.98 5 10 C4.34 9.67 3.68 9.34 3 9 C3 8.01 3 7.02 3 6 C2.34 6 1.68 6 1 6 C0.67 4.02 0.34 2.04 0 0 Z " fill="#27D4E7" transform="translate(586,159)"/>
<path d="M0 0 C0.66 0 1.32 0 2 0 C1.67 3.3 1.34 6.6 1 10 C0.34 10 -0.32 10 -1 10 C-1.125 3.375 -1.125 3.375 0 0 Z " fill="#2BD8EA" transform="translate(454,138)"/>
<path d="M0 0 C0 0.99 0 1.98 0 3 C-0.66 3 -1.32 3 -2 3 C-2.33 5.64 -2.66 8.28 -3 11 C-3.33 11 -3.66 11 -4 11 C-4 9.02 -4 7.04 -4 5 C-4.66 4.67 -5.32 4.34 -6 4 C-2.25 0 -2.25 0 0 0 Z " fill="#13D6E5" transform="translate(718,84)"/>
<path d="M0 0 C0.33 0.66 0.66 1.32 1 2 C1.66 2 2.32 2 3 2 C3.33 3.65 3.66 5.3 4 7 C4.66 7 5.32 7 6 7 C6 7.66 6 8.32 6 9 C2.70851757 7.86500606 2.0040131 7.00716624 0.25 3.875 C-0.1625 2.92625 -0.575 1.9775 -1 1 C-0.67 0.67 -0.34 0.34 0 0 Z " fill="#1FD4EA" transform="translate(688,427)"/>
<path d="M0 0 C0.66 0 1.32 0 2 0 C1.67 3.3 1.34 6.6 1 10 C-1 8 -1 8 -1.1875 4.4375 C-1 1 -1 1 0 0 Z " fill="#24DAED" transform="translate(935,385)"/>
<path d="M0 0 C5.90625 5.625 5.90625 5.625 6.1875 9.75 C6.125625 10.4925 6.06375 11.235 6 12 C5.34 11.34 4.68 10.68 4 10 C4 9.01 4 8.02 4 7 C3.34 7 2.68 7 2 7 C0 2.25 0 2.25 0 0 Z " fill="#36DAE9" transform="translate(682,302)"/>
<path d="M0 0 C0.33 0.66 0.66 1.32 1 2 C1.66 2 2.32 2 3 2 C3 2.99 3 3.98 3 5 C3.99 5.33 4.98 5.66 6 6 C6 6.99 6 7.98 6 9 C2.83884224 7.63016497 2.0072908 7.0109362 0 4 C0 2.68 0 1.36 0 0 Z " fill="#18D3E8" transform="translate(580,266)"/>
<path d="M0 0 C-1.26422764 2.52845528 -2.52845528 2.76422764 -5 4 C-5.33 4.66 -5.66 5.32 -6 6 C-6.66 6 -7.32 6 -8 6 C-7.625 3.5625 -7.625 3.5625 -7 1 C-4.53721199 -0.231394 -2.7204945 -0.07159196 0 0 Z " fill="#3CE7F4" transform="translate(8,0)"/>
<path d="M0 0 C-2.46278801 2.46278801 -4.70676982 2.99771255 -8 4 C-8 3.01 -8 2.02 -8 1 C-4.93251126 -0.86240388 -3.40254489 -1.2151946 0 0 Z " fill="#15CEE4" transform="translate(892,466)"/>
<path d="M0 0 C0.99 0.99 1.98 1.98 3 3 C4.32 2.34 5.64 1.68 7 1 C5.84826645 3.46800047 4.95216435 5.04783565 3 7 C0 3.375 0 3.375 0 0 Z " fill="#1ED5EB" transform="translate(683,420)"/>
<path d="M0 0 C0.99 0.33 1.98 0.66 3 1 C4.25 7.625 4.25 7.625 2 11 C1.34 7.37 0.68 3.74 0 0 Z " fill="#27D4ED" transform="translate(933,342)"/>
<path d="M0 0 C1.5625 1.25 1.5625 1.25 3 3 C2.6875 5.1875 2.6875 5.1875 2 7 C2 6.34 2 5.68 2 5 C1.360625 4.896875 0.72125 4.79375 0.0625 4.6875 C-0.618125 4.460625 -1.29875 4.23375 -2 4 C-2.33 3.01 -2.66 2.02 -3 1 C-2.01 0.67 -1.02 0.34 0 0 Z " fill="#1FD5EE" transform="translate(663,274)"/>
<path d="M0 0 C0.66 0 1.32 0 2 0 C2.1875 2.8125 2.1875 2.8125 2 6 C1.01 6.99 0.02 7.98 -1 9 C-0.67 6.03 -0.34 3.06 0 0 Z " fill="#13D6E7" transform="translate(481,342)"/>
<path d="M0 0 C0.99 0 1.98 0 3 0 C3 0.66 3 1.32 3 2 C3.66 2 4.32 2 5 2 C5 3.32 5 4.64 5 6 C3.0625 5.25 3.0625 5.25 1 4 C0.25 1.875 0.25 1.875 0 0 Z " fill="#1AD2E7" transform="translate(594,288)"/>
<path d="M0 0 C1.875 0.125 1.875 0.125 4 1 C5.25 4.0625 5.25 4.0625 6 7 C5.01 6.67 4.02 6.34 3 6 C3 5.34 3 4.68 3 4 C2.01 4 1.02 4 0 4 C0 2.68 0 1.36 0 0 Z " fill="#14D7E6" transform="translate(909,286)"/>
<path d="M0 0 C1.80411967 2.75924185 2.0127245 3.88972103 1.625 7.25 C1.41875 8.1575 1.2125 9.065 1 10 C0.01 10 -0.98 10 -2 10 C-1.33333333 6.66666667 -0.66666667 3.33333333 0 0 Z " fill="#19D1E2" transform="translate(516,204)"/>
<path d="M0 0 C1.125 1.6875 1.125 1.6875 2 4 C1.125 6.75 1.125 6.75 0 9 C-0.66 9 -1.32 9 -2 9 C-2 7.02 -2 5.04 -2 3 C-1.34 3 -0.68 3 0 3 C0 2.01 0 1.02 0 0 Z " fill="#15D0E8" transform="translate(444,183)"/>
<path d="M0 0 C1.42944945 2.35438733 2.08661261 3.48032433 1.625 6.25 C1.41875 6.8275 1.2125 7.405 1 8 C0.34 8 -0.32 8 -1 8 C-1.33 8.66 -1.66 9.32 -2 10 C-1.54177532 6.53058454 -1.10868317 3.32604951 0 0 Z " fill="#21D0E7" transform="translate(933,399)"/>
<path d="M0 0 C0.66 0.33 1.32 0.66 2 1 C2 3.64 2 6.28 2 9 C1.67 8.01 1.34 7.02 1 6 C0.34 6 -0.32 6 -1 6 C-1.042721 4.33388095 -1.04063832 2.66617115 -1 1 C-0.67 0.67 -0.34 0.34 0 0 Z " fill="#2DD7E8" transform="translate(927,314)"/>
<path d="M0 0 C0.66 0 1.32 0 2 0 C2.24042276 4.08718695 1.42258812 7.17679443 0 11 C-0.33 11 -0.66 11 -1 11 C-1.125 3.375 -1.125 3.375 0 0 Z " fill="#28D2EB" transform="translate(410,312)"/>
<path d="M0 0 C0.99 0 1.98 0 3 0 C2.34 2.31 1.68 4.62 1 7 C0.34 7 -0.32 7 -1 7 C-0.67 4.69 -0.34 2.38 0 0 Z " fill="#1FD6E7" transform="translate(929,228)"/>
<path d="M0 0 C0.20140476 3.62528568 -0.14223235 5.86501708 -2 9 C-2.33 9 -2.66 9 -3 9 C-3 6.36 -3 3.72 -3 1 C-1 0 -1 0 0 0 Z " fill="#29D3EA" transform="translate(442,195)"/>
<path d="M0 0 C0.99 0.33 1.98 0.66 3 1 C3.33 2.98 3.66 4.96 4 7 C3.34 7 2.68 7 2 7 C0 4 0 4 0 0 Z " fill="#1CD1EB" transform="translate(645,363)"/>
<path d="M0 0 C0.66 0 1.32 0 2 0 C2.75 1.6875 2.75 1.6875 3 4 C1.0625 6.75 1.0625 6.75 -1 9 C-0.67 6.03 -0.34 3.06 0 0 Z " fill="#1AD1E8" transform="translate(407,325)"/>
<path d="M0 0 C1.125 1.625 1.125 1.625 2 4 C1.125 7.25 1.125 7.25 0 10 C-0.66 9.67 -1.32 9.34 -2 9 C-2 7.68 -2 6.36 -2 5 C-1.34 5 -0.68 5 0 5 C0 3.35 0 1.7 0 0 Z " fill="#2CCAD9" transform="translate(507,242)"/>
<path d="M0 0 C1.0326802 2.78823655 1.04509293 3.8677274 0.0625 6.75 C-0.288125 7.4925 -0.63875 8.235 -1 9 C-1.66 9 -2.32 9 -3 9 C-2.5020163 5.26512223 -2.12508244 3.18762365 0 0 Z " fill="#18C3D5" transform="translate(925,241)"/>
<path d="M0 0 C0.33 0 0.66 0 1 0 C1.28571429 7.42857143 1.28571429 7.42857143 -1 11 C-1.33 11 -1.66 11 -2 11 C-2 9.02 -2 7.04 -2 5 C-1.34 5 -0.68 5 0 5 C0 3.35 0 1.7 0 0 Z " fill="#1AD0E3" transform="translate(933,215)"/>
<path d="M0 0 C0.99 0 1.98 0 3 0 C3 1.32 3 2.64 3 4 C2.01 4.495 2.01 4.495 1 5 C0.67 5.99 0.34 6.98 0 8 C-0.66 7.67 -1.32 7.34 -2 7 C-1.34 4.69 -0.68 2.38 0 0 Z " fill="#23DDF0" transform="translate(444,178)"/>
<path d="M0 0 C2.88575819 0.39803561 3.82189513 0.79009069 5.75 3.0625 C6.1625 3.701875 6.575 4.34125 7 5 C6.67 5.66 6.34 6.32 6 7 C5.01 6.67 4.02 6.34 3 6 C2.87625 5.195625 2.7525 4.39125 2.625 3.5625 C2.315625 2.2940625 2.315625 2.2940625 2 1 C1.34 0.67 0.68 0.34 0 0 Z " fill="#24D9ED" transform="translate(573,143)"/>
<path d="M0 0 C1.98 0 3.96 0 6 0 C5.67 0.99 5.34 1.98 5 3 C2.9375 3.6875 2.9375 3.6875 1 4 C0.67 2.68 0.34 1.36 0 0 Z " fill="#11D4E8" transform="translate(903,453)"/>
<path d="M0 0 C1.65 0 3.3 0 5 0 C5.33 1.32 5.66 2.64 6 4 C4.68 4 3.36 4 2 4 C2 3.01 2 2.02 2 1 C1.34 0.67 0.68 0.34 0 0 Z " fill="#11D1EA" transform="translate(899,278)"/>
<path d="" fill="#FFFFFF" transform="translate(0,0)"/>
</svg>
