<?xml version="1.0" encoding="UTF-8"?>
<svg version="1.1" xmlns="http://www.w3.org/2000/svg" width="381" height="229">
<path d="M0 0 C1.72973925 -0.00679667 1.72973925 -0.00679667 3.49442273 -0.01373065 C6.68212888 -0.02417635 9.8696926 -0.02570468 13.05741036 -0.02334189 C16.50064645 -0.02293276 19.94384924 -0.03398217 23.3870697 -0.04345703 C30.12858195 -0.06004786 36.87005921 -0.06556573 43.61159017 -0.06668179 C49.09425844 -0.06763329 54.57691521 -0.07174872 60.05957985 -0.07808304 C75.61796123 -0.09569122 91.17631506 -0.10492272 106.73470648 -0.10342209 C107.99202035 -0.10330222 107.99202035 -0.10330222 109.2747345 -0.10317993 C110.53359111 -0.10305729 110.53359111 -0.10305729 111.81787918 -0.10293217 C125.41171343 -0.10211968 139.00543677 -0.12124917 152.59923895 -0.14945666 C166.57099972 -0.17821865 180.54270647 -0.1919951 194.51449758 -0.19026911 C202.3530272 -0.18960629 210.19144058 -0.19505093 218.02994347 -0.21662521 C224.70528729 -0.23488084 231.38046221 -0.23914866 238.05582025 -0.22560637 C241.45796989 -0.21909816 244.85953292 -0.22107509 248.26169395 -0.23631287 C251.95990527 -0.25179998 255.65727493 -0.24243285 259.35546875 -0.22705078 C260.41687818 -0.23733791 261.47828761 -0.24762503 262.57186097 -0.25822389 C278.80249746 -0.10973947 292.45239177 7.44715877 303.83503723 18.54476929 C316.38186432 31.38638233 320.81547734 45.37193605 320.75398254 62.98812866 C320.7592395 64.85573097 320.7592395 64.85573097 320.76460266 66.76106262 C320.77186055 70.15160855 320.77021046 73.54190806 320.76384449 76.9324398 C320.75874946 80.49564295 320.76348562 84.0588362 320.76661682 87.62203979 C320.77024631 93.6036262 320.76548414 99.58516307 320.75593567 105.56674194 C320.74505307 112.46333108 320.74857937 119.35980192 320.75958848 126.25638819 C320.76869042 132.19807265 320.76993246 138.13972169 320.76471114 144.08141088 C320.76160738 147.62118307 320.76113795 151.16089981 320.76778412 154.70066833 C320.77468146 158.6493991 320.76509748 162.59799941 320.75398254 166.54672241 C320.75803101 167.70647079 320.76207947 168.86621918 320.76625061 170.06111145 C320.71775911 179.38849552 319.53616403 187.34365787 315.05769348 195.57992554 C314.7120636 196.21801147 314.36643372 196.85609741 314.0103302 197.51351929 C305.78518857 212.0076697 292.06549419 223.43575548 276.05692387 228.31547642 C270.68836143 229.62051735 265.38932469 229.5540198 259.89031982 229.5415802 C258.73842259 229.54681688 257.58652537 229.55205356 256.39972216 229.55744892 C252.54861669 229.57242336 248.6976444 229.57315353 244.84651184 229.57382202 C242.0815213 229.58036752 239.31654218 229.58982477 236.55155945 229.5990448 C229.04506759 229.621844 221.53860411 229.62981011 214.03208232 229.63487124 C209.33896577 229.63813456 204.64585737 229.64466091 199.95274544 229.65187263 C186.94165659 229.67143291 173.93057529 229.68784015 160.91947079 229.69074917 C159.67180141 229.69103052 159.67180141 229.69103052 158.39892659 229.69131756 C156.71292913 229.6916838 155.02693167 229.6920475 153.34093421 229.69240867 C152.50407854 229.69259148 151.66722287 229.6927743 150.80500793 229.69296265 C149.54817997 229.69323347 149.54817997 229.69323347 148.26596154 229.69350976 C134.70005995 229.69704873 121.13431737 229.72405626 107.56847089 229.76146054 C93.61813362 229.79961495 79.6678751 229.81890717 65.71748453 229.81920868 C57.89393292 229.81979169 50.07057096 229.82818214 42.24706841 229.85720634 C35.5831563 229.88181607 28.919503 229.888939 22.25555765 229.87395882 C18.86101764 229.8668282 15.46740003 229.87024289 12.07285118 229.89036942 C-9.97306115 230.01305722 -26.51282835 227.88382606 -43.19230652 212.14242554 C-55.64181336 199.12379839 -61.157249 184.98680559 -61.0065155 167.03256226 C-61.01191849 165.78036896 -61.01732147 164.52817566 -61.02288818 163.23803711 C-61.03315926 159.84525272 -61.02578543 156.45346445 -61.00917697 153.06076956 C-60.99518083 149.48651462 -61.0018027 145.91228526 -61.00531006 142.3380127 C-61.00800011 136.34158145 -60.99463874 130.34535176 -60.97135925 124.34896851 C-60.94473271 117.44318672 -60.94301462 110.53774104 -60.95474762 103.63192546 C-60.9655716 96.95075223 -60.95930383 90.26969906 -60.94519234 83.58853531 C-60.93947486 80.76185346 -60.93948137 77.93526072 -60.94425774 75.10857773 C-60.94996945 71.15342499 -60.93059794 67.198601 -60.90885925 63.24349976 C-60.91561172 61.51006317 -60.91561172 61.51006317 -60.92250061 59.74160767 C-60.8322622 49.80932714 -58.92944011 41.0771274 -54.06730652 32.39242554 C-53.49109558 31.34312866 -52.91488464 30.29383179 -52.32121277 29.21273804 C-50.55525715 26.3492315 -48.75358056 23.7701679 -46.50480652 21.26742554 C-45.84480652 21.26742554 -45.18480652 21.26742554 -44.50480652 21.26742554 C-44.23925964 20.67445679 -43.97371277 20.08148804 -43.70011902 19.47055054 C-40.0542436 12.75070173 -33.03442093 9.26235107 -26.44230652 5.95492554 C-25.76989929 5.61751343 -25.09749207 5.28010132 -24.40470886 4.9324646 C-16.10756197 0.92079103 -9.16715862 -0.02647169 0 0 Z M-15.50480652 31.26742554 C-15.50480652 31.92742554 -15.50480652 32.58742554 -15.50480652 33.26742554 C-16.18543152 33.43242554 -16.86605652 33.59742554 -17.56730652 33.76742554 C-21.85589855 35.95734487 -24.69989707 39.38743553 -27.50480652 43.26742554 C-27.50480652 43.92742554 -27.50480652 44.58742554 -27.50480652 45.26742554 C-28.16480652 45.26742554 -28.82480652 45.26742554 -29.50480652 45.26742554 C-32.64011189 53.35532313 -34.08677348 60.32920666 -33.99064636 68.98348999 C-33.99444305 70.0859053 -33.99823975 71.18832062 -34.00215149 72.32414246 C-34.00949249 75.92663065 -33.98827116 79.52829173 -33.96574402 83.13070679 C-33.96335645 85.65269374 -33.96245493 88.1746825 -33.96296692 90.69667053 C-33.95985036 95.9626199 -33.94386294 101.22836071 -33.91642761 106.49423218 C-33.8849051 112.56672053 -33.8744348 118.63895527 -33.87589872 124.71151954 C-33.87712225 130.58164867 -33.86666943 136.45169343 -33.85031509 142.32179832 C-33.84396237 144.80844823 -33.84001178 147.2951055 -33.83852768 149.78176308 C-33.8341835 153.25408117 -33.81666043 156.72608369 -33.79533386 160.19833374 C-33.79624023 161.22029846 -33.79714661 162.24226318 -33.79808044 163.29519653 C-33.69863942 174.38756704 -30.25590855 184.07340339 -22.50480652 192.26742554 C-15.1201926 198.59940809 -7.6482383 202.39126559 2.24789333 202.39326668 C3.18073161 202.39587443 4.11356988 202.39848217 5.07467598 202.40116894 C6.0910113 202.39893822 7.10734662 202.3967075 8.15447998 202.39440918 C9.24074364 202.39596917 10.32700729 202.39752916 11.44618803 202.39913642 C15.09266386 202.40313081 18.73909819 202.39996277 22.38557434 202.39682007 C24.99723332 202.39817481 27.60889211 202.39995515 30.22055054 202.40213013 C36.58199066 202.40657776 42.94341899 202.40561577 49.30485957 202.40271749 C54.47536149 202.40045931 59.64586011 202.40015273 64.81636238 202.4012413 C65.55219868 202.40139454 66.28803499 202.40154777 67.04616936 202.40170565 C68.5410093 202.40202537 70.03584925 202.40234958 71.53068919 202.40267824 C85.54964237 202.40553013 99.56858901 202.40225065 113.58754111 202.39687787 C125.61494869 202.39241103 137.64234662 202.39318534 149.66975403 202.39779663 C163.63692034 202.40314911 177.60408092 202.40525449 191.57124811 202.40218437 C193.06090168 202.40186582 194.55055525 202.40155145 196.04020882 202.4012413 C196.77314294 202.40108703 197.50607706 202.40093275 198.2612213 202.4007738 C203.42465692 202.3999106 208.58808891 202.40136731 213.75152397 202.40372086 C220.7027662 202.40681964 227.6539899 202.40461074 234.60523033 202.3988266 C237.15861735 202.39750277 239.71200589 202.39788674 242.2653923 202.40008926 C245.74659015 202.40281555 249.22772925 202.39940138 252.70892334 202.39440918 C253.72302794 202.3966399 254.73713254 202.39887062 255.78196758 202.40116894 C260.46815241 202.38810524 264.88656978 202.24243583 269.49519348 201.26742554 C269.49519348 200.60742554 269.49519348 199.94742554 269.49519348 199.26742554 C271.47519348 198.93742554 273.45519348 198.60742554 275.49519348 198.26742554 C275.49519348 197.60742554 275.49519348 196.94742554 275.49519348 196.26742554 C276.05206848 196.01992554 276.60894348 195.77242554 277.18269348 195.51742554 C281.44233272 193.21491784 284.89313049 190.37594605 287.49519348 186.26742554 C287.49519348 185.60742554 287.49519348 184.94742554 287.49519348 184.26742554 C288.15519348 184.26742554 288.81519348 184.26742554 289.49519348 184.26742554 C290.20675598 182.72055054 290.20675598 182.72055054 290.93269348 181.14242554 C291.19952942 180.56234741 291.46636536 179.98226929 291.74128723 179.38461304 C293.92553217 173.25061948 293.65517912 166.84050551 293.67219543 160.41952515 C293.67876663 159.33737732 293.68533783 158.25522949 293.69210815 157.14028931 C293.711782 153.56678185 293.72349171 149.99331633 293.73347473 146.41976929 C293.73755026 145.19481813 293.74162579 143.96986698 293.74582481 142.7077961 C293.76666209 136.22189632 293.78097299 129.73601753 293.7903595 123.25009155 C293.8004009 116.5746893 293.83579806 109.8996683 293.8755312 103.22437191 C293.90176472 98.07083038 293.91005742 92.91736775 293.91364098 87.76376534 C293.91849082 85.30437527 293.93005865 82.84498835 293.94867897 80.38566399 C294.28982323 62.41193473 294.28982323 62.41193473 289.49519348 45.26742554 C288.83519348 45.26742554 288.17519348 45.26742554 287.49519348 45.26742554 C287.16519348 43.94742554 286.83519348 42.62742554 286.49519348 41.26742554 C285.83519348 41.26742554 285.17519348 41.26742554 284.49519348 41.26742554 C284.25800598 40.6809021 284.02081848 40.09437866 283.77644348 39.49008179 C282.2107219 36.77393672 280.55043179 35.5121906 277.99519348 33.70492554 C276.80409973 32.83674194 276.80409973 32.83674194 275.58894348 31.95101929 C267.79163574 27.70778742 260.07296813 26.82677273 251.31970215 26.87974548 C249.69743225 26.87166718 249.69743225 26.87166718 248.04238921 26.86342567 C244.44149707 26.84919123 240.84097489 26.85623888 237.24006653 26.8633728 C234.64887701 26.85766685 232.05769001 26.85070172 229.46650696 26.84257507 C223.17222765 26.82542938 216.87804835 26.82453834 210.58375176 26.82978798 C205.46395425 26.83383932 200.34418615 26.83237471 195.22439003 26.82703972 C194.4940276 26.8262913 193.76366517 26.82554287 193.01117054 26.82477177 C191.52713538 26.8232402 190.04310023 26.82170185 188.55906508 26.82015681 C174.65956116 26.80644672 160.76011362 26.81185863 146.860611 26.82334202 C134.16648176 26.83326979 121.47249837 26.82033899 108.77839162 26.79640783 C95.72070383 26.77197815 82.66308386 26.76241863 69.60537368 26.76906055 C62.28385636 26.77254459 54.96245111 26.77037501 47.64095116 26.75280952 C40.75355159 26.73648951 33.86643409 26.74132925 26.97904205 26.76011467 C24.45761733 26.76379247 21.9361719 26.76071584 19.41476631 26.75022888 C1.54414716 26.48553341 1.54414716 26.48553341 -15.50480652 31.26742554 Z " fill="#E1B614" transform="translate(60.50480651855469,-0.267425537109375)"/>
<path d="M0 0 C1.28293945 -0.0309375 1.28293945 -0.0309375 2.59179688 -0.0625 C8.49187325 -0.09906128 11.88016521 0.61220994 16.29060364 4.75628662 C18.47533573 8.65642968 18.12672945 12.4850084 18.11987305 16.88378906 C18.13516052 18.34770081 18.13516052 18.34770081 18.15075684 19.84118652 C18.1809439 23.06605731 18.19016165 26.29063134 18.19921875 29.515625 C18.21606117 31.75194287 18.23421081 33.98825124 18.25361633 36.22454834 C18.30116972 42.10995518 18.33094468 47.99532354 18.35705566 53.88085938 C18.38683415 59.88679607 18.43337381 65.8926001 18.47851562 71.8984375 C18.56460957 83.68222235 18.63192786 95.46603446 18.6875 107.25 C24.6275 107.25 30.5675 107.25 36.6875 107.25 C42.81754067 95.03263672 48.8715513 82.78003418 54.875 70.5 C55.33393646 69.56200562 55.79287292 68.62401123 56.26571655 67.65759277 C61.96858863 55.99393912 67.58282353 44.29903306 73 32.5 C79.6999059 17.95630184 79.6999059 17.95630184 83.1875 11.1875 C84.03828125 9.53041016 84.03828125 9.53041016 84.90625 7.83984375 C86.93907976 4.88421627 88.39292908 3.65019264 91.6875 2.25 C97.45722804 1.29787281 101.48872027 3.84321577 106.375 6.5625 C107.13361328 6.96662109 107.89222656 7.37074219 108.67382812 7.78710938 C114.40443869 10.89772323 117.44906392 13.27307035 120.19140625 19.33203125 C120.91686646 20.91733643 120.91686646 20.91733643 121.65698242 22.53466797 C122.18267822 23.69885254 122.70837402 24.86303711 123.25 26.0625 C124.42099113 28.62530041 125.5973741 31.18561779 126.7734375 33.74609375 C127.08526474 34.42653748 127.39709198 35.1069812 127.71836853 35.80804443 C131.53089124 44.11484815 135.45452388 52.3687579 139.375 60.625 C140.13167377 62.22033873 140.88826508 63.81571657 141.64477539 65.41113281 C144.83313291 72.13382713 148.02474568 78.85497439 151.21728516 85.57568359 C153.30801262 89.9770102 155.39736974 94.37898527 157.48599243 98.78131104 C158.66484323 101.26476949 159.84545206 103.74738697 161.02612305 106.22998047 C161.74667215 107.74832963 162.46713573 109.26671938 163.1875 110.78515625 C163.51373856 111.46986496 163.83997711 112.15457367 164.17610168 112.86003113 C169.45470357 124.00277095 169.45470357 124.00277095 168.6875 130.25 C165.12963001 135.44681203 161.54760276 137.81660126 155.8125 140.25 C155.13058594 140.57355469 154.44867188 140.89710938 153.74609375 141.23046875 C150.08571763 142.82708995 148.04474454 143.29229534 143.9921875 142.8125 C135.53183789 138.8123347 132.93364014 129.84036622 129.3125 121.75 C128.16921756 119.23261391 127.01978782 116.71804531 125.87109375 114.203125 C125.32437012 113.00236328 124.77764648 111.80160156 124.21435547 110.56445312 C121.51916926 104.71382185 118.62248257 98.98345432 115.6875 93.25 C105.4575 93.25 95.2275 93.25 84.6875 93.25 C83.43453125 95.828125 82.1815625 98.40625 80.890625 101.0625 C79.66612269 103.58126952 78.44146701 106.09996442 77.21679688 108.61865234 C76.37093359 110.35848334 75.52522779 112.09839091 74.6796875 113.83837891 C73.45875575 116.35079154 72.23724304 118.86292101 71.015625 121.375 C70.64254211 122.14303955 70.26945923 122.9110791 69.8850708 123.70239258 C69.16871787 125.17492921 68.44855968 126.64562197 67.72424316 128.11425781 C67.02925443 129.54596897 66.35608738 130.98846616 65.70446777 132.44042969 C65.38272583 133.13813477 65.06098389 133.83583984 64.72949219 134.5546875 C64.45530457 135.17069824 64.18111694 135.78670898 63.89862061 136.42138672 C62.15450783 139.05473947 60.34060469 140.53377749 57.6875 142.25 C54.58302307 142.7646637 54.58302307 142.7646637 51.06469727 142.78344727 C50.42011566 142.79206284 49.77553406 142.80067841 49.11141968 142.80955505 C46.99183384 142.83216002 44.87357621 142.82548718 42.75390625 142.81640625 C41.27326568 142.82164466 39.79262846 142.82792194 38.31199646 142.83518982 C35.21263905 142.84558406 32.11374104 142.84104761 29.0144043 142.82641602 C25.05185622 142.80923616 21.0907593 142.83271635 17.12837315 142.86790562 C14.07157368 142.88991837 11.01511933 142.88842886 7.9582653 142.8801403 C6.49788764 142.87932275 5.03748414 142.88614875 3.57718086 142.90091133 C-9.25041495 143.01070907 -9.25041495 143.01070907 -13.19165039 139.83569336 C-16.09458146 136.29650342 -16.43962365 134.67997103 -16.46640015 130.19049072 C-16.47930084 128.58385559 -16.47930084 128.58385559 -16.49246216 126.94476318 C-16.49672211 125.76448547 -16.50098206 124.58420776 -16.50537109 123.36816406 C-16.51354858 122.12905273 -16.52172607 120.88994141 -16.53015137 119.61328125 C-16.55504005 115.49739914 -16.57168068 111.38155383 -16.5859375 107.265625 C-16.5912973 105.84860986 -16.59667481 104.43159478 -16.60206985 103.01457977 C-16.62370034 97.1194713 -16.64243637 91.22436557 -16.65369225 85.32922745 C-16.66992669 76.88219756 -16.70308953 68.43562802 -16.76009309 59.98877168 C-16.79880984 54.04898392 -16.81832703 48.10931918 -16.82361281 42.16940856 C-16.82726438 38.62217247 -16.83926335 35.07542734 -16.87171555 31.52832794 C-16.90742334 27.56855306 -16.90342082 23.60935441 -16.89599609 19.64941406 C-16.91240143 18.47723328 -16.92880676 17.30505249 -16.94570923 16.09735107 C-16.87759339 7.23437482 -16.87759339 7.23437482 -13.90103149 3.53753662 C-9.37314504 -0.46384644 -5.81357245 0.03457887 0 0 Z M99.6875 59.25 C96.7175 65.85 93.7475 72.45 90.6875 79.25 C96.9575 79.25 103.2275 79.25 109.6875 79.25 C108.05175572 74.26162219 108.05175572 74.26162219 105.9609375 69.6015625 C105.6515625 68.98925781 105.3421875 68.37695312 105.0234375 67.74609375 C104.70632812 67.12863281 104.38921875 66.51117188 104.0625 65.875 C103.73765625 65.23433594 103.4128125 64.59367187 103.078125 63.93359375 C102.28492593 62.37052499 101.48672969 60.80999378 100.6875 59.25 C100.3575 59.25 100.0275 59.25 99.6875 59.25 Z " fill="#E1B614" transform="translate(69.3125,41.75)"/>
<path d="M0 0 C13.59948163 4.73087175 26.63759095 10.39194361 33.578125 23.609375 C35.32433572 28.84800715 35.32741819 33.58562325 33.078125 38.609375 C25.34757296 52.21089612 9.99214489 58.52942896 -4.421875 62.609375 C-3.32230469 63.021875 -2.22273438 63.434375 -1.08984375 63.859375 C8.07721895 67.39907018 16.02721473 71.16097455 23.578125 77.609375 C24.26519531 78.18558594 24.95226562 78.76179688 25.66015625 79.35546875 C31.43824229 84.62265034 34.67202737 90.67936741 35.140625 98.546875 C34.8135187 106.32473582 30.63311447 112.91020988 25.578125 118.609375 C6.67974395 133.7488188 -17.1485521 140.27869054 -41.1796875 140.00390625 C-45.82360137 139.43880348 -47.51477504 138.20049847 -50.421875 134.609375 C-51.69306532 132.06699436 -51.55632386 130.28318569 -51.56904602 127.43597412 C-51.57977898 125.7914753 -51.57977898 125.7914753 -51.59072876 124.11375427 C-51.59341766 122.90542435 -51.59610657 121.69709442 -51.59887695 120.45214844 C-51.60544815 119.1837764 -51.61201935 117.91540436 -51.61878967 116.6085968 C-51.63983935 112.39532743 -51.65019385 108.18205765 -51.66015625 103.96875 C-51.66420367 102.51830272 -51.66832058 101.06785564 -51.67250633 99.61740875 C-51.69156112 92.80224798 -51.70579074 85.98709806 -51.7141183 79.17191577 C-51.723888 71.30635831 -51.75019905 63.44108247 -51.79061919 55.57562423 C-51.82079049 49.49570787 -51.83558818 43.41587219 -51.83889931 37.33588243 C-51.84124897 33.70489149 -51.85019762 30.0742013 -51.87536049 26.44329071 C-51.90299552 22.39007381 -51.89880704 18.33748483 -51.8918457 14.28417969 C-51.90465576 13.08394669 -51.91746582 11.88371368 -51.93066406 10.64710999 C-51.89133484 4.37368569 -51.76838493 0.31822332 -47.421875 -4.390625 C-35.00446231 -10.59933134 -12.47234944 -4.0678013 0 0 Z " fill="#E1B614" transform="translate(295.421875,44.390625)"/>
<path d="M0 0 C1.07501727 -0.00170885 2.15003453 -0.0034177 3.25762808 -0.00517833 C6.85977763 -0.00847255 10.4617409 0.00252954 14.06387329 0.01345825 C16.64600622 0.01402238 19.22813947 0.01370578 21.81027222 0.01257324 C27.36941837 0.01152549 32.9285175 0.01779064 38.48765182 0.02904892 C46.52518006 0.0453158 54.5626856 0.05051314 62.6002285 0.0530249 C75.64118288 0.05740014 88.6821122 0.0707046 101.72305298 0.08963013 C114.38971837 0.10799336 127.05637696 0.12214769 139.72305298 0.13064575 C140.50406948 0.1311712 141.28508598 0.13169665 142.08976965 0.13223802 C146.00797247 0.13484813 149.92617533 0.13737553 153.84437823 0.13986182 C186.34025029 0.16058899 218.83609164 0.19580986 251.3319397 0.24050903 C251.6619397 1.23050903 251.9919397 2.22050903 252.3319397 3.24050903 C251.77712091 3.24148584 251.22230212 3.24246265 250.65067065 3.24346906 C217.7492188 3.30177293 184.84784253 3.37559378 151.94647364 3.46949532 C147.99374519 3.48076314 144.04101639 3.49190165 140.08828735 3.50296021 C138.90793856 3.50626573 138.90793856 3.50626573 137.70374434 3.50963803 C124.97145313 3.54498616 112.23916199 3.56986431 99.50683995 3.59085605 C86.43702903 3.61263791 73.36728166 3.64571096 60.29752481 3.68921059 C52.23630659 3.71568626 44.17516751 3.73341169 36.11390798 3.73985507 C29.92686958 3.7457451 23.73997591 3.76736384 17.55299759 3.79478455 C15.0190455 3.80356879 12.48506991 3.80728656 9.95110321 3.8055172 C6.48617691 3.80386188 3.02179704 3.82058686 -0.4430542 3.84178162 C-1.44113613 3.83693404 -2.43921807 3.83208646 -3.46754491 3.82709199 C-9.24635982 3.88525701 -14.11399783 4.70077278 -19.58222067 6.59827679 C-21.6680603 7.24050903 -21.6680603 7.24050903 -24.6680603 7.24050903 C-24.6680603 7.90050903 -24.6680603 8.56050903 -24.6680603 9.24050903 C-26.10816119 10.17824914 -27.5502059 11.11320033 -29.0039978 12.02957153 C-32.27382981 14.40902675 -34.86107518 17.62653878 -36.6680603 21.24050903 C-37.3280603 21.24050903 -37.9880603 21.24050903 -38.6680603 21.24050903 C-38.8536853 22.53988403 -38.8536853 22.53988403 -39.0430603 23.86550903 C-39.6680603 27.24050903 -39.6680603 27.24050903 -40.69293213 29.72613525 C-42.09478018 34.77841264 -41.92950316 39.62649127 -41.89511108 44.8454895 C-41.89540314 46.00704056 -41.89569519 47.16859161 -41.89599609 48.36534119 C-41.89460522 52.19620287 -41.87905511 56.02686892 -41.8633728 59.85769653 C-41.85964181 62.51713388 -41.85669683 65.17656047 -41.85479736 67.83599854 C-41.84859102 74.1150833 -41.8321917 80.39409808 -41.81209838 86.67315209 C-41.78971301 93.82429403 -41.77873933 100.97543938 -41.76870751 108.12660766 C-41.74782468 122.83127717 -41.7126652 137.53589188 -41.6680603 152.24050903 C-44.3828367 148.16834444 -44.79354232 145.18589079 -44.78831482 140.35568237 C-44.78968948 139.37414185 -44.79106415 138.39260132 -44.79248047 137.38131714 C-44.78888519 136.31101257 -44.78528992 135.24070801 -44.78158569 134.13796997 C-44.78173172 133.00597168 -44.78187775 131.87397339 -44.7820282 130.70767212 C-44.78133114 126.96338998 -44.77354834 123.21915749 -44.76571655 119.47488403 C-44.76385164 116.87985257 -44.76242808 114.28482076 -44.76142883 111.68978882 C-44.75799988 105.55586708 -44.75011714 99.42196585 -44.74007934 93.28805184 C-44.72889837 86.30381392 -44.72340275 79.31957514 -44.71838391 72.33533049 C-44.70793399 57.97038042 -44.69034692 43.60544536 -44.6680603 29.24050903 C-44.0080603 29.24050903 -43.3480603 29.24050903 -42.6680603 29.24050903 C-42.63067749 28.62562622 -42.59329468 28.01074341 -42.55477905 27.37722778 C-42.45616577 26.1648645 -42.45616577 26.1648645 -42.3555603 24.92800903 C-42.29755249 24.12750122 -42.23954468 23.32699341 -42.17977905 22.50222778 C-41.57592508 19.8332854 -40.64550061 19.05528073 -38.6680603 17.24050903 C-38.3380603 16.25050903 -38.0080603 15.26050903 -37.6680603 14.24050903 C-35.6055603 13.55300903 -35.6055603 13.55300903 -33.6680603 13.24050903 C-33.6680603 12.25050903 -33.6680603 11.26050903 -33.6680603 10.24050903 C-31.71496142 8.83937288 -29.71097213 7.50711436 -27.6680603 6.24050903 C-27.0080603 5.58050903 -26.3480603 4.92050903 -25.6680603 4.24050903 C-23.7149353 3.67800903 -23.7149353 3.67800903 -21.4180603 3.24050903 C-18.85299949 2.74518694 -16.60406767 2.21427639 -14.17954063 1.2203846 C-9.40520039 -0.11189094 -4.93366671 -0.028686 0 0 Z " fill="#E3C855" transform="translate(69.66806030273438,23.759490966796875)"/>
<path d="M0 0 C2.26908836 2.11169495 3.82344312 4.19882471 5.375 6.875 C10.1144461 14.62271728 16.51972145 19.81989554 25 23 C28.3432619 23.79516721 31.43105452 24.12462872 34.86316395 24.12304783 C35.82060279 24.12503888 36.77804163 24.12702993 37.76449376 24.12908131 C39.33015436 24.12471205 39.33015436 24.12471205 40.92744446 24.12025452 C42.59994201 24.12153615 42.59994201 24.12153615 44.30622739 24.12284368 C48.04962682 24.12449334 51.79298163 24.11898546 55.53637695 24.11352539 C58.21688437 24.11324338 60.89738904 24.11335747 63.57789612 24.1139679 C69.35258256 24.11449214 75.1272577 24.11135574 80.9019413 24.10573006 C89.2511544 24.09760157 97.60036204 24.09499845 105.94957867 24.09374207 C119.49576713 24.09155367 133.04194957 24.08489933 146.58813477 24.07543945 C159.7466631 24.06625985 172.90518981 24.05918169 186.0637207 24.05493164 C187.28044447 24.05453756 187.28044447 24.05453756 188.52174852 24.05413551 C192.59106272 24.05283047 196.66037693 24.05156676 200.72969115 24.05032361 C234.48646513 24.03995761 268.24323183 24.02234505 302 24 C302 23.34 302 22.68 302 22 C303.19625 21.443125 304.3925 20.88625 305.625 20.3125 C310.87254002 17.67018745 315.03207672 14.71550512 318.25 9.6875 C318.8275 8.800625 319.405 7.91375 320 7 C320.66 7 321.32 7 322 7 C322.12375 6.030625 322.2475 5.06125 322.375 4.0625 C322.684375 2.5465625 322.684375 2.5465625 323 1 C323.66 0.67 324.32 0.34 325 0 C324.38808433 3.73873752 323.33584188 6.84104527 321.6875 10.25 C321.07455078 11.55710938 321.07455078 11.55710938 320.44921875 12.890625 C319 15 319 15 316.83203125 15.796875 C316.22746094 15.86390625 315.62289063 15.9309375 315 16 C315 16.99 315 17.98 315 19 C314.01 19.33 313.02 19.66 312 20 C311.29423828 20.70769531 311.29423828 20.70769531 310.57421875 21.4296875 C308.77015071 23.22927894 307.13176297 24.08235789 304.8125 25.125 C304.09707031 25.45757812 303.38164062 25.79015625 302.64453125 26.1328125 C295.78003629 28.38379903 288.48681178 28.14340609 281.34181213 28.12698364 C280.29185387 28.12854363 279.24189561 28.13010362 278.16012043 28.13171089 C274.65433995 28.13568821 271.14860304 28.13254389 267.64282227 28.12939453 C265.12425715 28.13075003 262.60569223 28.1325308 260.08712769 28.13470459 C253.96371995 28.13878852 247.84032826 28.13819422 241.71692032 28.13529195 C236.73816353 28.13303025 231.75941016 28.13272872 226.780653 28.13381577 C225.71627488 28.13404561 225.71627488 28.13404561 224.63039417 28.13428011 C223.18870902 28.13459985 221.74702388 28.13492406 220.30533873 28.1352527 C206.79703371 28.13810198 193.28873547 28.13482923 179.78043156 28.12945233 C168.20086699 28.12498576 156.62131244 28.12576009 145.04174805 28.13037109 C131.58213144 28.13572826 118.12252078 28.13782632 104.66290325 28.13475883 C103.22632309 28.13444029 101.78974293 28.13412592 100.35316277 28.13381577 C99.29303772 28.13358435 99.29303772 28.13358435 98.21149601 28.13334826 C93.24179608 28.13248647 88.27209994 28.13393874 83.30240059 28.13629532 C76.60719052 28.13940043 69.91200226 28.13717477 63.21679306 28.13140106 C60.76141707 28.13008029 58.30603949 28.130456 55.85066414 28.13266373 C52.49547854 28.13540205 49.14035328 28.13196126 45.78517151 28.12698364 C44.81687033 28.12921436 43.84856915 28.13144509 42.85092551 28.13374341 C27.70990138 28.09026932 27.70990138 28.09026932 20.6875 25.125 C19.88699219 24.79757813 19.08648437 24.47015625 18.26171875 24.1328125 C15.91834614 22.95910256 13.97363434 21.72523643 12 20 C12 19.34 12 18.68 12 18 C11.34 18 10.68 18 10 18 C10 17.34 10 16.68 10 16 C9.01 16 8.02 16 7 16 C7 15.34 7 14.68 7 14 C6.34 14 5.68 14 5 14 C4.67 12.68 4.34 11.36 4 10 C3.34 10 2.68 10 2 10 C0.39644899 6.49223216 -0.22036864 3.85645121 0 0 Z " fill="#E8C438" transform="translate(28,177)"/>
<path d="M0 0 C7.46297281 -0.47635997 15.0083776 1.33984924 21 6 C22.35919864 7.70917195 23.59455477 9.45341266 24.7890625 11.28125 C25.96503713 13.06163956 25.96503713 13.06163956 27.609375 14.5703125 C29.54696087 16.56232494 29.61170043 18.28190299 30 21 C30.185625 21.928125 30.37125 22.85625 30.5625 23.8125 C30.706875 24.534375 30.85125 25.25625 31 26 C31.66 26 32.32 26 33 26 C33.91991774 32.24099041 34.14269634 38.30034402 34.12939453 44.60351562 C34.13114685 45.63546555 34.13289917 46.66741547 34.13470459 47.7306366 C34.13908539 51.12252513 34.13619841 54.51436099 34.1328125 57.90625 C34.13348662 60.27461761 34.13445755 62.64298516 34.13571167 65.01135254 C34.13718353 69.96737326 34.1350505 74.92337592 34.13037109 79.87939453 C34.12467413 86.22102547 34.12795587 92.56261408 34.13394356 98.90424347 C34.13756295 103.79250404 34.13640424 108.68075463 34.13381577 113.5690155 C34.13315032 115.90691635 34.13396154 118.24481812 34.13629532 120.5827179 C34.13884446 123.85399768 34.13494937 127.12520962 34.12939453 130.39648438 C34.13141876 131.35568283 34.13344299 132.31488129 34.13552856 133.30314636 C34.11884259 138.62731415 33.77660668 143.73127363 33 149 C32.01 149 31.02 149 30 149 C30.00414807 148.10161628 30.00414807 148.10161628 30.00837994 147.18508339 C30.07478078 132.57750887 30.12434897 117.9699433 30.15543652 103.36225319 C30.1708718 96.29792467 30.19189698 89.23369722 30.22631836 82.16943359 C30.25953877 75.34836244 30.27686815 68.52739622 30.28463173 61.70624924 C30.29016243 59.10762254 30.3009625 56.50900138 30.31719017 53.91041946 C30.33905834 50.26258321 30.34196292 46.61517672 30.34057617 42.96728516 C30.351362 41.89985077 30.36214783 40.83241638 30.3732605 39.7326355 C30.34874069 33.74764692 29.62879018 28.71954187 27.64427662 23.05974388 C27 21 27 21 27 18 C26.34 18 25.68 18 25 18 C24.67 16.68 24.34 15.36 24 14 C23.34 14 22.68 14 22 14 C21.46375 13.278125 20.9275 12.55625 20.375 11.8125 C14.95209197 5.39063523 7.96953451 3.00871464 0 1 C0 0.67 0 0.34 0 0 Z " fill="#E8C647" transform="translate(323,27)"/>
<path d="M0 0 C2.26908836 2.11169495 3.82344312 4.19882471 5.375 6.875 C10.1144461 14.62271728 16.51972145 19.81989554 25 23 C28.32201528 23.78883846 31.39067281 24.12464204 34.80069447 24.12304783 C35.74419972 24.12503888 36.68770498 24.12702993 37.6598013 24.12908131 C38.68801124 24.12616847 39.71622118 24.12325563 40.77558899 24.12025452 C41.87425315 24.12110894 42.9729173 24.12196337 44.10487431 24.12284368 C47.79299585 24.12449319 51.48107209 24.11898572 55.16918945 24.11352539 C57.81028852 24.11324338 60.4513848 24.11335748 63.09248352 24.1139679 C68.78204634 24.11449211 74.47159768 24.11135595 80.16115761 24.10573006 C88.38729436 24.09760127 96.61342556 24.09499842 104.8395659 24.09374207 C118.1860972 24.09155372 131.5326224 24.08489951 144.87915039 24.07543945 C157.84366831 24.06625973 170.80818457 24.05918163 183.77270508 24.05493164 C184.97150687 24.05453756 184.97150687 24.05453756 186.19452689 24.05413551 C190.2039048 24.05283047 194.21328273 24.05156676 198.22266066 24.05032361 C231.48177822 24.03995775 264.74088829 24.02234533 298 24 C298 24.66 298 25.32 298 26 C263.23020609 26.06867659 228.46042767 26.1215341 193.69058058 26.15319599 C189.58506142 26.15694808 185.4795424 26.16083105 181.37402344 26.16479492 C180.14802849 26.16597532 180.14802849 26.16597532 178.89726597 26.16717956 C165.66567006 26.18023111 152.43411328 26.20388357 139.20254058 26.23145839 C125.62427538 26.25951958 112.04603067 26.27617777 98.46773767 26.28226548 C90.09017055 26.28638045 81.71271402 26.29937415 73.33518094 26.3237494 C67.5892711 26.33961539 61.84341838 26.3443984 56.09748822 26.34050413 C52.78307466 26.33858391 49.46889482 26.34315728 46.15450668 26.35761642 C42.5575622 26.37253942 38.96109116 26.36895379 35.36413574 26.36076355 C34.32131864 26.36950207 33.27850154 26.3782406 32.20408392 26.38724393 C24.77944128 26.3415417 17.62834155 25.39382732 12 20 C12 19.34 12 18.68 12 18 C11.34 18 10.68 18 10 18 C10 17.34 10 16.68 10 16 C9.01 16 8.02 16 7 16 C7 15.34 7 14.68 7 14 C6.34 14 5.68 14 5 14 C4.67 12.68 4.34 11.36 4 10 C3.34 10 2.68 10 2 10 C0.39644899 6.49223216 -0.22036864 3.85645121 0 0 Z " fill="#DFC05F" transform="translate(28,177)"/>
<path d="M0 0 C2 2 2 2 2.1953125 4.1640625 C2.16050781 5.38222656 2.16050781 5.38222656 2.125 6.625 C2.10695312 7.44226563 2.08890625 8.25953125 2.0703125 9.1015625 C2.04710937 9.72804687 2.02390625 10.35453125 2 11 C2.66 11.33 3.32 11.66 4 12 C4.71228144 13.98421259 5.36515933 15.98967123 6 18 C6.68062608 19.64868789 7.36866101 21.29432896 8.0625 22.9375 C9.72479101 27.02216305 10.6188685 30.61698773 11 35 C11.66 35 12.32 35 13 35 C17 39.47058824 17 39.47058824 17 42 C17.556875 42.2475 18.11375 42.495 18.6875 42.75 C22.55361991 44.83979455 25.70302039 47.74014284 29 50.625 C31.68859649 52.75347222 33.7706579 53.95521285 37 55 C37 55.66 37 56.32 37 57 C37.85464844 57.13277344 38.70929687 57.26554687 39.58984375 57.40234375 C40.69457031 57.57894531 41.79929688 57.75554687 42.9375 57.9375 C44.03964844 58.11152344 45.14179687 58.28554687 46.27734375 58.46484375 C49 59 49 59 50 60 C52.01594582 60.23427778 54.038474 60.41336124 56.0625 60.5625 C57.16722656 60.64628906 58.27195313 60.73007813 59.41015625 60.81640625 C60.26480469 60.87699219 61.11945312 60.93757813 62 61 C62 61.66 62 62.32 62 63 C45.93633843 64.21899624 32.2919193 58.97545756 20.16015625 48.5625 C9.23339526 38.25027564 0.68084612 25.41551995 -0.234375 10.0703125 C-0.24793078 6.70170221 -0.18152211 3.36320137 0 0 Z " fill="#E3C64B" transform="translate(0,166)"/>
<path d="M0 0 C15.48085935 -0.89888861 29.00350976 3.69177904 40.73583984 13.94091797 C51.1089825 23.37601242 60.61416771 35.54114977 62 50 C62.13776599 54.33962876 62.12073408 58.66028064 62 63 C61.34 63 60.68 63 60 63 C59.95101562 62.11957031 59.90203125 61.23914062 59.8515625 60.33203125 C59.77679688 59.17058594 59.70203125 58.00914063 59.625 56.8125 C59.55539062 55.66394531 59.48578125 54.51539063 59.4140625 53.33203125 C59.01969137 50.15845979 58.24864831 47.91351272 57 45 C56.58340865 43.2384872 56.20714882 41.46686867 55.875 39.6875 C55.62363281 38.36298828 55.62363281 38.36298828 55.3671875 37.01171875 C55.18542969 36.01591797 55.18542969 36.01591797 55 35 C54.34 35 53.68 35 53 35 C52.76925781 34.40832031 52.53851563 33.81664062 52.30078125 33.20703125 C50.19606304 28.10745709 48.12102191 24.786885 44 21 C43.505 19.515 43.505 19.515 43 18 C42.195625 17.690625 41.39125 17.38125 40.5625 17.0625 C38 16 38 16 37 13.9375 C36.505 12.9784375 36.505 12.9784375 36 12 C33.56740432 11.24680201 33.56740432 11.24680201 31 11 C30.01 10.67 29.02 10.34 28 10 C28 9.34 28 8.68 28 8 C27.1646875 7.8453125 27.1646875 7.8453125 26.3125 7.6875 C24 7 24 7 21.5625 5.5 C16.92774268 2.78697133 11.96973312 2.78306665 6.6875 2.4375 C5.43324219 2.35371094 4.17898438 2.26992188 2.88671875 2.18359375 C1.45779297 2.09271484 1.45779297 2.09271484 0 2 C0 1.34 0 0.68 0 0 Z " fill="#E3CA64" transform="translate(319,0)"/>
<path d="M0 0 C0.33 0 0.66 0 1 0 C1.4869567 15.33913594 -4.06244963 28.17321917 -14.375 39.5 C-23.9466919 49.57424705 -37.10322179 58.63551722 -51.38671875 59.11328125 C-54.59429367 59.1236842 -57.79375764 59.08797616 -61 59 C-61 58.34 -61 57.68 -61 57 C-60.19175781 56.95101562 -59.38351562 56.90203125 -58.55078125 56.8515625 C-57.48214844 56.77679688 -56.41351563 56.70203125 -55.3125 56.625 C-53.72888672 56.52058594 -53.72888672 56.52058594 -52.11328125 56.4140625 C-49.08066116 56.01072783 -46.79722432 55.18786238 -44 54 C-41.1875 53.875 -41.1875 53.875 -39 54 C-39 53.34 -39 52.68 -39 52 C-37.75108386 51.51801537 -36.50081192 51.03954323 -35.25 50.5625 C-34.55390625 50.29566406 -33.8578125 50.02882812 -33.140625 49.75390625 C-31.10940997 49.03853307 -29.0964709 48.48634348 -27 48 C-27 47.34 -27 46.68 -27 46 C-24 44 -24 44 -21 44 C-20.67 43.01 -20.34 42.02 -20 41 C-19.34 41 -18.68 41 -18 41 C-17.7525 40.21625 -17.505 39.4325 -17.25 38.625 C-15.77860006 35.53506013 -14.92681545 35.46340773 -12 34 C-10.75285597 31.59047977 -10.75285597 31.59047977 -10 29 C-9.505 27.515 -9.505 27.515 -9 26 C-8.34 26 -7.68 26 -7 26 C-6.67 24.02 -6.34 22.04 -6 20 C-5.34 20 -4.68 20 -4 20 C-4.061875 19.175 -4.12375 18.35 -4.1875 17.5 C-3.98992615 13.81195488 -3.10856513 11.33940502 -1.734375 7.96875 C-0.7611366 5.35964279 -0.34442127 2.75537018 0 0 Z " fill="#E5C752" transform="translate(380,170)"/>
<path d="M0 0 C2.26908836 2.11169495 3.82344312 4.19882471 5.375 6.875 C10.44882647 15.16933908 17.79949312 21.26057345 27.35624695 23.56919861 C30.20486628 24.0333831 32.91425804 24.16053172 35.80004883 24.20532227 C37.51125664 24.2352401 37.51125664 24.2352401 39.2570343 24.26576233 C40.47803329 24.28247482 41.69903229 24.29918732 42.95703125 24.31640625 C44.21513107 24.33718735 45.4732309 24.35796844 46.76945496 24.37937927 C50.10172286 24.43360465 53.43400239 24.48387945 56.76635742 24.53222656 C60.17176555 24.58261084 63.5770882 24.63820823 66.98242188 24.69335938 C73.65487967 24.80036699 80.32740174 24.90216524 87 25 C87 25.33 87 25.66 87 26 C78.92401914 26.06973503 70.84816562 26.12292981 62.7719574 26.15543652 C59.02120268 26.17104388 55.27065508 26.19219093 51.52001953 26.22631836 C47.89548731 26.25908923 44.2711534 26.27689003 40.64648438 26.28463173 C39.26868573 26.29014364 37.89089704 26.30090661 36.51318359 26.31719017 C18.80145956 26.51806541 18.80145956 26.51806541 12 20 C12 19.34 12 18.68 12 18 C11.34 18 10.68 18 10 18 C10 17.34 10 16.68 10 16 C9.01 16 8.02 16 7 16 C7 15.34 7 14.68 7 14 C6.34 14 5.68 14 5 14 C4.67 12.68 4.34 11.36 4 10 C3.34 10 2.68 10 2 10 C0.39644899 6.49223216 -0.22036864 3.85645121 0 0 Z " fill="#E3C45D" transform="translate(28,177)"/>
<path d="M0 0 C0.68384766 0.00902344 1.36769531 0.01804688 2.07226562 0.02734375 C3.73583287 0.05061042 5.39921631 0.08646833 7.0625 0.125 C6.4025 1.115 5.7425 2.105 5.0625 3.125 C2.28866909 3.62423048 -0.32802933 3.9628912 -3.125 4.1875 C-10.51300152 4.83467099 -16.93324863 5.40737393 -22.9375 10.125 C-23.9275 10.125 -24.9175 10.125 -25.9375 10.125 C-25.9375 10.785 -25.9375 11.445 -25.9375 12.125 C-32.6875 16.125 -32.6875 16.125 -34.9375 16.125 C-34.9375 16.785 -34.9375 17.445 -34.9375 18.125 C-36.9175 19.115 -38.8975 20.105 -40.9375 21.125 C-37.43482651 13.30349609 -30.23587047 9.50562931 -22.875 5.8125 C-22.20259277 5.47508789 -21.53018555 5.13767578 -20.83740234 4.79003906 C-13.89403391 1.43291788 -7.78976619 -0.13787197 0 0 Z " fill="#E5C239" transform="translate(56.9375,-0.125)"/>
<path d="M0 0 C1.21816406 0.03480469 1.21816406 0.03480469 2.4609375 0.0703125 C3.68683594 0.09738281 3.68683594 0.09738281 4.9375 0.125 C5.87722656 0.15980469 5.87722656 0.15980469 6.8359375 0.1953125 C4.2704781 2.7607719 2.35907082 2.73577337 -1.1640625 3.1953125 C-1.1640625 3.8553125 -1.1640625 4.5153125 -1.1640625 5.1953125 C-2.60416338 6.13305261 -4.0462081 7.0680038 -5.5 7.984375 C-8.769832 10.36383021 -11.35707737 13.58134225 -13.1640625 17.1953125 C-13.8240625 17.1953125 -14.4840625 17.1953125 -15.1640625 17.1953125 C-15.2671875 18.1028125 -15.3703125 19.0103125 -15.4765625 19.9453125 C-16.18847222 23.31070391 -17.11449509 24.54795459 -19.1640625 27.1953125 C-19.87839371 29.84466072 -19.87839371 29.84466072 -20.1640625 32.1953125 C-20.4940625 32.1953125 -20.8240625 32.1953125 -21.1640625 32.1953125 C-21.1640625 29.8853125 -21.1640625 27.5753125 -21.1640625 25.1953125 C-20.5040625 25.1953125 -19.8440625 25.1953125 -19.1640625 25.1953125 C-19.12667969 24.58042969 -19.08929687 23.96554688 -19.05078125 23.33203125 C-18.95216797 22.11966797 -18.95216797 22.11966797 -18.8515625 20.8828125 C-18.79355469 20.08230469 -18.73554688 19.28179687 -18.67578125 18.45703125 C-18.07192727 15.78808887 -17.14150281 15.0100842 -15.1640625 13.1953125 C-14.8340625 12.2053125 -14.5040625 11.2153125 -14.1640625 10.1953125 C-12.1015625 9.5078125 -12.1015625 9.5078125 -10.1640625 9.1953125 C-10.1640625 8.2053125 -10.1640625 7.2153125 -10.1640625 6.1953125 C-8.21096362 4.79417634 -6.20697432 3.46191783 -4.1640625 2.1953125 C-2.1640625 0.1953125 -2.1640625 0.1953125 0 0 Z " fill="#E0C24E" transform="translate(46.1640625,27.8046875)"/>
<path d="M0 0 C0.66 0 1.32 0 2 0 C1.6875 1.875 1.6875 1.875 1 4 C0.01 4.66 -0.98 5.32 -2 6 C-3.23390156 8.63632971 -3.23390156 8.63632971 -4.1875 11.625 C-4.53167969 12.62789062 -4.87585937 13.63078125 -5.23046875 14.6640625 C-5.48441406 15.43492188 -5.73835937 16.20578125 -6 17 C-6.99 17 -7.98 17 -9 17 C-8.938125 18.3303125 -8.938125 18.3303125 -8.875 19.6875 C-9.0027176 23.07201634 -9.7592669 24.89816725 -11 28 C-11.42148875 29.92792077 -11.79676438 31.8665317 -12.125 33.8125 C-12.29257813 34.78832031 -12.46015625 35.76414063 -12.6328125 36.76953125 C-12.75398437 37.50558594 -12.87515625 38.24164063 -13 39 C-13.33 39 -13.66 39 -14 39 C-14.81725394 25.04614569 -10.08741098 13.36593911 -1.90234375 2.1171875 C-0.96068359 1.06917969 -0.96068359 1.06917969 0 0 Z " fill="#E5C553" transform="translate(14,21)"/>
<path d="M0 0 C6.15384615 3.07692308 6.15384615 3.07692308 9 5 C9.33 5.99 9.66 6.98 10 8 C8.33263592 10.04470249 7.47502434 10.92566921 4.82348633 11.34057617 C4.00130615 11.32486572 3.17912598 11.30915527 2.33203125 11.29296875 C1.43935547 11.28330078 0.54667969 11.27363281 -0.37304688 11.26367188 C-1.76620117 11.2259668 -1.76620117 11.2259668 -3.1875 11.1875 C-4.12787109 11.17396484 -5.06824219 11.16042969 -6.03710938 11.14648438 C-8.35865038 11.11113096 -10.67903653 11.06178674 -13 11 C-13.33 10.34 -13.66 9.68 -14 9 C-8.06 9 -2.12 9 4 9 C2.68 6.03 1.36 3.06 0 0 Z " fill="#DAB728" transform="translate(175,112)"/>
<path d="M0 0 C4.73672235 1.84429828 5.83806831 4.8675702 7.89453125 9.296875 C11.23562911 17.46662666 11.24358692 25.24440335 11 34 C10.34 34 9.68 34 9 34 C8.95101563 33.11957031 8.90203125 32.23914062 8.8515625 31.33203125 C8.73941406 29.58986328 8.73941406 29.58986328 8.625 27.8125 C8.55539062 26.66394531 8.48578125 25.51539062 8.4140625 24.33203125 C8.01969137 21.15845979 7.24864831 18.91351272 6 16 C5.58340865 14.2384872 5.20714882 12.46686867 4.875 10.6875 C4.70742188 9.80449219 4.53984375 8.92148437 4.3671875 8.01171875 C4.24601562 7.34785156 4.12484375 6.68398438 4 6 C3.34 6 2.68 6 2 6 C1.34 4.02 0.68 2.04 0 0 Z " fill="#E7C63F" transform="translate(370,29)"/>
<path d="M0 0 C2.26908836 2.11169495 3.82344312 4.19882471 5.375 6.875 C7.03045522 9.61402592 8.44439194 11.44439194 10.75 13.75 C13 16 13 16 13.4375 18.1875 C13.623125 18.785625 13.80875 19.38375 14 20 C16.99615946 21.3045656 16.99615946 21.3045656 20 22 C20 22.66 20 23.32 20 24 C17.0280615 22.87548273 14.66559313 21.77706209 12 20 C12 19.34 12 18.68 12 18 C11.34 18 10.68 18 10 18 C10 17.34 10 16.68 10 16 C9.01 16 8.02 16 7 16 C7 15.34 7 14.68 7 14 C6.34 14 5.68 14 5 14 C4.67 12.68 4.34 11.36 4 10 C3.34 10 2.68 10 2 10 C0.39644899 6.49223216 -0.22036864 3.85645121 0 0 Z " fill="#E2C54A" transform="translate(28,177)"/>
<path d="M0 0 C1.14513535 2.81930984 1.05065512 3.86977029 -0.07421875 6.76171875 C-0.60660156 7.72722656 -1.13898438 8.69273437 -1.6875 9.6875 C-2.20699219 10.66074219 -2.72648437 11.63398438 -3.26171875 12.63671875 C-5 15 -5 15 -7.20703125 15.83203125 C-7.79871094 15.88746094 -8.39039063 15.94289062 -9 16 C-9 16.99 -9 17.98 -9 19 C-9.99 19.33 -10.98 19.66 -12 20 C-12.66 20.66 -13.32 21.32 -14 22 C-16.31765729 22.71927295 -18.65095874 23.3909893 -21 24 C-21 23.34 -21 22.68 -21 22 C-19.32880021 20.89974391 -17.61081376 19.87019989 -15.875 18.875 C-11.11523209 15.96523197 -8.11433479 13.18473125 -5.12109375 8.50390625 C-4.75113281 8.00761719 -4.38117188 7.51132813 -4 7 C-3.34 7 -2.68 7 -2 7 C-1.855625 6.030625 -1.71125 5.06125 -1.5625 4.0625 C-1 1 -1 1 0 0 Z " fill="#EAC548" transform="translate(352,177)"/>
<path d="M0 0 C2 2 2 2 2.1953125 4.1640625 C2.16050781 5.38222656 2.16050781 5.38222656 2.125 6.625 C2.10695312 7.44226563 2.08890625 8.25953125 2.0703125 9.1015625 C2.04710937 9.72804687 2.02390625 10.35453125 2 11 C2.66 11.33 3.32 11.66 4 12 C4.71228144 13.98421259 5.36515933 15.98967123 6 18 C7.07975038 20.58497861 8.17611041 23.16129992 9.29296875 25.73046875 C10 28 10 28 9 31 C8.32845067 29.71086513 7.66291141 28.41859796 7 27.125 C6.62875 26.40570313 6.2575 25.68640625 5.875 24.9453125 C5 23 5 23 5 21 C4.01 21 3.02 21 2 21 C-0.62096065 14.11997829 -0.18170362 7.27823961 0 0 Z " fill="#E8C337" transform="translate(0,166)"/>
<path d="M0 0 C10.7175911 -0.62231174 19.46204912 1.0178233 29 6 C29 6.99 29 7.98 29 9 C29.639375 9.12375 30.27875 9.2475 30.9375 9.375 C31.618125 9.58125 32.29875 9.7875 33 10 C33.495 10.99 33.495 10.99 34 12 C32.02 11.34 30.04 10.68 28 10 C28 9.34 28 8.68 28 8 C27.1646875 7.8453125 27.1646875 7.8453125 26.3125 7.6875 C24 7 24 7 21.5625 5.5 C16.92774268 2.78697133 11.96973312 2.78306665 6.6875 2.4375 C5.43324219 2.35371094 4.17898438 2.26992188 2.88671875 2.18359375 C1.45779297 2.09271484 1.45779297 2.09271484 0 2 C0 1.34 0 0.68 0 0 Z " fill="#EAC64E" transform="translate(319,0)"/>
<path d="M0 0 C0.99 0.33 1.98 0.66 3 1 C2.34 1 1.68 1 1 1 C1 1.99 1 2.98 1 4 C-6.7629761 6.94397288 -13.74447081 7.34937193 -22 7 C-22 6.34 -22 5.68 -22 5 C-20.78763672 4.92652344 -20.78763672 4.92652344 -19.55078125 4.8515625 C-18.48214844 4.77679688 -17.41351563 4.70203125 -16.3125 4.625 C-14.72888672 4.52058594 -14.72888672 4.52058594 -13.11328125 4.4140625 C-10.08066116 4.01072783 -7.79722432 3.18786238 -5 2 C-2.1875 1.875 -2.1875 1.875 0 2 C0 1.34 0 0.68 0 0 Z " fill="#E8C63D" transform="translate(341,222)"/>
<path d="M0 0 C0.66 0.33 1.32 0.66 2 1 C1.01 1.33 0.02 1.66 -1 2 C-1 3.98 -1 5.96 -1 8 C-1.66 8 -2.32 8 -3 8 C-3.1546875 9.36125 -3.1546875 9.36125 -3.3125 10.75 C-4.02440972 14.11539141 -4.95043259 15.35264209 -7 18 C-7.71433121 20.64934822 -7.71433121 20.64934822 -8 23 C-8.33 23 -8.66 23 -9 23 C-9 20.69 -9 18.38 -9 16 C-8.34 16 -7.68 16 -7 16 C-6.96261719 15.38511719 -6.92523437 14.77023438 -6.88671875 14.13671875 C-6.78810547 12.92435547 -6.78810547 12.92435547 -6.6875 11.6875 C-6.62949219 10.88699219 -6.57148438 10.08648437 -6.51171875 9.26171875 C-5.90786477 6.59277637 -4.97744031 5.8147717 -3 4 C-2.67 3.01 -2.34 2.02 -2 1 C-1.34 0.67 -0.68 0.34 0 0 Z " fill="#E4C13A" transform="translate(34,37)"/>
<path d="M0 0 C0.33 0 0.66 0 1 0 C1.2354184 7.41567962 1.22706923 14.65939616 -3 21 C-3.66 21 -4.32 21 -5 21 C-5.33 21.99 -5.66 22.98 -6 24 C-6.33 23.34 -6.66 22.68 -7 22 C-6.67 21.34 -6.34 20.68 -6 20 C-5.34 20 -4.68 20 -4 20 C-4.061875 19.175 -4.12375 18.35 -4.1875 17.5 C-3.98992615 13.81195488 -3.10856513 11.33940502 -1.734375 7.96875 C-0.7611366 5.35964279 -0.34442127 2.75537018 0 0 Z " fill="#E6C73E" transform="translate(380,170)"/>
<path d="M0 0 C0.66 0.33 1.32 0.66 2 1 C0.84371094 1.70576172 0.84371094 1.70576172 -0.3359375 2.42578125 C-1.33882812 3.04839844 -2.34171875 3.67101562 -3.375 4.3125 C-4.37273438 4.92738281 -5.37046875 5.54226562 -6.3984375 6.17578125 C-9.19826812 7.90437775 -9.19826812 7.90437775 -11 11 C-11.66 11 -12.32 11 -13 11 C-13 11.66 -13 12.32 -13 13 C-14.98 13.99 -16.96 14.98 -19 16 C-15.72575531 8.48075466 -7.45624295 2.97012167 0 0 Z " fill="#E2C660" transform="translate(35,5)"/>
<path d="M0 0 C3.40728644 1.40991163 5.14595741 2.7975628 7 6 C7.29296875 9.453125 7.29296875 9.453125 7.1875 13.25 C7.14689453 15.14492188 7.14689453 15.14492188 7.10546875 17.078125 C7.07066406 18.04234375 7.03585938 19.0065625 7 20 C6.34 20 5.68 20 5 20 C4.96132812 18.41058594 4.96132812 18.41058594 4.921875 16.7890625 C4.8656022 15.40099999 4.80825467 14.01298075 4.75 12.625 C4.73582031 11.92632812 4.72164063 11.22765625 4.70703125 10.5078125 C4.63964218 8.22282354 4.63964218 8.22282354 4 5 C2.08611659 3.43516506 2.08611659 3.43516506 0 3 C0 2.01 0 1.02 0 0 Z " fill="#D3B634" transform="translate(80,43)"/>
<path d="M0 0 C6.53752644 3.19921507 11.03573118 7.73179635 16 13 C15.67 13.66 15.34 14.32 15 15 C13.2925002 13.71937515 11.62626404 12.38232443 10 11 C10 10.34 10 9.68 10 9 C9.01 8.67 8.02 8.34 7 8 C6.154375 7.319375 5.30875 6.63875 4.4375 5.9375 C2.25801386 3.79258529 2.25801386 3.79258529 0 4 C0 2.68 0 1.36 0 0 Z " fill="#D6B224" transform="translate(310,116)"/>
<path d="M0 0 C1.29608947 0.93137592 2.58671632 1.8703566 3.875 2.8125 C4.59429688 3.33457031 5.31359375 3.85664063 6.0546875 4.39453125 C8 6 8 6 10 9 C4.37082652 8.59791618 1.99613521 6.71069698 -2 3 C-1.34 2.01 -0.68 1.02 0 0 Z " fill="#E2C837" transform="translate(22,211)"/>
<path d="M0 0 C1.04220703 0.47566406 1.04220703 0.47566406 2.10546875 0.9609375 C5.26188644 2.09401052 7.97280167 2.40480011 11.3125 2.625 C12.91544922 2.73714844 12.91544922 2.73714844 14.55078125 2.8515625 C15.35902344 2.90054688 16.16726562 2.94953125 17 3 C17 3.66 17 4.32 17 5 C14.91731407 5.08126087 12.83371342 5.13930839 10.75 5.1875 C9.00976562 5.23970703 9.00976562 5.23970703 7.234375 5.29296875 C3.77117245 4.97927287 2.40769094 4.46132762 0 2 C0 1.34 0 0.68 0 0 Z " fill="#E9C230" transform="translate(45,224)"/>
<path d="M0 0 C3.42931954 3.7559214 4.56429083 8.23466745 6 13 C4.125 12.6875 4.125 12.6875 2 12 C-0.13586678 8.79619983 -0.23132175 7.98060033 -0.125 4.3125 C-0.10695312 3.50425781 -0.08890625 2.69601563 -0.0703125 1.86328125 C-0.04710937 1.24839844 -0.02390625 0.63351563 0 0 Z " fill="#D9B621" transform="translate(216,120)"/>
<path d="M0 0 C1.65 0 3.3 0 5 0 C-1.74157303 8.20224719 -1.74157303 8.20224719 -5 10 C-5.99 9.67 -6.98 9.34 -8 9 C-6.68 8.67 -5.36 8.34 -4 8 C-3.67 6.35 -3.34 4.7 -3 3 C-1.68 3 -0.36 3 1 3 C0.67 2.01 0.34 1.02 0 0 Z " fill="#DBB521" transform="translate(321,86)"/>
<path d="M0 0 C0.99 0 1.98 0 3 0 C2.18980503 4.11390262 1.31864773 8.2132475 0.4375 12.3125 C0.16808594 13.56675781 -0.10132812 14.82101563 -0.37890625 16.11328125 C-0.68634766 17.54220703 -0.68634766 17.54220703 -1 19 C-1.33 19 -1.66 19 -2 19 C-2.24991456 12.34949576 -1.73955334 6.43013467 0 0 Z " fill="#EDC93E" transform="translate(2,41)"/>
<path d="M0 0 C1.06798426 2.74159373 1.02884475 3.91055596 0.109375 6.76171875 C-0.33921875 7.72722656 -0.7878125 8.69273438 -1.25 9.6875 C-1.68828125 10.66074219 -2.1265625 11.63398438 -2.578125 12.63671875 C-4 15 -4 15 -7 16 C-5.35433477 10.31497465 -2.70967216 5.23318364 0 0 Z " fill="#D9B421" transform="translate(122,117)"/>
<path d="M0 0 C-2 2 -2 2 -5.0625 2.5 C-6.5165625 2.7475 -6.5165625 2.7475 -8 3 C-8.33 3.66 -8.66 4.32 -9 5 C-10.32 4.67 -11.64 4.34 -13 4 C-9.41420832 -0.98892755 -5.61771415 -0.43213186 0 0 Z " fill="#E4C441" transform="translate(53,28)"/>
<path d="M0 0 C0.99 0.33 1.98 0.66 3 1 C3 1.99 3 2.98 3 4 C2.01 4.33 1.02 4.66 0 5 C-0.66 4.67 -1.32 4.34 -2 4 C-2 5.32 -2 6.64 -2 8 C-2.66 8 -3.32 8 -4 8 C-4.33 8.66 -4.66 9.32 -5 10 C-4.56802365 5.2482602 -3.67230705 3.07999946 0 0 Z " fill="#DBB51F" transform="translate(58,43)"/>
<path d="M0 0 C0.66 0 1.32 0 2 0 C6.59225513 8.261959 6.59225513 8.261959 6 13 C2.97989905 9.40464172 0 4.81374718 0 0 Z " fill="#EACE57" transform="translate(3,187)"/>
<path d="M0 0 C0.33 0.66 0.66 1.32 1 2 C1.99 1.34 2.98 0.68 4 0 C4.99 0.33 5.98 0.66 7 1 C-2.22551253 5.59225513 -2.22551253 5.59225513 -8 5 C-6.68 4.67 -5.36 4.34 -4 4 C-4 3.34 -4 2.68 -4 2 C-2.68 2 -1.36 2 0 2 C0 1.34 0 0.68 0 0 Z " fill="#E9C22F" transform="translate(330,199)"/>
<path d="M0 0 C0.33 0 0.66 0 1 0 C1.3125 3.1875 1.3125 3.1875 1 7 C-1.5 9.9375 -1.5 9.9375 -4 12 C-4.33 10.68 -4.66 9.36 -5 8 C-4.34 8 -3.68 8 -3 8 C-2.67 7.01 -2.34 6.02 -2 5 C-1.67 5 -1.34 5 -1 5 C-0.67 3.35 -0.34 1.7 0 0 Z " fill="#DAB21E" transform="translate(237,165)"/>
<path d="M0 0 C2.39489543 0.74324341 3.70777616 1.47057354 4.93359375 3.69140625 C5.67219923 5.44073501 6.34049685 7.21934149 7 9 C6.01 9.495 6.01 9.495 5 10 C4.67 8.68 4.34 7.36 4 6 C3.34 6 2.68 6 2 6 C1.34 4.02 0.68 2.04 0 0 Z " fill="#E7C94F" transform="translate(370,29)"/>
<path d="M0 0 C0.99 0.33 1.98 0.66 3 1 C1.68 3.64 0.36 6.28 -1 9 C-1.33 9 -1.66 9 -2 9 C-2 6.36 -2 3.72 -2 1 C-1.34 0.67 -0.68 0.34 0 0 Z " fill="#D7B224" transform="translate(165,105)"/>
<path d="M0 0 C1.258125 0.12375 2.51625 0.2475 3.8125 0.375 C4.87404297 0.47941406 4.87404297 0.47941406 5.95703125 0.5859375 C8 1 8 1 11 3 C8.69 3.33 6.38 3.66 4 4 C4 3.34 4 2.68 4 2 C3.01 2.33 2.02 2.66 1 3 C0.67 2.01 0.34 1.02 0 0 Z " fill="#DCB225" transform="translate(283,42)"/>
<path d="M0 0 C0.99 0.33 1.98 0.66 3 1 C3 2.98 3 4.96 3 7 C2.01 7.495 2.01 7.495 1 8 C0.34 7.34 -0.32 6.68 -1 6 C-0.625 2.875 -0.625 2.875 0 0 Z " fill="#E5B720" transform="translate(5,38)"/>
<path d="M0 0 C4.27343092 -0.36629408 6.48812804 0.59185923 10 3 C9.67 3.66 9.34 4.32 9 5 C2.25 3.375 2.25 3.375 0 0 Z " fill="#E7BA28" transform="translate(333,3)"/>
<path d="M0 0 C-0.5625 1.875 -0.5625 1.875 -2 4 C-5.625 5.25 -5.625 5.25 -9 6 C-9 5.34 -9 4.68 -9 4 C-2.25 0 -2.25 0 0 0 Z " fill="#E1C356" transform="translate(340,195)"/>
<path d="M0 0 C6.52307692 0.49230769 6.52307692 0.49230769 8.9375 3.0625 C9.288125 3.701875 9.63875 4.34125 10 5 C8.51800098 4.55090939 7.03944764 4.09043436 5.5625 3.625 C4.73878906 3.36976563 3.91507813 3.11453125 3.06640625 2.8515625 C1 2 1 2 0 0 Z " fill="#E8BE43" transform="translate(37,223)"/>
<path d="M0 0 C5.02254631 -0.2954439 7.89542386 0.01485372 12 3 C11.67 3.66 11.34 4.32 11 5 C10.113125 4.525625 9.22625 4.05125 8.3125 3.5625 C5.42957244 2.20262851 3.12389377 1.45939614 0 1 C0 0.67 0 0.34 0 0 Z " fill="#DDCB57" transform="translate(323,27)"/>
<path d="M0 0 C2.64465038 3.1254959 3.84414715 6.08788267 5 10 C4.34 9.67 3.68 9.34 3 9 C3 8.34 3 7.68 3 7 C2.34 7 1.68 7 1 7 C0.67 4.69 0.34 2.38 0 0 Z " fill="#D6B128" transform="translate(188,61)"/>
<path d="M0 0 C3.0916909 2.52956528 3.90931332 5.22454612 5 9 C2.5 7.3125 2.5 7.3125 0 5 C-0.3125 2.25 -0.3125 2.25 0 0 Z " fill="#E0C950" transform="translate(28,177)"/>
<path d="M0 0 C3.57104439 1.87949705 5.54744301 3.17053157 7 7 C4 6 4 6 2 4 C1.34 3.67 0.68 3.34 0 3 C0 2.01 0 1.02 0 0 Z " fill="#D9B521" transform="translate(180,51)"/>
<path d="M0 0 C4.35535069 1.16142685 6.64619703 2.07699505 9 6 C5.9168649 4.80100302 2.93720508 3.52299523 0 2 C0 1.34 0 0.68 0 0 Z " fill="#E7D374" transform="translate(348,7)"/>
<path d="" fill="#DFDF30" transform="translate(0,0)"/>
</svg>
