<?xml version="1.0" encoding="UTF-8"?>
<svg version="1.1" xmlns="http://www.w3.org/2000/svg" width="611" height="408">
<path d="M0 0 C1.4672504 -0.00300193 2.93450003 -0.00640679 4.40174866 -0.01017761 C8.34675873 -0.01892217 12.29174703 -0.02135181 16.23676586 -0.0219934 C18.71719519 -0.02270999 21.19761919 -0.02485579 23.67804718 -0.02749062 C32.37700239 -0.03671642 41.0759424 -0.04082947 49.77490234 -0.04003906 C57.80788792 -0.03944081 65.8408058 -0.04995001 73.87377429 -0.06578273 C80.82897331 -0.07898898 87.78415059 -0.08421747 94.739362 -0.08358365 C98.86702441 -0.08333223 102.9946267 -0.08598069 107.12227631 -0.0967617 C124.23211501 -0.13841898 141.17843736 0.10290321 158.23468018 1.679245 C163.849657 2.19177533 169.45573447 2.38595142 175.09082031 2.52026367 C223.10580729 4.09314954 278.61066649 9.21453234 323.52832031 26.64526367 C324.57503906 27.04745117 325.62175781 27.44963867 326.70019531 27.86401367 C338.49453045 32.77333084 346.75017765 39.24760506 351.77832031 51.14526367 C354.72916309 59.65971288 356.77684311 68.21870441 358.34082031 77.08276367 C358.55206543 78.26604248 358.76331055 79.44932129 358.98095703 80.66845703 C359.59439116 84.15845065 360.19007059 87.6509465 360.77832031 91.14526367 C360.93187988 92.03761719 361.08543945 92.9299707 361.24365234 93.84936523 C367.22360752 129.41844925 367.25475104 165.87400486 367.10089111 201.82617188 C367.08736956 206.11471737 367.09274488 210.40316076 367.09776688 214.6917181 C367.1164758 235.97822268 367.00735907 257.142706 365.03103638 278.35310364 C364.6756627 282.2794871 364.39136122 286.21028066 364.10716248 290.1423645 C359.02439523 357.22697826 359.02439523 357.22697826 342.76660156 371.96948242 C327.68768788 383.45936541 305.51585631 388.50601566 287.15771484 391.72387695 C284.23497353 392.24148946 281.31758389 392.78607021 278.39941406 393.32885742 C264.59047829 395.87260875 250.78457489 398.0957102 236.85546875 399.86376953 C235.11272618 400.09994515 233.37761536 400.39152227 231.64550781 400.69604492 C226.93609019 401.43389646 222.19161832 401.5391407 217.43457031 401.76635742 C213.70002663 402.00952114 210.04593792 402.53663695 206.34725952 403.10314941 C199.24683976 404.12906847 192.17629957 404.74354792 185.01904297 405.19799805 C183.72273327 405.28278915 182.42642357 405.36758026 181.09083176 405.4549408 C176.83377939 405.72933591 172.57575495 405.98603595 168.31738281 406.23901367 C167.57927762 406.28324148 166.84117242 406.32746929 166.0807004 406.37303734 C132.985404 408.34634622 99.95947057 408.76722765 66.81337762 408.65953922 C61.6300367 408.64444527 56.44700171 408.64993523 51.26367188 408.66674805 C18.5300187 408.77015297 -14.06703013 408.26151178 -46.74511719 406.23901367 C-47.45032265 406.19571238 -48.15552812 406.15241108 -48.88210344 406.10779762 C-53.55282729 405.81960619 -58.22217784 405.51407346 -62.89111328 405.19799805 C-64.03889629 405.12239151 -65.18667931 405.04678497 -66.36924362 404.96888733 C-73.37291078 404.4684444 -80.27304548 403.63582414 -87.21431923 402.57588959 C-90.82121046 402.05941647 -94.33154278 401.84123536 -97.97167969 401.70776367 C-105.25563008 401.34879002 -112.29496681 400.23426465 -119.46777344 398.96166992 C-124.45267917 398.08332269 -129.45733534 397.39391256 -134.47167969 396.70776367 C-150.9224348 394.40916084 -167.18385877 391.49594913 -183.22167969 387.14526367 C-184.43339844 386.82686523 -185.64511719 386.5084668 -186.89355469 386.18041992 C-217.60171407 377.83289625 -217.60171407 377.83289625 -225.28417969 366.33276367 C-227.78240839 361.49840508 -229.51976283 356.3030379 -231.22167969 351.14526367 C-231.54048096 350.2494458 -231.85928223 349.35362793 -232.18774414 348.43066406 C-233.29147903 344.92347153 -234.00188373 341.48513653 -234.65917969 337.86791992 C-234.78478271 337.17951523 -234.91038574 336.49111053 -235.03979492 335.78184509 C-235.30405437 334.32744297 -235.5661425 332.87264483 -235.82617188 331.41748047 C-236.21514938 329.24424877 -236.61236949 327.07264967 -237.01074219 324.90112305 C-239.45714848 311.43874641 -241.29340849 297.98817543 -242.28417969 284.33276367 C-242.44076168 282.24284701 -242.5983017 280.1530019 -242.75683594 278.06323242 C-242.85557007 276.71394653 -242.85557007 276.71394653 -242.95629883 275.33740234 C-243.10297635 273.573089 -243.26010813 271.80919743 -243.46123886 270.05025959 C-244.18953275 263.56535055 -244.3698397 257.16900097 -244.36694336 250.6472168 C-244.37030197 249.54325562 -244.37366058 248.43929443 -244.37712097 247.30187988 C-244.38656602 243.67674614 -244.3885711 240.05165893 -244.38964844 236.42651367 C-244.39286643 233.88317852 -244.3962309 231.33984356 -244.3997345 228.79650879 C-244.40571036 223.47069801 -244.40761918 218.14490428 -244.40698242 212.8190918 C-244.40638381 206.71053178 -244.41689963 200.60206069 -244.43272609 194.49352312 C-244.44751774 188.56794034 -244.45096663 182.64238394 -244.4503727 176.71678162 C-244.45154259 174.21967711 -244.45590779 171.72257174 -244.46370506 169.22547913 C-244.49938108 156.61610757 -244.37283078 144.20956552 -242.69570923 131.69779968 C-242.28383598 128.61108375 -241.98122484 125.55145772 -241.76464844 122.44604492 C-236.84194517 52.63004581 -236.84194517 52.63004581 -219.15917969 36.02026367 C-210.08893278 28.76406615 -198.03442852 24.12611728 -186.75805664 21.7121582 C-184.08591752 21.11492006 -181.44377822 20.43966907 -178.79589844 19.74291992 C-166.77454213 16.59500292 -154.91439968 14.08098654 -142.59570312 12.4675293 C-140.30109852 12.15604451 -138.01604268 11.80774701 -135.72949219 11.44213867 C-119.29527205 8.82206345 -102.75706853 6.99231294 -86.22167969 5.14526367 C-85.23055176 5.0329541 -84.23942383 4.92064453 -83.21826172 4.80493164 C-69.57508566 3.28272718 -55.88787562 2.55452592 -42.18310547 1.84204102 C-41.43404434 1.80292099 -40.68498322 1.76380096 -39.91322327 1.72349548 C-37.8697231 1.61757824 -35.82610094 1.51402178 -33.7824707 1.41064453 C-31.26692064 1.27673548 -28.76011129 1.1080682 -26.24892712 0.9057045 C-17.48795441 0.20724362 -8.78530969 -0.00365284 0 0 Z " fill="#0CD8F3" transform="translate(244.2216796875,-0.145263671875)"/>
<path d="M0 0 C7.64905878 4.51138365 11.38183616 10.22289183 15.1015625 18.14453125 C16.85500606 21.6472633 18.85584469 24.91700509 21 28.1875 C21.38373779 28.77354004 21.76747559 29.35958008 22.1628418 29.96337891 C22.9583358 31.17604419 23.7544877 32.38827815 24.55126953 33.60009766 C26.55234997 36.66733419 28.49732792 39.76898991 30.4375 42.875 C30.84105713 43.52001465 31.24461426 44.1650293 31.66040039 44.82958984 C34.22153273 48.93934799 36.74452756 53.07091707 39.25 57.21484375 C39.86012939 58.22297119 40.47025879 59.23109863 41.09887695 60.26977539 C42.29078266 62.24225192 43.47961643 64.21658929 44.66479492 66.19311523 C47.96947345 71.66432669 51.4300023 76.94929932 55.17749023 82.12841797 C56.84138649 84.57169243 58.24432489 87.07512337 59.625 89.6875 C62.26483485 94.67229454 65.22761038 99.39710454 68.30126953 104.11987305 C72.77040305 110.98696499 77.02503274 117.98368859 81.30078125 124.97216797 C83.03055947 127.79598121 84.76504317 130.61686614 86.5 133.4375 C87.05526367 134.34636963 87.61052734 135.25523926 88.18261719 136.19165039 C90.8324104 140.49375719 93.51342306 144.54476054 96.75 148.4375 C100.93578155 155.87888942 102.1400399 163.7349869 100.1015625 172.09765625 C97.98855838 178.08450126 95.24499975 182.15997062 89.75 185.4375 C82.62501222 188.80777299 75.93520048 189.41202871 68.3125 187.5625 C55.96493824 182.96658079 48.09753241 165.90547698 42.1875 154.90625 C39.84168379 150.87756564 37.20551518 147.04115992 34.57836914 143.19165039 C31.09388225 138.05927286 27.91801218 132.76954773 24.75 127.4375 C22.31315649 123.37731059 19.86847244 119.32193127 17.41870117 115.26953125 C16.68171164 114.04896859 15.94603201 112.82761404 15.21166992 111.60546875 C11.10347652 104.77037165 6.8874334 98.07976355 2.24829102 91.58642578 C-0.37930195 87.81779725 -2.53609604 83.82059978 -4.76953125 79.80859375 C-6.0306752 77.32973359 -6.0306752 77.32973359 -8.25 76.4375 C-8.63671875 77.36691406 -9.0234375 78.29632813 -9.421875 79.25390625 C-14.14903107 90.51019933 -14.14903107 90.51019933 -16.375 94.1875 C-17.8973599 96.82625716 -18.98241991 99.17903132 -20.0625 102 C-22.19691236 107.53930827 -24.85989254 112.76858235 -27.56640625 118.04296875 C-29.26204807 121.46179182 -30.76150023 124.92417416 -32.25 128.4375 C-33.36460508 130.88065095 -34.48657661 133.31808664 -35.625 135.75 C-35.93099121 136.40589111 -36.23698242 137.06178223 -36.55224609 137.73754883 C-38.26795317 141.39859272 -40.03410868 145.02477583 -41.875 148.625 C-43.61179797 152.04800959 -45.12464902 155.50369941 -46.5625 159.0625 C-48.90242564 164.8154382 -51.62748756 170.32088675 -54.48364258 175.83056641 C-56.01743253 178.82001056 -57.30209227 181.59805583 -58.34375 184.80859375 C-59.54350235 188.28890982 -60.99967607 188.8501325 -64.25 190.4375 C-65.054375 190.953125 -65.85875 191.46875 -66.6875 192 C-71.96046565 194.95800512 -76.5690105 195.68667892 -82.57723999 195.67800903 C-83.65073698 195.68057231 -83.65073698 195.68057231 -84.74592078 195.68318737 C-87.13198687 195.68646849 -89.51776862 195.6755015 -91.90380859 195.66455078 C-93.61895745 195.66398637 -95.33410679 195.66430381 -97.04925537 195.66543579 C-101.69755463 195.66600913 -106.34575046 195.65425779 -110.99402571 195.64028788 C-115.85470523 195.62777746 -120.71538718 195.62660977 -125.57608032 195.62423706 C-134.77697165 195.61802322 -143.9778154 195.60161366 -153.17868578 195.58153808 C-163.65503973 195.55917613 -174.13139595 195.5481849 -184.60776782 195.53814721 C-206.15520509 195.51724737 -227.70259955 195.48207322 -249.25 195.4375 C-249.36698144 173.08841422 -249.45506068 150.73937918 -249.50906086 128.39004898 C-249.53480442 118.01204421 -249.5698812 107.63423005 -249.62719727 97.25634766 C-249.67715023 88.20731815 -249.70931897 79.15842675 -249.72044247 70.10926318 C-249.72694113 65.32105323 -249.74213407 60.53323826 -249.77865028 55.74515533 C-249.812798 51.23070497 -249.82301539 46.71680916 -249.81553841 42.2022419 C-249.81690462 40.55276785 -249.8267248 38.90327364 -249.84602737 37.25391197 C-249.96278491 26.75489873 -249.53874707 16.46105083 -242.24293995 8.15158463 C-236.37948046 2.56560501 -230.75611331 0.995724 -222.7734375 1.1875 C-216.31353641 1.8274902 -210.55479947 4.4760362 -206.25 9.4375 C-202.63828545 14.98196991 -200.1230252 19.84362353 -200.12974548 26.54374695 C-200.12837082 27.5996402 -200.12699615 28.65553345 -200.12557983 29.74342346 C-200.13097275 31.48050819 -200.13097275 31.48050819 -200.13647461 33.25268555 C-200.13632858 34.47231995 -200.13618256 35.69195435 -200.1360321 36.94854736 C-200.13660983 40.29332851 -200.14162874 43.63804811 -200.14860606 46.98281837 C-200.15485289 50.47819319 -200.15544445 53.97356882 -200.15663147 57.46894836 C-200.15974086 64.08810067 -200.16794897 70.70723647 -200.17798096 77.3263815 C-200.19025011 85.60104805 -200.19572769 93.87571726 -200.20117188 102.15039062 C-200.2109146 116.91277327 -200.2309463 131.67511991 -200.25 146.4375 C-165.27 146.4375 -130.29 146.4375 -94.25 146.4375 C-93.92 145.1175 -93.59 143.7975 -93.25 142.4375 C-92.63922629 140.9297109 -91.99444305 139.43544477 -91.32421875 137.953125 C-90.93943359 137.09976563 -90.55464844 136.24640625 -90.15820312 135.3671875 C-89.75537109 134.48289063 -89.35253906 133.59859375 -88.9375 132.6875 C-88.54626953 131.81867188 -88.15503906 130.94984375 -87.75195312 130.0546875 C-85.95625554 126.08807195 -84.12783625 122.15007235 -82.16015625 118.265625 C-80.28047176 114.55199951 -78.62700466 110.76706161 -77 106.9375 C-74.6442526 101.47032791 -72.14262903 96.1150946 -69.4375 90.8125 C-64.78327007 81.67684288 -60.61585546 72.3286015 -56.40332031 62.98339844 C-54.81489914 59.47703603 -53.19525919 55.98589652 -51.5625 52.5 C-51.01207031 51.324375 -50.46164063 50.14875 -49.89453125 48.9375 C-49.0598581 47.16109348 -48.22511728 45.38471762 -47.38818359 43.609375 C-46.50716635 41.74034231 -45.62845299 39.87023907 -44.75 38 C-44.4602832 37.38688965 -44.17056641 36.7737793 -43.87207031 36.14208984 C-42.34614696 32.8869568 -40.89512924 29.6172337 -39.53515625 26.2890625 C-34.91374207 15.04217674 -29.75624482 4.92273866 -18.25 -0.5625 C-12.39070928 -2.51559691 -5.67640672 -2.59937216 0 0 Z " fill="#313539" transform="translate(300.25,102.5625)"/>
<path d="M0 0 C31.12684301 -0.16065467 31.12684301 -0.16065467 46.52542591 -0.20101547 C54.84638942 -0.22316279 63.16719216 -0.25126007 71.48803711 -0.30175781 C78.07704299 -0.34172614 84.66592745 -0.36745655 91.2550512 -0.37635398 C94.74143487 -0.38155194 98.22747125 -0.39369973 101.71374321 -0.42292023 C105.61318159 -0.4553362 109.51228552 -0.45595301 113.41186523 -0.45410156 C114.55770081 -0.46848267 115.70353638 -0.48286377 116.88409424 -0.49768066 C125.59912713 -0.45300141 132.11011196 1.27945739 138.75 7.0625 C146.98938451 15.97253209 148.17828607 26.83716277 148.1875 38.4375 C148.19974609 39.24509766 148.21199219 40.05269531 148.22460938 40.88476562 C148.25179723 52.13147359 144.88371722 62.28903414 137 70.5 C132.64436857 74.78537931 128.62773581 76.25245876 122.53935242 76.24050903 C120.91352486 76.24463303 120.91352486 76.24463303 119.25485229 76.24884033 C118.07593414 76.24164978 116.89701599 76.23445923 115.68237305 76.22705078 C113.8085923 76.22748886 113.8085923 76.22748886 111.8969574 76.22793579 C108.47991183 76.22678268 105.06310908 76.21676465 101.64610648 76.20278788 C98.07200574 76.19027012 94.49790163 76.18910919 90.92378235 76.18673706 C84.15946801 76.18052536 77.39521846 76.16411875 70.63093263 76.14403808 C61.48768282 76.11748537 52.34441524 76.10670393 43.20113659 76.09503365 C28.80070922 76.07623792 14.40041855 76.03639022 0 76 C0 50.92 0 25.84 0 0 Z " fill="#313439" transform="translate(411,213)"/>
<path d="M0 0 C25.13485385 -0.20054405 25.13485385 -0.20054405 35.8671875 -0.24414062 C43.18410419 -0.27400425 50.50070737 -0.30929394 57.81738281 -0.37719727 C63.71776256 -0.43161242 69.617806 -0.461441 75.51841736 -0.47438622 C77.76705721 -0.4836089 80.01567913 -0.50161882 82.26417542 -0.52865028 C85.41935683 -0.56506574 88.57315712 -0.56993996 91.72851562 -0.56762695 C92.65352875 -0.58560333 93.57854187 -0.60357971 94.53158569 -0.62210083 C102.03511091 -0.56276845 106.8210193 1.91821835 112.171875 7.10546875 C121.81123131 19.82273834 123.18357364 33.38648667 121.7265625 48.9140625 C120.03534308 58.96564963 115.10942055 68.21902879 106.875 74.3125 C103.35417767 76.37906963 100.81586846 77.1252371 96.80488586 77.12025452 C95.52395554 77.12231651 95.52395554 77.12231651 94.21714783 77.12442017 C93.28350906 77.12082489 92.3498703 77.11722961 91.38793945 77.11352539 C89.90961639 77.11374443 89.90961639 77.11374443 88.40142822 77.1139679 C85.1386903 77.11327035 81.87600922 77.10548527 78.61328125 77.09765625 C76.3531243 77.09579151 74.09296695 77.09436787 71.83280945 77.09336853 C65.8799427 77.08954776 59.92710029 77.07972119 53.97424316 77.06866455 C46.83400729 77.05664395 39.69376329 77.05204609 32.5535202 77.04621124 C21.70232986 77.03650924 10.85119295 77.01734957 0 77 C0 51.59 0 26.18 0 0 Z " fill="#323438" transform="translate(411,114)"/>
<path d="M0 0 C0.33 0 0.66 0 1 0 C1 56.76 1 113.52 1 172 C43.3534375 171.87625 43.3534375 171.87625 86.5625 171.75 C95.47838135 171.73420898 104.3942627 171.71841797 113.58032227 171.70214844 C121.57159892 171.66892906 121.57159892 171.66892906 129.56285095 171.63043213 C133.1225864 171.61342506 136.68215296 171.60756851 140.2419281 171.60845947 C144.7846592 171.60923101 149.32694019 171.59093457 153.8695544 171.55891085 C155.53543435 171.55039902 157.20136504 171.54854987 158.86725724 171.55417585 C161.12151572 171.56082407 163.37432106 171.54289829 165.62843323 171.51898193 C166.89036782 171.51529476 168.15230242 171.51160759 169.45247746 171.50780869 C173.85421794 170.87772332 176.23337027 169.31778984 180 167 C182.9375 166.75 182.9375 166.75 185 167 C182.69690312 170.45464532 180.88180265 171.22679572 176.97639656 172.41469765 C170.41186649 173.70559919 163.66888164 173.38664991 157.00561523 173.34057617 C155.26237794 173.33965608 153.51913954 173.3400595 151.77590275 173.34167194 C147.12706858 173.34234646 142.47846824 173.32501744 137.82968903 173.30384064 C133.46006063 173.2866972 129.09048778 173.28594811 124.7208252 173.28381348 C111.95968609 173.2681004 99.19859005 173.22621669 86.4375 173.1875 C57.913125 173.125625 29.38875 173.06375 0 173 C0 115.91 0 58.82 0 0 Z " fill="#136471" transform="translate(51,125)"/>
<path d="M0 0 C25.17496266 -0.16043524 25.17496266 -0.16043524 35.91601562 -0.1953125 C43.2417359 -0.21921264 50.56725595 -0.2474699 57.89282227 -0.30175781 C63.79966868 -0.34525741 69.70630035 -0.36914614 75.6132946 -0.37950897 C77.86553261 -0.38689287 80.11775902 -0.40131191 82.36990547 -0.42292023 C85.52754123 -0.45200811 88.68429257 -0.45595364 91.84204102 -0.45410156 C92.77064941 -0.46848267 93.69925781 -0.48286377 94.65600586 -0.49768066 C100.61818328 -0.4599053 104.0723173 0.60904762 109 4 C105.24279056 5.25240315 104.58949199 4.4357968 101 3 C95.19137251 2.09829445 89.51738566 1.83531456 83.64648438 1.79467773 C82.74798767 1.78477814 81.84949097 1.77487854 80.92376709 1.76467896 C77.98045404 1.73331795 75.0371249 1.70840793 72.09375 1.68359375 C70.04251711 1.66300224 67.99128825 1.64200522 65.94006348 1.62062073 C60.56106854 1.56562688 55.18203677 1.51611824 49.80297852 1.46777344 C43.33837893 1.40852217 36.87384616 1.34241993 30.40930176 1.27747345 C20.60624224 1.1797497 10.80313837 1.09069833 1 1 C1 25.75 1 50.5 1 76 C34 76 67 76 101 76 C101 76.33 101 76.66 101 77 C67.67 77 34.34 77 0 77 C0 51.59 0 26.18 0 0 Z " fill="#124750" transform="translate(411,114)"/>
<path d="M0 0 C16.76769689 -0.02334562 33.53538852 -0.04098737 50.30309772 -0.05181217 C58.08838252 -0.05697158 65.87365723 -0.06400755 73.65893555 -0.07543945 C80.44345153 -0.0853971 87.22796021 -0.09185601 94.0124833 -0.09408849 C97.60584332 -0.09539376 101.19918245 -0.09846802 104.79253578 -0.10573006 C108.800909 -0.11376535 112.80924571 -0.11399044 116.81762695 -0.11352539 C118.0130864 -0.11712067 119.20854584 -0.12071594 120.44023132 -0.12442017 C122.07455612 -0.12235817 122.07455612 -0.12235817 123.74189758 -0.12025452 C124.69042256 -0.12117631 125.63894754 -0.1220981 126.61621571 -0.12304783 C129.54421526 0.02809168 131.43674868 0.52019332 133.6875 2.4375 C135 4 135 4 135 6 C133.77652359 5.51391769 132.55304718 5.02783539 131.29249573 4.52702332 C125.31027909 2.54648513 119.57368808 2.55985808 113.32006836 2.56762695 C112.08005066 2.5574353 110.84003296 2.54724365 109.56243896 2.53674316 C106.18898575 2.51186209 102.81596677 2.49991266 99.44245982 2.49388909 C95.90701261 2.48445978 92.37168907 2.458253 88.83631897 2.43388367 C82.1536504 2.39033961 75.47100599 2.36171863 68.78823906 2.33856028 C61.1750443 2.31144345 53.5619747 2.26753617 45.94886959 2.22227156 C30.29931089 2.12959869 14.64972858 2.05783886 -1 2 C-0.67 1.34 -0.34 0.68 0 0 Z " fill="#29C6D9" transform="translate(411,211)"/>
<path d="M0 0 C0.66 0 1.32 0 2 0 C2 41.91 2 83.82 2 127 C53.48 126.505 53.48 126.505 106 126 C106.33 124.35 106.66 122.7 107 121 C107.33 120.34 107.66 119.68 108 119 C108.66 119 109.32 119 110 119 C110 117.68 110 116.36 110 115 C110.66 115 111.32 115 112 115 C111.54554036 116.41791408 111.08625056 117.83428046 110.625 119.25 C110.24214844 120.43335938 110.24214844 120.43335938 109.8515625 121.640625 C109 124 109 124 107 128 C72.02 128 37.04 128 1 128 C0.67 85.76 0.34 43.52 0 0 Z " fill="#24C5DC" transform="translate(99,121)"/>
<path d="M0 0 C7.59 0 15.18 0 23 0 C23 0.33 23 0.66 23 1 C22.00742187 1.04898437 21.01484375 1.09796875 19.9921875 1.1484375 C18.61977409 1.22363823 17.24737922 1.29917794 15.875 1.375 C15.22917969 1.4059375 14.58335937 1.436875 13.91796875 1.46875 C9.4488521 1.72412809 5.08422973 2.27289593 0.66040039 2.95898438 C-7.02110277 4.06899899 -14.68964308 4.62712518 -22.43359375 5.0703125 C-23.88308035 5.15682361 -25.33254793 5.24365369 -26.78199768 5.33078003 C-29.80293963 5.51099175 -32.82409042 5.68695671 -35.84545898 5.85986328 C-39.64429706 6.07765485 -43.4423501 6.30680181 -47.24033165 6.53899002 C-64.17269352 7.56845613 -81.02804757 8.29316276 -98 8 C-95.60652815 5.20533316 -95.20693405 5.01885889 -91.26293945 4.65942383 C-89.71297222 4.65989809 -88.16295381 4.6768051 -86.61328125 4.70703125 C-85.38776802 4.71339851 -85.38776802 4.71339851 -84.13749695 4.71989441 C-81.52882893 4.73668309 -78.92093438 4.77433481 -76.3125 4.8125 C-74.54363095 4.82754663 -72.77474979 4.84123508 -71.00585938 4.85351562 C-66.67027504 4.88658714 -62.33526864 4.9383701 -58 5 C-58 4.34 -58 3.68 -58 3 C-38.66480229 2.3994685 -19.34721524 1.80823245 0 2 C0 1.34 0 0.68 0 0 Z " fill="#58DCEE" transform="translate(450,400)"/>
<path d="M0 0 C0 0.33 0 0.66 0 1 C-1.3921875 1.0928125 -1.3921875 1.0928125 -2.8125 1.1875 C-8.23017147 1.94397158 -13.25024981 4.36216296 -18 7 C-18.33 7.66 -18.66 8.32 -19 9 C-19.66 9 -20.32 9 -21 9 C-20.67 9.99 -20.34 10.98 -20 12 C-21.375 13.5 -21.375 13.5 -23 15 C-23.66 15 -24.32 15 -25 15 C-25.85970659 19.46734138 -26.13498798 23.70479121 -26.15821838 28.25131226 C-26.16562535 29.31255859 -26.16562535 29.31255859 -26.17318195 30.39524424 C-26.18847617 32.75356554 -26.19689552 35.11185978 -26.20532227 37.47021484 C-26.21490715 39.16566198 -26.22491759 40.86110676 -26.23532104 42.55654907 C-26.26231004 47.15107344 -26.28335206 51.74560801 -26.30332303 56.34016752 C-26.32521969 61.14481679 -26.35259035 65.94943481 -26.37937927 70.75405884 C-26.42925644 79.84866231 -26.4742137 88.94328317 -26.51740164 98.03792059 C-26.56681657 108.39338516 -26.6217189 118.74881836 -26.67708123 129.10425258 C-26.79082487 150.40280582 -26.89768046 171.70138902 -27 193 C-27.33 193 -27.66 193 -28 193 C-28.09353259 170.48596536 -28.16402296 147.97196287 -28.20724869 125.45777321 C-28.22785458 115.00352093 -28.25593747 104.54938953 -28.30175781 94.09521484 C-28.34168597 84.98101543 -28.36744715 75.86690359 -28.37635398 66.75261915 C-28.3815586 61.92876618 -28.39375019 57.10516367 -28.42292023 52.28139114 C-28.45018383 47.73581065 -28.45842297 43.19058247 -28.45243073 38.64492798 C-28.45352608 36.98172462 -28.4614146 35.31850879 -28.4768219 33.65537643 C-28.5637041 23.78825636 -28.47954318 14.65837033 -22.0703125 6.5625 C-14.7659455 0.69553855 -9.25207005 -0.32912502 0 0 Z " fill="#1D3E41" transform="translate(80,104)"/>
<path d="M0 0 C31.81700646 -0.16121214 31.81700646 -0.16121214 45.15820312 -0.1953125 C54.36703408 -0.21903958 63.57571855 -0.24692052 72.78442383 -0.30175781 C79.49133778 -0.34167798 86.19813281 -0.36744519 92.90516227 -0.37635398 C96.45519515 -0.38156004 100.00488784 -0.39376002 103.55481148 -0.42292023 C107.52171234 -0.45524007 111.48828307 -0.45595607 115.45532227 -0.45410156 C116.62704987 -0.46848267 117.79877747 -0.48286377 119.00601196 -0.49768066 C125.54408363 -0.46459629 129.71856334 0.01463832 135 4 C135.33 4.66 135.66 5.32 136 6 C134.68 6 133.36 6 132 6 C131.67 5.34 131.34 4.68 131 4 C127.88279237 2.00827061 125.39311586 1.74338515 121.73553467 1.7215271 C120.6698526 1.71036362 119.60417053 1.69920013 118.50619507 1.68769836 C117.34238312 1.68553818 116.17857117 1.68337799 114.97949219 1.68115234 C113.74995819 1.67110672 112.52042419 1.6610611 111.25363159 1.65071106 C107.88617044 1.62512109 104.51887774 1.60826481 101.1513586 1.59528303 C97.6305811 1.57964806 94.10988892 1.55285902 90.58917236 1.5272522 C83.92405263 1.48047086 77.25891683 1.44372366 70.59371686 1.41057932 C62.26033578 1.36860321 53.92705063 1.31323716 45.59375 1.2578125 C30.72921927 1.15900788 15.86466645 1.08046401 1 1 C1.33 25.09 1.66 49.18 2 74 C1.34 74 0.68 74 0 74 C0 49.58 0 25.16 0 0 Z " fill="#213C41" transform="translate(412,214)"/>
<path d="M0 0 C11.28125473 0.61046607 22.50724548 1.54464315 33.74755859 2.67456055 C36.39236543 2.93923783 39.03791428 3.19538222 41.68359375 3.45117188 C56.57818072 4.92014665 56.57818072 4.92014665 63.91943359 6.5559082 C67.45666639 7.31092187 71.03475875 7.70943128 74.625 8.125 C75.34300781 8.21136719 76.06101562 8.29773437 76.80078125 8.38671875 C78.53343872 8.59463765 80.26666015 8.7978487 82 9 C82 9.33 82 9.66 82 10 C78.52085059 10.02887814 75.04173169 10.04675687 71.5625 10.0625 C70.07266602 10.07506836 70.07266602 10.07506836 68.55273438 10.08789062 C67.60849609 10.09111328 66.66425781 10.09433594 65.69140625 10.09765625 C64.81685791 10.10289307 63.94230957 10.10812988 63.04125977 10.11352539 C61 10 61 10 60 9 C57.14122091 8.76298761 54.30116703 8.57780818 51.4375 8.4375 C50.22803711 8.37272461 50.22803711 8.37272461 48.99414062 8.30664062 C46.99631195 8.20024738 44.9981793 8.09959112 43 8 C43 7.34 43 6.68 43 6 C41.60974609 6.01740234 41.60974609 6.01740234 40.19140625 6.03515625 C38.99386719 6.04417969 37.79632813 6.05320312 36.5625 6.0625 C35.36753906 6.07410156 34.17257812 6.08570313 32.94140625 6.09765625 C30 6 30 6 29 5 C27.53580721 4.79701855 26.06334124 4.65291498 24.58984375 4.53515625 C23.68169922 4.45716797 22.77355469 4.37917969 21.83789062 4.29882812 C19.93177574 4.14351506 18.02552817 3.98982033 16.11914062 3.83789062 C10.54408785 3.3559992 5.38896099 2.51703378 0 1 C0 0.67 0 0.34 0 0 Z " fill="#68DEEC" transform="translate(424,3)"/>
<path d="M0 0 C-6.08804019 2.86533547 -12.17091106 5.1684478 -18.625 7.0625 C-19.50542969 7.32216553 -20.38585937 7.58183105 -21.29296875 7.84936523 C-27.99311204 9.78589682 -34.69041476 11.36189788 -41.56347656 12.56542969 C-44.65864162 13.11747315 -47.74666359 13.70496662 -50.8359375 14.2890625 C-53.34878686 14.75613183 -55.86180977 15.22226833 -58.375 15.6875 C-59.57640625 15.91445557 -60.7778125 16.14141113 -62.015625 16.37524414 C-68.45777761 17.54413973 -74.45312509 18.25935158 -81 18 C-75.64682 14.43121333 -71.11123931 13.6720421 -64.75 13.4375 C-59.9944526 13.66374937 -59.9944526 13.66374937 -56 12 C-53.66702567 11.95907063 -51.33294775 11.95758277 -49 12 C-49 11.34 -49 10.68 -49 10 C-45.37 10 -41.74 10 -38 10 C-38 9.34 -38 8.68 -38 8 C-36.7625 7.9175 -35.525 7.835 -34.25 7.75 C-26.70668149 6.91845308 -19.70720828 4.07412942 -12.6875 1.3125 C-3.74257426 -1.87128713 -3.74257426 -1.87128713 0 0 Z " fill="#54DAEC" transform="translate(573,379)"/>
<path d="M0 0 C4.31248609 -0.02886537 8.62494762 -0.04675255 12.9375 -0.0625 C14.16919922 -0.07087891 15.40089844 -0.07925781 16.66992188 -0.08789062 C17.83974609 -0.09111328 19.00957031 -0.09433594 20.21484375 -0.09765625 C21.84087524 -0.10551147 21.84087524 -0.10551147 23.49975586 -0.11352539 C26 0 26 0 27 1 C30.08884778 1.24722991 33.15553999 1.42942261 36.25 1.5625 C37.17917236 1.6042334 38.10834473 1.6459668 39.06567383 1.68896484 C45.93941266 1.97183475 52.80815482 2.10520419 59.6875 2.125 C61.04053223 2.13188843 61.04053223 2.13188843 62.42089844 2.13891602 C63.67241699 2.13589478 63.67241699 2.13589478 64.94921875 2.1328125 C65.68487061 2.13168457 66.42052246 2.13055664 67.1784668 2.12939453 C69.09951887 2.10970416 69.09951887 2.10970416 71 1 C72.49649362 0.87994547 73.99874793 0.82468549 75.5 0.8125 C76.69109375 0.79123047 76.69109375 0.79123047 77.90625 0.76953125 C80 1 80 1 82 3 C78.06581142 6.93418858 62.27864356 5.14207946 56.5 5.1875 C47.54835888 5.18654699 38.61958182 4.66326215 29.6875 4.125 C29.01412598 4.08579437 28.34075195 4.04658875 27.64697266 4.00619507 C18.33492235 3.45399457 9.21076126 2.45975118 0 1 C0 0.67 0 0.34 0 0 Z " fill="#3CDAED" transform="translate(154,401)"/>
<path d="M0 0 C2.27094246 3.40641369 2.79221259 6.36595303 3.4375 10.3125 C3.56310303 11.05814209 3.68870605 11.80378418 3.81811523 12.57202148 C7.72213391 36.2363435 10.54580989 59.98436468 10 84 C9.01 84.495 9.01 84.495 8 85 C7.94465088 83.97527588 7.88930176 82.95055176 7.83227539 81.89477539 C7.62638264 78.10576861 7.41435583 74.31712602 7.20043945 70.52856445 C7.10858519 68.88640523 7.01841195 67.24415111 6.92993164 65.60180664 C6.80272457 63.24598861 6.66954596 60.89057406 6.53515625 58.53515625 C6.49656998 57.79660904 6.4579837 57.05806183 6.41822815 56.2971344 C6.50332596 52.85475293 6.50332596 52.85475293 5 50 C4.85613896 48.67113927 4.77323712 47.33551413 4.71875 46 C4.66267578 44.7934375 4.66267578 44.7934375 4.60546875 43.5625 C4.53515625 41.85416667 4.46484375 40.14583333 4.39453125 38.4375 C4.33845703 37.2309375 4.33845703 37.2309375 4.28125 36 C4.25095703 35.2575 4.22066406 34.515 4.18945312 33.75 C4.18207587 31.97311145 4.18207587 31.97311145 3 31 C2.81065133 28.92017015 2.67503794 26.83539693 2.5625 24.75 C2.17689506 18.66739298 1.42818593 12.74748262 0.40234375 6.7421875 C0 4 0 4 0 0 Z " fill="#5EDBE9" transform="translate(600,71)"/>
<path d="M0 0 C13.17819276 -0.09272976 26.35630775 -0.16378044 39.53476048 -0.20724869 C45.65423174 -0.22811256 51.77347958 -0.25640892 57.89282227 -0.30175781 C63.79966868 -0.34525741 69.70630035 -0.36914614 75.6132946 -0.37950897 C77.86553261 -0.38689287 80.11775902 -0.40131191 82.36990547 -0.42292023 C85.52754123 -0.45200811 88.68429257 -0.45595364 91.84204102 -0.45410156 C92.77064941 -0.46848267 93.69925781 -0.48286377 94.65600586 -0.49768066 C100.61818328 -0.4599053 104.0723173 0.60904762 109 4 C105.24279056 5.25240315 104.58949199 4.4357968 101 3 C95.16116737 2.09215516 89.45632857 1.83507306 83.5546875 1.79467773 C82.64643723 1.78477814 81.73818695 1.77487854 80.80241394 1.76467896 C77.82663501 1.73331359 74.85084016 1.70840616 71.875 1.68359375 C69.8013469 1.66300262 67.7276978 1.6420056 65.65405273 1.62062073 C60.21587371 1.56562298 54.77765822 1.51611603 49.3394165 1.46777344 C43.78223453 1.41739488 38.22510502 1.36179446 32.66796875 1.30664062 C21.77869074 1.19933206 10.88936703 1.09782729 0 1 C0 0.67 0 0.34 0 0 Z " fill="#1A5562" transform="translate(411,114)"/>
<path d="M0 0 C13.6384732 -0.04628067 27.2769278 -0.08184747 40.91546345 -0.10362434 C47.24795105 -0.11407459 53.58038505 -0.12825644 59.9128418 -0.15087891 C66.02065243 -0.17256301 72.12841141 -0.18455927 78.23625755 -0.18975449 C80.56992596 -0.19345822 82.90359144 -0.20069038 85.23723793 -0.21146011 C88.4984721 -0.22591603 91.75949106 -0.22798041 95.02075195 -0.22705078 C95.99179367 -0.23424133 96.96283539 -0.24143188 97.96330261 -0.24884033 C99.29471786 -0.24471634 99.29471786 -0.24471634 100.6530304 -0.24050903 C101.81034149 -0.24327441 101.81034149 -0.24327441 102.9910326 -0.24609566 C105 0 105 0 108 2 C108 2.66 108 3.32 108 4 C107.21716644 3.67657623 106.43433289 3.35315247 105.6277771 3.01992798 C100.99411568 1.7172016 96.74535246 1.69225167 91.95556641 1.68115234 C90.95982605 1.67110672 89.96408569 1.6610611 88.93817139 1.65071106 C85.65930742 1.6199136 82.380525 1.6028533 79.1015625 1.5859375 C76.82326559 1.56722311 74.54497558 1.5476495 72.26669312 1.5272522 C66.27939938 1.47595376 60.29208318 1.43631565 54.3046875 1.39910889 C48.19134982 1.35905501 42.07810541 1.30796894 35.96484375 1.2578125 C23.97662804 1.16108023 11.98835964 1.07666669 0 1 C0 0.67 0 0.34 0 0 Z " fill="#22B5C8" transform="translate(411,113)"/>
<path d="M0 0 C6.73742646 -0.11044961 13.29980211 0.29867087 20 1 C20 1.66 20 2.32 20 3 C23.3 3 26.6 3 30 3 C30 3.66 30 4.32 30 5 C31.01320313 5.04898437 32.02640625 5.09796875 33.0703125 5.1484375 C34.42189911 5.22352564 35.77346038 5.29907081 37.125 5.375 C37.79015625 5.4059375 38.4553125 5.436875 39.140625 5.46875 C43.39821262 5.71919633 47.02085783 6.47528197 51 8 C51 8.33 51 8.66 51 9 C35.95415889 8.25554432 35.95415889 8.25554432 30.05859375 6.53125 C27.37304513 5.83820519 24.681929 5.46168967 21.9375 5.0625 C14.56392307 3.98069587 7.29535382 2.51355888 0 1 C0 0.67 0 0.34 0 0 Z " fill="#5DDDED" transform="translate(67,388)"/>
<path d="M0 0 C0 2 0 2 -1.1875 3.3125 C-1.785625 3.869375 -2.38375 4.42625 -3 5 C-3.845625 5.886875 -4.69125 6.77375 -5.5625 7.6875 C-8 10 -8 10 -10 10 C-10.1546875 11.8871875 -10.1546875 11.8871875 -10.3125 13.8125 C-10.62572646 17.63386284 -10.62572646 17.63386284 -12.4375 19.40625 C-14.59623252 21.60815717 -14.95408358 23.71890974 -15.6875 26.6875 C-15.93886719 27.68136719 -16.19023437 28.67523438 -16.44921875 29.69921875 C-16.63097656 30.45847656 -16.81273437 31.21773437 -17 32 C-17.66 32 -18.32 32 -19 32 C-19.33 32.66 -19.66 33.32 -20 34 C-17.48690054 21.22507775 -13.79742489 9.57390634 -3.55078125 1.03125 C-2 0 -2 0 0 0 Z " fill="#53DBEB" transform="translate(31,33)"/>
<path d="M0 0 C0 0.33 0 0.66 0 1 C-7.59943442 2.62732172 -15.06276544 3.33863793 -22.8125 3.65625 C-26.15287127 3.76803893 -26.15287127 3.76803893 -29 6 C-37.2502989 7.15069958 -45.68202226 7.15277918 -54 7 C-54 6.67 -54 6.34 -54 6 C-45.74588414 4.35617184 -37.45529986 3.25270134 -29.10253906 2.25878906 C-27.00051554 2.00006345 -24.90277279 1.71850465 -22.8046875 1.4296875 C-15.16336092 0.39140999 -7.71770587 -0.29431929 0 0 Z " fill="#6ADEEB" transform="translate(151,7)"/>
<path d="M0 0 C2.2477975 2.05233685 3.0022242 3.00667261 4 6 C4.66 6.33 5.32 6.66 6 7 C6.8515625 9.50390625 6.8515625 9.50390625 7.625 12.5625 C7.88539062 13.57441406 8.14578125 14.58632813 8.4140625 15.62890625 C8.60742188 16.41136719 8.80078125 17.19382812 9 18 C10.32 18 11.64 18 13 18 C13.33 18.66 13.66 19.32 14 20 C14.99 20.33 15.98 20.66 17 21 C17 21.66 17 22.32 17 23 C18.65 23.33 20.3 23.66 22 24 C22 24.66 22 25.32 22 26 C22.639375 26.12375 23.27875 26.2475 23.9375 26.375 C24.9584375 26.684375 24.9584375 26.684375 26 27 C26.33 27.66 26.66 28.32 27 29 C19.00823089 26.61331782 9.55456107 22.24115566 4.875 15 C3.85546875 13.01953125 3.85546875 13.01953125 3 11 C2.68675781 10.28199219 2.37351562 9.56398438 2.05078125 8.82421875 C0.82064186 5.77948459 0 3.30331693 0 0 Z " fill="#58DCEB" transform="translate(14,351)"/>
<path d="M0 0 C0.66 0.33 1.32 0.66 2 1 C2.26691543 7.47960225 1.25042857 13.61907698 0.1875 20 C-0.08271973 21.6560022 -0.08271973 21.6560022 -0.35839844 23.34545898 C-1.7233979 31.60370574 -3.24343322 39.81599569 -5 48 C-5.33 48 -5.66 48 -6 48 C-6.05423638 46.08364783 -6.09289963 44.16685075 -6.125 42.25 C-6.14820313 41.18265625 -6.17140625 40.1153125 -6.1953125 39.015625 C-6 36 -6 36 -5.02514648 34.14819336 C-3.78990766 31.55975173 -3.60660515 29.46974548 -3.40234375 26.61328125 C-3.32306641 25.59298828 -3.24378906 24.57269531 -3.16210938 23.52148438 C-3.08798828 22.46251953 -3.01386719 21.40355469 -2.9375 20.3125 C-2.78391047 18.20413468 -2.62656765 16.09603822 -2.46484375 13.98828125 C-2.399021 13.05540283 -2.33319824 12.12252441 -2.26538086 11.16137695 C-2 9 -2 9 -1 8 C-0.76924918 6.65252916 -0.58846937 5.29622435 -0.4375 3.9375 C-0.293125 2.638125 -0.14875 1.33875 0 0 Z " fill="#55DAEB" transform="translate(605,296)"/>
<path d="M0 0 C1.43088528 2.86177057 0.59991697 4.93375773 0 8 C-0.66 8 -1.32 8 -2 8 C-2 9.32 -2 10.64 -2 12 C-2.66 12 -3.32 12 -4 12 C-4.144375 12.78375 -4.28875 13.5675 -4.4375 14.375 C-5 17 -5 17 -6 19 C-6.66 19 -7.32 19 -8 19 C-8 20.65 -8 22.3 -8 24 C-8.66 24 -9.32 24 -10 24 C-10 25.65 -10 27.3 -10 29 C-10.66 29 -11.32 29 -12 29 C-11.773125 29.556875 -11.54625 30.11375 -11.3125 30.6875 C-11 33 -11 33 -12.25 35.75 C-12.8275 36.4925 -13.405 37.235 -14 38 C-14.99 38 -15.98 38 -17 38 C-15.60163525 33.5115902 -13.83950376 29.36454562 -11.8125 25.125 C-8.8144762 18.81110119 -5.97331596 12.441235 -3.22192383 6.01611328 C-1.10332044 1.10332044 -1.10332044 1.10332044 0 0 Z " fill="#1A5562" transform="translate(267,116)"/>
<path d="M0 0 C5.18569499 -0.14216657 10.0209401 0.35625922 15.125 1.3125 C15.858396 1.44567627 16.59179199 1.57885254 17.34741211 1.71606445 C23.94765291 2.93843736 30.48043029 4.40128812 37 6 C37 6.33 37 6.66 37 7 C32.05 6.67 27.1 6.34 22 6 C21.67 6.99 21.34 7.98 21 9 C20.01 9 19.02 9 18 9 C17.67 8.01 17.34 7.02 17 6 C17.33 5.34 17.66 4.68 18 4 C17.28714844 3.95101563 16.57429687 3.90203125 15.83984375 3.8515625 C10.29491509 3.41871477 5.27913551 2.75971184 0 1 C0 0.67 0 0.34 0 0 Z " fill="#67DEED" transform="translate(506,13)"/>
<path d="M0 0 C0.99 0.33 1.98 0.66 3 1 C3.60749834 14.00466516 4.18780376 26.97893922 4 40 C3.67 40 3.34 40 3 40 C0.77727734 26.72840352 0.39216473 13.4308448 0 0 Z " fill="#57D8EA" transform="translate(2,272)"/>
<path d="M0 0 C5.20674076 5.20674076 4.20576221 14.70312683 4.25 21.625 C4.25918457 22.42413818 4.26836914 23.22327637 4.27783203 24.04663086 C4.24436963 30.53632826 3.68426085 36.47360872 0 42 C0.144375 41.04222656 0.28875 40.08445312 0.4375 39.09765625 C1.8729942 29.00569704 2.22687852 19.18432487 2 9 C1.01 9 0.02 9 -1 9 C-2.0326802 6.21176345 -2.04509293 5.1322726 -1.0625 2.25 C-0.711875 1.5075 -0.36125 0.765 0 0 Z " fill="#164C56" transform="translate(555,230)"/>
<path d="M0 0 C0.66 0 1.32 0 2 0 C3.17571451 3.67410785 3.07366746 7.16929183 3 11 C3.99 10.67 4.98 10.34 6 10 C5.98839844 10.96679688 5.97679687 11.93359375 5.96484375 12.9296875 C5.91334038 20.36088832 6.02716485 27.61687607 7 35 C4.37189696 32.37189696 4.35263309 30.50170258 3.7109375 26.85546875 C3.38222656 25.00405273 3.38222656 25.00405273 3.046875 23.11523438 C2.82515625 21.81908203 2.6034375 20.52292969 2.375 19.1875 C2.14554688 17.90294922 1.91609375 16.61839844 1.6796875 15.29492188 C-0.14819031 4.8444657 -0.14819031 4.8444657 0 0 Z " fill="#6BE0ED" transform="translate(6,312)"/>
<path d="M0 0 C1.0679179 3.36314444 0.9736012 6.12956636 0.625 9.625 C0.53476563 10.58664063 0.44453125 11.54828125 0.3515625 12.5390625 C0 15 0 15 -1 17 C-1 18.175625 -1 19.35125 -1 20.5625 C-1 21.696875 -1 22.83125 -1 24 C-1.33 24.33 -1.66 24.66 -2 25 C-2.24492203 27.74403381 -2.38385297 30.4869967 -2.5234375 33.23828125 C-3.04911413 36.28462043 -3.97002093 37.71491661 -6 40 C-5.54514773 26.87751206 -4.1676325 12.50289749 0 0 Z " fill="#62DCEB" transform="translate(10,71)"/>
<path d="M0 0 C4.20335178 2.55203501 5.87918396 5.67981918 8 10 C7.67 10.66 7.34 11.32 7 12 C5.68 12 4.36 12 3 12 C2.22227595 9.66682784 1.57584432 7.38564077 1 5 C-0.15811388 7.94729537 -0.15811388 7.94729537 0 11 C-0.99 11 -1.98 11 -3 11 C-3 11.99 -3 12.98 -3 14 C-3.99 14.33 -4.98 14.66 -6 15 C-4.36041242 9.76727367 -2.61047965 4.84803364 0 0 Z " fill="#1DC9E1" transform="translate(292,178)"/>
<path d="M0 0 C4.44961403 2.7618294 6.1815752 6.32151883 7.6875 11.25 C8.66850564 19.88284962 7.76361292 26.10313361 4 34 C3.67 34 3.34 34 3 34 C3.33 31.69 3.66 29.38 4 27 C4.66 27 5.32 27 6 27 C5.88658509 24.51979503 5.75985314 22.04155031 5.625 19.5625 C5.5940625 18.85544922 5.563125 18.14839844 5.53125 17.41992188 C5.42719371 15.60760812 5.22080108 13.80182012 5 12 C4.34 11.67 3.68 11.34 3 11 C2.64820803 8.6693782 2.31669821 6.33564933 2 4 C1.04415562 1.66411677 1.04415562 1.66411677 0 0 Z " fill="#174652" transform="translate(393,248)"/>
<path d="M0 0 C4.91193367 0.23683897 9.8230861 0.48535406 14.73388672 0.74462891 C16.40397132 0.83116347 18.0742235 0.9145253 19.74462891 0.99462891 C22.14797426 1.11043555 24.55048254 1.23770246 26.953125 1.3671875 C28.0705307 1.41732498 28.0705307 1.41732498 29.21051025 1.46847534 C32.90918797 1.67912182 35.84244932 1.97426543 39 4 C35.52085059 4.02887814 32.04173169 4.04675687 28.5625 4.0625 C27.56927734 4.07087891 26.57605469 4.07925781 25.55273438 4.08789062 C24.60849609 4.09111328 23.66425781 4.09433594 22.69140625 4.09765625 C21.37958374 4.10551147 21.37958374 4.10551147 20.04125977 4.11352539 C18 4 18 4 17 3 C14.14122091 2.76298761 11.30116703 2.57780818 8.4375 2.4375 C7.63119141 2.39431641 6.82488281 2.35113281 5.99414062 2.30664062 C3.99631195 2.20024738 1.9981793 2.09959112 0 2 C0 1.34 0 0.68 0 0 Z " fill="#43D7EB" transform="translate(467,9)"/>
<path d="M0 0 C-0.33 0.99 -0.66 1.98 -1 3 C-0.01 3 0.98 3 2 3 C2 3.66 2 4.32 2 5 C1.16855469 4.76410156 1.16855469 4.76410156 0.3203125 4.5234375 C-8.64819201 2.50023951 -15.26110871 4.38089659 -23 9 C-23.99 9.495 -23.99 9.495 -25 10 C-25 8.68 -25 7.36 -25 6 C-16.5480518 2.49677801 -9.24326211 -0.32432499 0 0 Z " fill="#20CDE8" transform="translate(298,98)"/>
<path d="M0 0 C8.58 0 17.16 0 26 0 C26.33 0.99 26.66 1.98 27 3 C17.74400342 3.27675737 9.12004552 2.53140195 0 1 C0 0.67 0 0.34 0 0 Z " fill="#5FE1F0" transform="translate(154,401)"/>
<path d="M0 0 C-2 2 -2 2 -4.3828125 2.1953125 C-5.28773437 2.17210937 -6.19265625 2.14890625 -7.125 2.125 C-8.03507812 2.10695313 -8.94515625 2.08890625 -9.8828125 2.0703125 C-10.58148438 2.04710937 -11.28015625 2.02390625 -12 2 C-12 2.66 -12 3.32 -12 4 C-17.94 4.33 -23.88 4.66 -30 5 C-30 4.67 -30 4.34 -30 4 C-6.35282937 -1.83713167 -6.35282937 -1.83713167 0 0 Z " fill="#5EDCEB" transform="translate(97,15)"/>
<path d="M0 0 C0.66 0 1.32 0 2 0 C1.35368776 4.54165358 -0.41138404 8.40237164 -2.375 12.5 C-2.67921875 13.15097656 -2.9834375 13.80195313 -3.296875 14.47265625 C-5.01336308 18.10368872 -6.78851312 21.63750533 -9 25 C-9.33 25 -9.66 25 -10 25 C-10.33 23.02 -10.66 21.04 -11 19 C-10.01 19 -9.02 19 -8 19 C-8 18.01 -8 17.02 -8 16 C-7.34 16 -6.68 16 -6 16 C-6 14.68 -6 13.36 -6 12 C-5.34 12 -4.68 12 -4 12 C-4.061875 10.88625 -4.061875 10.88625 -4.125 9.75 C-3.99601866 6.91241048 -3.42948778 5.41226062 -2 3 C-1.34 3 -0.68 3 0 3 C0 2.01 0 1.02 0 0 Z " fill="#20C2D6" transform="translate(237,176)"/>
<path d="M0 0 C2.91691525 -0.05401695 5.83282724 -0.09368066 8.75 -0.125 C9.575 -0.14175781 10.4 -0.15851563 11.25 -0.17578125 C12.04921875 -0.18222656 12.8484375 -0.18867188 13.671875 -0.1953125 C14.4050293 -0.20578613 15.13818359 -0.21625977 15.89355469 -0.22705078 C18.31135735 0.03356077 19.86428975 0.87124886 22 2 C24.0742625 2.28480806 26.16071439 2.48874224 28.25 2.625 C29.32765625 2.69976562 30.4053125 2.77453125 31.515625 2.8515625 C32.33546875 2.90054687 33.1553125 2.94953125 34 3 C34 3.33 34 3.66 34 4 C22.31540857 4.42981467 11.4688937 3.23006266 0 1 C0 0.67 0 0.34 0 0 Z " fill="#68E0EF" transform="translate(120,397)"/>
<path d="M0 0 C1.98 0 3.96 0 6 0 C2.45942219 4.15633047 -2.06248371 6.78130023 -7 9 C-7.99 9 -8.98 9 -10 9 C-10 8.34 -10 7.68 -10 7 C-8.68 6.67 -7.36 6.34 -6 6 C-6 4.68 -6 3.36 -6 2 C-4.02 1.67 -2.04 1.34 0 1 C0 0.67 0 0.34 0 0 Z " fill="#36D9F1" transform="translate(583,369)"/>
<path d="M0 0 C0.66 0 1.32 0 2 0 C1.44295272 3.23087421 0.66812465 5.02361137 -2 7 C-3.32 7 -4.64 7 -6 7 C-6 7.66 -6 8.32 -6 9 C-10.15626368 10.00926479 -14.04365094 10.10239579 -18.3125 10.0625 C-19.56675781 10.05347656 -20.82101562 10.04445313 -22.11328125 10.03515625 C-23.06589844 10.02355469 -24.01851563 10.01195312 -25 10 C-25.33 9.34 -25.66 8.68 -26 8 C-25.26136719 8.03480469 -24.52273438 8.06960938 -23.76171875 8.10546875 C-16.66459456 8.29484563 -9.51826984 8.13063856 -3 5 C-1.72101066 3.02665706 -1.72101066 3.02665706 -1 1 C-0.67 0.67 -0.34 0.34 0 0 Z " fill="#23BACE" transform="translate(395,282)"/>
<path d="M0 0 C0.66 0 1.32 0 2 0 C4.32492213 5.5102485 4.23374511 10.51112885 4.125 16.375 C4.11597656 17.30183594 4.10695313 18.22867188 4.09765625 19.18359375 C4.07422937 21.45600077 4.04142748 23.7278618 4 26 C3.34 26.33 2.68 26.66 2 27 C1.93941406 25.80503906 1.87882813 24.61007812 1.81640625 23.37890625 C1.20784423 11.66471039 1.20784423 11.66471039 0 0 Z " fill="#24B8CC" transform="translate(557,233)"/>
<path d="M0 0 C2.83930749 1.54066373 3.54713222 2.35194833 5.4375 5.1875 C4.4475 5.6825 4.4475 5.6825 3.4375 6.1875 C3.1075 5.5275 2.7775 4.8675 2.4375 4.1875 C-4.95535639 0.74381903 -12.57343937 0.84940496 -20.5625 1.1875 C-15.50154651 -3.87345349 -6.05696503 -2.90645575 0 0 Z " fill="#17515D" transform="translate(300.5625,102.8125)"/>
<path d="M0 0 C0.66 0 1.32 0 2 0 C0.61734433 5.53062269 -2.11811012 9.87665285 -6 14 C-8.1953125 15.234375 -8.1953125 15.234375 -10 16 C-10.33 14.02 -10.66 12.04 -11 10 C-7.55930376 7.70620251 -6.27709699 7 -2 7 C-2 6.01 -2 5.02 -2 4 C-1.34 4 -0.68 4 0 4 C0 2.68 0 1.36 0 0 Z " fill="#214248" transform="translate(527,172)"/>
<path d="M0 0 C2.37802376 5.87940843 -1.75774081 12.54301009 -4 18 C-5.21997057 20.45936743 -6.51399623 22.68843858 -8 25 C-8.6875 23.3125 -8.6875 23.3125 -9 21 C-8.02616054 19.31791365 -7.02304948 17.65261839 -6 16 C-5.65421232 14.00211562 -5.31856451 12.00240549 -5 10 C-4.34 9.67 -3.68 9.34 -3 9 C-2.35173919 7.14465837 -2.35173919 7.14465837 -1.9375 5 C-1.09339408 1.09339408 -1.09339408 1.09339408 0 0 Z " fill="#60DDEC" transform="translate(598,344)"/>
<path d="M0 0 C0.66 0.33 1.32 0.66 2 1 C-5.29840547 17.8929385 -5.29840547 17.8929385 -9 25 C-9.33 25 -9.66 25 -10 25 C-10.20140476 21.37471432 -9.85776765 19.13498292 -8 16 C-7.34 16 -6.68 16 -6 16 C-6 14.68 -6 13.36 -6 12 C-5.34 12 -4.68 12 -4 12 C-3.87625 10.700625 -3.7525 9.40125 -3.625 8.0625 C-3.4140625 5.84765625 -3.4140625 5.84765625 -3 4 C-2.34 3.67 -1.68 3.34 -1 3 C-0.67 2.01 -0.34 1.02 0 0 Z " fill="#194850" transform="translate(265,231)"/>
<path d="M0 0 C0.33 0.66 0.66 1.32 1 2 C0.07058594 1.96519531 -0.85882813 1.93039063 -1.81640625 1.89453125 C-11.33732269 1.64362014 -11.33732269 1.64362014 -20 5 C-20.969375 5.556875 -21.93875 6.11375 -22.9375 6.6875 C-23.618125 7.120625 -24.29875 7.55375 -25 8 C-24.67 6.02 -24.34 4.04 -24 2 C-15.96235969 -0.07422976 -8.27015524 -0.2144997 0 0 Z " fill="#1ECCDE" transform="translate(83,103)"/>
<path d="M0 0 C1.15233929 3.81964212 0.48956382 5.31990114 -1 9 C-0.938125 10.03125 -0.87625 11.0625 -0.8125 12.125 C-0.874375 13.07375 -0.93625 14.0225 -1 15 C-3.5 16.875 -3.5 16.875 -6 18 C-6.33 17.34 -6.66 16.68 -7 16 C-5.92664301 13.23325418 -4.79739939 10.56805742 -3.5625 7.875 C-3.22412109 7.12089844 -2.88574219 6.36679688 -2.53710938 5.58984375 C-1.69839399 3.72340669 -0.85008607 1.8612857 0 0 Z " fill="#1E525C" transform="translate(227,201)"/>
<path d="M0 0 C-0.66 0.66 -1.32 1.32 -2 2 C-2.99 2 -3.98 2 -5 2 C-5 2.66 -5 3.32 -5 4 C-9.64849515 6.3992233 -13.91086074 6.19957409 -19 6 C-14.06219982 1.06219982 -6.78026041 -0.58958786 0 0 Z " fill="#53DAEA" transform="translate(58,23)"/>
<path d="M0 0 C0.33 0 0.66 0 1 0 C1.33 8.25 1.66 16.5 2 25 C1.01 25 0.02 25 -1 25 C-0.67 16.75 -0.34 8.5 0 0 Z " fill="#57DAEB" transform="translate(3,112)"/>
<path d="M0 0 C2.70912781 0.11464015 5.41679661 0.24137154 8.125 0.375 C8.88554688 0.4059375 9.64609375 0.436875 10.4296875 0.46875 C14.94632158 0.702369 18.74152347 1.32654117 23 3 C23 3.33 23 3.66 23 4 C7.25512528 3.22095672 7.25512528 3.22095672 0 1 C0 0.67 0 0.34 0 0 Z " fill="#6DE0EE" transform="translate(95,393)"/>
<path d="M0 0 C0.33 0 0.66 0 1 0 C1.23341328 6.30215855 0.39477733 11.86486456 -1 18 C-1.28617188 19.30517578 -1.28617188 19.30517578 -1.578125 20.63671875 C-2.04466097 22.7594574 -2.52128463 24.87997481 -3 27 C-3.33 27 -3.66 27 -4 27 C-4.05423638 25.08364783 -4.09289963 23.16685075 -4.125 21.25 C-4.14820313 20.18265625 -4.17140625 19.1153125 -4.1953125 18.015625 C-3.99795833 14.96847657 -3.41667094 13.62500791 -2 11 C-1.56901247 9.09514151 -1.19607236 7.17643418 -0.875 5.25 C-0.70742188 4.26515625 -0.53984375 3.2803125 -0.3671875 2.265625 C-0.24601563 1.51796875 -0.12484375 0.7703125 0 0 Z " fill="#6EDFED" transform="translate(603,317)"/>
<path d="M0 0 C7.46127422 1.09724621 13.37077319 5.17686772 19 10 C19.33 10.66 19.66 11.32 20 12 C17.03 11.505 17.03 11.505 14 11 C14.33 10.01 14.66 9.02 15 8 C12.03 7.505 12.03 7.505 9 7 C9 6.01 9 5.02 9 4 C8.2575 4.0825 7.515 4.165 6.75 4.25 C3.21842973 3.92894816 2.23369636 2.64734383 0 0 Z " fill="#54DEEB" transform="translate(569,28)"/>
<path d="M0 0 C0.87840996 3.09720845 0.99435406 4.90645403 0 8 C-0.66 8 -1.32 8 -2 8 C-2 9.32 -2 10.64 -2 12 C-2.66 12 -3.32 12 -4 12 C-4.103125 12.78375 -4.20625 13.5675 -4.3125 14.375 C-5 17 -5 17 -8 19 C-6.00386732 12.2813095 -3.2708579 6.19265192 0 0 Z " fill="#22BCD0" transform="translate(261,244)"/>
<path d="M0 0 C0 0.33 0 0.66 0 1 C-1.3921875 1.0928125 -1.3921875 1.0928125 -2.8125 1.1875 C-7.41581497 1.81693286 -11.30533008 3.82748734 -15.44921875 5.84375 C-17.65393083 6.84312944 -19.63893753 7.51341101 -22 8 C-15.49070229 0.7016965 -9.36198364 -0.50859871 0 0 Z " fill="#1A5A66" transform="translate(80,104)"/>
<path d="M0 0 C3.11506356 3.56007264 4.48432924 7.59991498 6 12 C6.29390625 12.78503906 6.5878125 13.57007813 6.890625 14.37890625 C7.17421875 15.16136719 7.4578125 15.94382812 7.75 16.75 C8.01296875 17.46671875 8.2759375 18.1834375 8.546875 18.921875 C9.06407873 21.29387831 8.76009213 22.71972362 8 25 C8 24.01 8 23.02 8 22 C7.34 22 6.68 22 6 22 C5.81824219 21.28714844 5.63648438 20.57429688 5.44921875 19.83984375 C3.75171507 13.32380857 3.75171507 13.32380857 1.3125 7.0625 C0 4 0 4 0 0 Z " fill="#7DE2ED" transform="translate(591,43)"/>
<path d="M0 0 C0.66 0 1.32 0 2 0 C1.35966395 4.27424316 -0.14074409 7.7366523 -2 11.625 C-4.19613818 16.23354002 -4.19613818 16.23354002 -6 21 C-6.66 20.67 -7.32 20.34 -8 20 C-7.72285156 19.27554687 -7.44570312 18.55109375 -7.16015625 17.8046875 C-4.44378773 10.57244353 -4.44378773 10.57244353 -3 3 C-2.34 3 -1.68 3 -1 3 C-0.67 2.01 -0.34 1.02 0 0 Z " fill="#194A52" transform="translate(247,269)"/>
<path d="M0 0 C4.81812669 4.64956249 8.24623995 9.46325801 10 16 C9.34 16 8.68 16 8 16 C6.63636792 14.02053408 5.30581356 12.0180755 4 10 C2.37648891 8.20605554 2.37648891 8.20605554 1 7 C1.33 6.01 1.66 5.02 2 4 C1.34 4 0.68 4 0 4 C0 2.68 0 1.36 0 0 Z " fill="#22C7DC" transform="translate(321,224)"/>
<path d="M0 0 C0.83414558 2.38480081 1.11903995 3.63319086 0.328125 6.0703125 C-0.20554687 7.08738281 -0.20554687 7.08738281 -0.75 8.125 C-1.09546875 8.80820313 -1.4409375 9.49140625 -1.796875 10.1953125 C-3.40501744 12.60752616 -5.44159459 13.7207973 -8 15 C-8 15.66 -8 16.32 -8 17 C-9.32 16.67 -10.64 16.34 -12 16 C-11.38125 15.7525 -10.7625 15.505 -10.125 15.25 C-7.5600844 13.74122612 -7.21925843 12.66712781 -6 10 C-5.34 9.195625 -4.68 8.39125 -4 7.5625 C-2.06299991 5.08071863 -1.01429561 2.95836218 0 0 Z " fill="#23C0D4" transform="translate(529,172)"/>
<path d="M0 0 C0.33 0.66 0.66 1.32 1 2 C0.34 2 -0.32 2 -1 2 C-0.67 2.99 -0.34 3.98 0 5 C-1.375 6.5 -1.375 6.5 -3 8 C-3.66 8 -4.32 8 -5 8 C-5.66 10.64 -6.32 13.28 -7 16 C-8.07118186 11.71527255 -7.8845729 10.79057191 -6.3125 6.875 C-5.81169922 5.57175781 -5.81169922 5.57175781 -5.30078125 4.2421875 C-3.82069194 1.69092244 -2.72035873 1.01941864 0 0 Z " fill="#1E4955" transform="translate(60,111)"/>
<path d="M0 0 C0.66 0 1.32 0 2 0 C0.36041242 5.23272633 -1.38952035 10.15196636 -4 15 C-4.33 15 -4.66 15 -5 15 C-5 12.69 -5 10.38 -5 8 C-4.01 8 -3.02 8 -2 8 C-2 6.02 -2 4.04 -2 2 C-1.34 2 -0.68 2 0 2 C0 1.34 0 0.68 0 0 Z " fill="#21C6DE" transform="translate(221,210)"/>
<path d="M0 0 C1.8984375 0.25 1.8984375 0.25 4 1 C4.9765625 2.8125 4.9765625 2.8125 5.625 5 C6.24419219 7.1432966 6.24419219 7.1432966 7 9 C7.66 9.33 8.32 9.66 9 10 C9.40729228 12.32156597 9.74438677 14.6568787 10 17 C0 5.46153846 0 5.46153846 0 0 Z " fill="#1A505A" transform="translate(315,212)"/>
<path d="M0 0 C0.33 0 0.66 0 1 0 C1.20140476 3.62528568 0.85776765 5.86501708 -1 9 C-1.66 9 -2.32 9 -3 9 C-2.938125 9.721875 -2.87625 10.44375 -2.8125 11.1875 C-3.03746621 14.56199315 -3.99869763 16.30593911 -6 19 C-6.66 19 -7.32 19 -8 19 C-6.60121198 14.53202662 -4.86369228 10.36177921 -2.875 6.125 C-2.33617187 4.97257813 -1.79734375 3.82015625 -1.2421875 2.6328125 C-0.62730469 1.32957031 -0.62730469 1.32957031 0 0 Z " fill="#1A4E59" transform="translate(240,174)"/>
<path d="M0 0 C0.66 0 1.32 0 2 0 C-0.03414673 6.61097688 -2.39810067 13.70781578 -7 19 C-7 17.02 -7 15.04 -7 13 C-6.01 13 -5.02 13 -4 13 C-3.67 10.36 -3.34 7.72 -3 5 C-2.34 5 -1.68 5 -1 5 C-0.67 3.35 -0.34 1.7 0 0 Z " fill="#25C1D8" transform="translate(250,148)"/>
<path d="M0 0 C15.42857143 1.42857143 15.42857143 1.42857143 20 6 C19.29875 5.86722656 18.5975 5.73445313 17.875 5.59765625 C12.2595442 4.55238798 6.67566491 3.6425281 1 3 C0.67 2.01 0.34 1.02 0 0 Z " fill="#6EDFED" transform="translate(543,20)"/>
<path d="M0 0 C5.36891879 0.49869404 10.69235173 1.02227532 16 2 C16 2.33 16 2.66 16 3 C11.05 2.67 6.1 2.34 1 2 C0.67 2.99 0.34 3.98 0 5 C-0.99 5 -1.98 5 -3 5 C-3.33 4.01 -3.66 3.02 -4 2 C-2.68 2 -1.36 2 0 2 C0 1.34 0 0.68 0 0 Z " fill="#3FD8EB" transform="translate(527,17)"/>
<path d="M0 0 C0.66 0 1.32 0 2 0 C3.17571451 3.67410785 3.07366746 7.16929183 3 11 C3.99 10.67 4.98 10.34 6 10 C5.67 11.32 5.34 12.64 5 14 C4.34 14 3.68 14 3 14 C3 13.34 3 12.68 3 12 C2.34 12 1.68 12 1 12 C0.67 8.04 0.34 4.08 0 0 Z " fill="#46D8EF" transform="translate(6,312)"/>
<path d="M0 0 C5.61 0 11.22 0 17 0 C17.33 0.66 17.66 1.32 18 2 C11.41276707 3.04559253 6.40766041 2.83292414 0 1 C0 0.67 0 0.34 0 0 Z " fill="#26E0F6" transform="translate(268,0)"/>
<path d="M0 0 C0.66 0 1.32 0 2 0 C2 0.66 2 1.32 2 2 C2.66 2 3.32 2 4 2 C10.51936219 13.52164009 10.51936219 13.52164009 12 19 C9.84865901 16.97507204 8.24916127 14.99625144 6.73828125 12.4609375 C6.14370117 11.46707031 6.14370117 11.46707031 5.53710938 10.453125 C4.93092773 9.42445313 4.93092773 9.42445313 4.3125 8.375 C3.89677734 7.68148437 3.48105469 6.98796875 3.05273438 6.2734375 C0 1.14043257 0 1.14043257 0 0 Z " fill="#24BBCC" transform="translate(383,230)"/>
<path d="M0 0 C2.0976806 6.71888674 0.59230933 14.605637 -2 21 C-2.33 21 -2.66 21 -3 21 C-2.22095672 6.21867882 -2.22095672 6.21867882 0 0 Z " fill="#74E3ED" transform="translate(10,71)"/>
<path d="M0 0 C0.74958984 0.01353516 1.49917969 0.02707031 2.27148438 0.04101562 C4.11879767 0.07631461 5.96574066 0.13012083 7.8125 0.1875 C7.8125 0.5175 7.8125 0.8475 7.8125 1.1875 C5.77178485 1.52660994 3.72987379 1.85852704 1.6875 2.1875 C-0.01792969 2.4659375 -0.01792969 2.4659375 -1.7578125 2.75 C-4.94887602 3.15706049 -7.97567791 3.26559902 -11.1875 3.1875 C-8.45797954 -0.92296361 -4.41882331 -0.15051014 0 0 Z " fill="#6EE3EF" transform="translate(484.1875,396.8125)"/>
<path d="M0 0 C0.66 0 1.32 0 2 0 C2 0.66 2 1.32 2 2 C3.32 2 4.64 2 6 2 C6.66 5.3 7.32 8.6 8 12 C4.02502456 8.59287819 2.13206212 4.67239145 0 0 Z " fill="#1C4D58" transform="translate(302,192)"/>
<path d="M0 0 C0.33 1.32 0.66 2.64 1 4 C0.34 4 -0.32 4 -1 4 C-0.773125 4.556875 -0.54625 5.11375 -0.3125 5.6875 C0 8 0 8 -1.25 10.75 C-1.8275 11.4925 -2.405 12.235 -3 13 C-3.99 13 -4.98 13 -6 13 C-4.58707905 8.1725201 -2.57025846 4.2837641 0 0 Z " fill="#1C4B54" transform="translate(256,141)"/>
<path d="M0 0 C-5.60236281 2.67149708 -10.93139507 4.67594074 -17 6 C-16.67 5.34 -16.34 4.68 -16 4 C-12.9375 3.375 -12.9375 3.375 -10 3 C-9.67 2.01 -9.34 1.02 -9 0 C-2.25 -1.125 -2.25 -1.125 0 0 Z " fill="#7AE4F2" transform="translate(573,379)"/>
<path d="M0 0 C0.33 0 0.66 0 1 0 C1 1.98 1 3.96 1 6 C0.34 6 -0.32 6 -1 6 C-1 6.99 -1 7.98 -1 9 C-1.66 9 -2.32 9 -3 9 C-3.33 10.65 -3.66 12.3 -4 14 C-4.66 14 -5.32 14 -6 14 C-2.99633316 4.22210581 -2.99633316 4.22210581 0 0 Z " fill="#22BCCE" transform="translate(276,212)"/>
<path d="M0 0 C0.66 0.99 1.32 1.98 2 3 C1.34 3.66 0.68 4.32 0 5 C-0.33 5.99 -0.66 6.98 -1 8 C-2.46484375 6.76302083 -3.9296875 5.52604167 -5.39453125 4.2890625 C-6.8655046 3.10798901 -8.43037794 2.04641471 -10 1 C-6.7 1.33 -3.4 1.66 0 2 C0 1.34 0 0.68 0 0 Z " fill="#1CCDE7" transform="translate(94,104)"/>
<path d="M0 0 C5.06323209 -0.20666253 9.23982707 0.19113429 14 2 C14.33 2.99 14.66 3.98 15 5 C9.88634986 3.9318153 4.92772031 2.76892524 0 1 C0 0.67 0 0.34 0 0 Z " fill="#68E1EF" transform="translate(41,380)"/>
<path d="M0 0 C-2.25964458 3.38946688 -3.20729138 3.85336716 -7 5 C-9.8125 5.125 -9.8125 5.125 -12 5 C-8.36219404 0.99841344 -5.42711258 -0.30150625 0 0 Z " fill="#1E4854" transform="translate(236,292)"/>
<path d="M0 0 C8.63483146 -0.16292135 8.63483146 -0.16292135 11.6875 2.4375 C13 4 13 4 13 6 C3.40546697 3.10933941 3.40546697 3.10933941 0 0 Z " fill="#1FC3D3" transform="translate(533,211)"/>
<path d="M0 0 C2.63884562 2.40111178 4.36413529 5.00555028 6.1875 8.0625 C6.71730469 8.94035156 7.24710937 9.81820312 7.79296875 10.72265625 C9 13 9 13 9 15 C8.34 15 7.68 15 7 15 C5.98133771 13.34467377 4.98189187 11.67739862 4 10 C3.34 9.67 2.68 9.34 2 9 C1.3671875 6.93359375 1.3671875 6.93359375 0.875 4.4375 C0.70742188 3.61121094 0.53984375 2.78492188 0.3671875 1.93359375 C0.24601562 1.29550781 0.12484375 0.65742188 0 0 Z " fill="#1A5965" transform="translate(352,181)"/>
<path d="M0 0 C0.66 0.33 1.32 0.66 2 1 C0.02 4.96 -1.96 8.92 -4 13 C-5.10191901 8.59232396 -4.58706842 7.1077065 -3 3 C-2.34 3 -1.68 3 -1 3 C-0.67 2.01 -0.34 1.02 0 0 Z " fill="#1C515D" transform="translate(288,183)"/>
<path d="M0 0 C2 3 2 3 1.5390625 5.69921875 C1.23742187 6.68535156 0.93578125 7.67148437 0.625 8.6875 C0.32851562 9.68136719 0.03203125 10.67523438 -0.2734375 11.69921875 C-0.51320313 12.45847656 -0.75296875 13.21773437 -1 14 C-1.66 14 -2.32 14 -3 14 C-3.33 14.66 -3.66 15.32 -4 16 C-2.84941444 10.60204011 -1.57578241 5.29012667 0 0 Z " fill="#6DDFEB" transform="translate(15,51)"/>
<path d="M0 0 C0.33 0 0.66 0 1 0 C1 4.29 1 8.58 1 13 C0.34 12.67 -0.32 12.34 -1 12 C-1 9.69 -1 7.38 -1 5 C-1.66 4.67 -2.32 4.34 -3 4 C-2.02727325 2.64664105 -1.0260734 1.31337396 0 0 Z " fill="#22CAE1" transform="translate(606,284)"/>
<path d="M0 0 C0.66 0.33 1.32 0.66 2 1 C2.4140625 3.28515625 2.4140625 3.28515625 2.625 6.0625 C2.69976562 6.98160156 2.77453125 7.90070313 2.8515625 8.84765625 C2.92503906 9.91306641 2.92503906 9.91306641 3 11 C2.01 11.33 1.02 11.66 0 12 C-0.33 12.66 -0.66 13.32 -1 14 C-0.67 9.38 -0.34 4.76 0 0 Z " fill="#25C4D8" transform="translate(401,262)"/>
<path d="M0 0 C0.66 0 1.32 0 2 0 C2 1.32 2 2.64 2 4 C3.32 4 4.64 4 6 4 C7.09658936 7.28976808 6.79953138 8.71303767 6 12 C3.32098068 9.68118495 2.33795597 7.68185532 1.3125 4.3125 C1.06113281 3.50425781 0.80976563 2.69601563 0.55078125 1.86328125 C0.36902344 1.24839844 0.18726563 0.63351563 0 0 Z " fill="#1DC8E0" transform="translate(311,112)"/>
<path d="M0 0 C0.66 0 1.32 0 2 0 C1.82374165 2.37948772 1.30280227 3.70225849 -0.40234375 5.37890625 C-1.90649092 6.62115486 -3.45129851 7.81376056 -5 9 C-5 7.35 -5 5.7 -5 4 C-4.360625 3.71125 -3.72125 3.4225 -3.0625 3.125 C-0.84793921 2.17176549 -0.84793921 2.17176549 0 0 Z " fill="#223E42" transform="translate(551,275)"/>
<path d="M0 0 C3.79100274 2.35303618 5.39339879 4.85666003 7 9 C6.6875 11.375 6.6875 11.375 6 13 C5.01 12.34 4.02 11.68 3 11 C2.61250787 8.67504723 2.28241883 6.3400417 2 4 C1.04415562 1.66411677 1.04415562 1.66411677 0 0 Z " fill="#19545E" transform="translate(393,248)"/>
<path d="M0 0 C2.95749791 3.46741134 5.07848152 6.86873527 7 11 C6.01 11.495 6.01 11.495 5 12 C5 11.01 5 10.02 5 9 C3.35 8.67 1.7 8.34 0 8 C0 5.36 0 2.72 0 0 Z " fill="#1FC4D6" transform="translate(314,212)"/>
<path d="M0 0 C0.99 0 1.98 0 3 0 C5.30440013 4.29456388 6.78184562 8.31479085 8 13 C5.68757908 10.83676753 3.9843604 8.62352196 2.3125 5.9375 C1.87550781 5.24527344 1.43851562 4.55304688 0.98828125 3.83984375 C0 2 0 2 0 0 Z " fill="#22C3D6" transform="translate(366,202)"/>
<path d="M0 0 C2.63744638 1.31872319 3.20619668 2.8111975 4.625 5.375 C5.07101562 6.16648437 5.51703125 6.95796875 5.9765625 7.7734375 C7 10 7 10 7 13 C4 11 4 11 3 8 C2.34 7.67 1.68 7.34 1 7 C0.59270772 4.67843403 0.25561323 2.3431213 0 0 Z " fill="#22BCD2" transform="translate(344,260)"/>
<path d="M0 0 C0.33 0 0.66 0 1 0 C1.042721 1.66611905 1.04063832 3.33382885 1 5 C0.67 5.33 0.34 5.66 0 6 C-0.23653523 8.52596259 -0.42173692 11.03107207 -0.5625 13.5625 C-0.60568359 14.27341797 -0.64886719 14.98433594 -0.69335938 15.71679688 C-0.79971777 17.47761912 -0.90038846 19.2387832 -1 21 C-1.33 21 -1.66 21 -2 21 C-2.05404449 18.24973583 -2.09369306 15.50053797 -2.125 12.75 C-2.14175781 11.97269531 -2.15851563 11.19539063 -2.17578125 10.39453125 C-2.23662606 3.27568856 -2.23662606 3.27568856 0 0 Z " fill="#24CFE6" transform="translate(6,107)"/>
<path d="M0 0 C2.96175123 0.61277612 4.38058783 1.25372522 7 3 C4.82575883 5.50037734 3.26954202 6.43628586 0 7 C0 6.34 0 5.68 0 5 C0.66 4.67 1.32 4.34 2 4 C2 3.34 2 2.68 2 2 C1.34 2 0.68 2 0 2 C0 1.34 0 0.68 0 0 Z " fill="#243F4B" transform="translate(386,282)"/>
<path d="M0 0 C2 3 2 3 2 5 C3.32 5 4.64 5 6 5 C6.33 5.99 6.66 6.98 7 8 C3.0480185 8 1.85351584 6.62823828 -1 4 C-1.33 3.01 -1.66 2.02 -2 1 C-1.34 0.67 -0.68 0.34 0 0 Z " fill="#67E1ED" transform="translate(21,364)"/>
<path d="M0 0 C2 2 2 2 2.125 5.625 C2.08375 6.73875 2.0425 7.8525 2 9 C1.01 9 0.02 9 -1 9 C-2.0326802 6.21176345 -2.04509293 5.1322726 -1.0625 2.25 C-0.711875 1.5075 -0.36125 0.765 0 0 Z " fill="#24434D" transform="translate(555,230)"/>
<path d="M0 0 C1.01527342 4.06109369 1.05430484 4.66966838 -0.4375 8.25 C-0.72496094 8.95640625 -1.01242188 9.6628125 -1.30859375 10.390625 C-1.53675781 10.92171875 -1.76492187 11.4528125 -2 12 C-2.99 11.67 -3.98 11.34 -5 11 C-3.35 7.37 -1.7 3.74 0 0 Z " fill="#194D57" transform="translate(219,219)"/>
<path d="M0 0 C2.74277578 3.19990508 4.6302836 6.00499382 6 10 C5.01 10 4.02 10 3 10 C3 8.68 3 7.36 3 6 C1.68 5.67 0.36 5.34 -1 5 C-0.67 3.35 -0.34 1.7 0 0 Z " fill="#20BDCF" transform="translate(308,202)"/>
<path d="M0 0 C-1.58962659 4.03520597 -3.28232318 8.01811282 -5 12 C-6.16659166 8.50022502 -5.68403157 6.57216487 -5 3 C-5 2.34 -5 1.68 -5 1 C-2 0 -2 0 0 0 Z " fill="#194F57" transform="translate(281,202)"/>
<path d="M0 0 C0.66 0.33 1.32 0.66 2 1 C0.35 4.63 -1.3 8.26 -3 12 C-3.33 12 -3.66 12 -4 12 C-4.50423019 6.70558305 -3.18923033 4.18586481 0 0 Z " fill="#26C3DA" transform="translate(256,136)"/>
<path d="M0 0 C4.8 3.44615385 4.8 3.44615385 5.8125 6.25 C5.874375 6.8275 5.93625 7.405 6 8 C5.01 8 4.02 8 3 8 C3 7.34 3 6.68 3 6 C2.01 6 1.02 6 0 6 C0 4.02 0 2.04 0 0 Z " fill="#1F4955" transform="translate(306,108)"/>
<path d="M0 0 C0 3.68553144 -0.8522582 5.03759752 -3 8 C-5.6875 9.8125 -5.6875 9.8125 -8 11 C-6.63629701 8.00779732 -5.05091917 5.70973471 -2.875 3.25 C-2.33617187 2.63640625 -1.79734375 2.0228125 -1.2421875 1.390625 C-0.62730469 0.70226562 -0.62730469 0.70226562 0 0 Z " fill="#1A4F5D" transform="translate(276,105)"/>
<path d="M0 0 C0.99 0.33 1.98 0.66 3 1 C2.1875 3.9375 2.1875 3.9375 1 7 C0.01 7.33 -0.98 7.66 -2 8 C-1.125 2.25 -1.125 2.25 0 0 Z " fill="#44D9E7" transform="translate(18,45)"/>
<path d="M0 0 C2 0 4 0 6 0 C6.33 1.98 6.66 3.96 7 6 C6.34 6 5.68 6 5 6 C5 5.34 5 4.68 5 4 C3.68 4 2.36 4 1 4 C0.67 2.68 0.34 1.36 0 0 Z " fill="#2ED5EC" transform="translate(584,40)"/>
<path d="M0 0 C1.10844919 3.32534757 0.84454356 5.62182575 0 9 C-0.66 9 -1.32 9 -2 9 C-2 9.66 -2 10.32 -2 11 C-2.66 11 -3.32 11 -4 11 C-3.52269162 9.5410574 -3.04308958 8.08286504 -2.5625 6.625 C-2.29566406 5.81289063 -2.02882812 5.00078125 -1.75390625 4.1640625 C-1 2 -1 2 0 0 Z " fill="#21B8CC" transform="translate(245,278)"/>
<path d="M0 0 C-2.52235132 1.68156755 -5.03586642 3.16468006 -7.6875 4.625 C-8.49574219 5.07101563 -9.30398438 5.51703125 -10.13671875 5.9765625 C-10.75160156 6.31429687 -11.36648438 6.65203125 -12 7 C-12 5.68 -12 4.36 -12 3 C-4.71428571 -0.42857143 -4.71428571 -0.42857143 0 0 Z " fill="#21BFD5" transform="translate(285,101)"/>
<path d="M0 0 C0.33 0 0.66 0 1 0 C1 2.31 1 4.62 1 7 C-0.65 7.66 -2.3 8.32 -4 9 C-2.80100302 5.9168649 -1.52299523 2.93720508 0 0 Z " fill="#21BDD3" transform="translate(250,268)"/>
<path d="M0 0 C4.4571874 0.26218749 6.51522698 0.57711289 9.9375 3.5625 C10.618125 4.366875 11.29875 5.17125 12 6 C10.68 6 9.36 6 8 6 C7.67 5.34 7.34 4.68 7 4 C4.69034152 2.94647157 2.3570226 1.94280904 0 1 C0 0.67 0 0.34 0 0 Z " fill="#1C4250" transform="translate(536,214)"/>
<path d="M0 0 C0.99 0.33 1.98 0.66 3 1 C1.02 5.455 1.02 5.455 -1 10 C-1.33 10 -1.66 10 -2 10 C-2 8.02 -2 6.04 -2 4 C-1.34 4 -0.68 4 0 4 C0 2.68 0 1.36 0 0 Z " fill="#21C4D7" transform="translate(213,226)"/>
<path d="M0 0 C1 2 1 2 0.44140625 4.1640625 C0.15136719 4.97617188 -0.13867188 5.78828125 -0.4375 6.625 C-0.72496094 7.44226563 -1.01242187 8.25953125 -1.30859375 9.1015625 C-1.53675781 9.72804687 -1.76492188 10.35453125 -2 11 C-2.66 11 -3.32 11 -4 11 C-3.48964169 6.6109185 -2.47785723 3.66291938 0 0 Z " fill="#28B8CF" transform="translate(285,193)"/>
<path d="M0 0 C1.65 0 3.3 0 5 0 C3.35 2.64 1.7 5.28 0 8 C-1.09658936 4.71023192 -0.79953138 3.28696233 0 0 Z " fill="#22C1D7" transform="translate(268,108)"/>
<path d="M0 0 C1.98 0 3.96 0 6 0 C3.22719294 3.08089673 0.93673644 4.68775452 -3 6 C-3 4 -3 4 -1.5 2.4375 C-0.7575 1.7259375 -0.7575 1.7259375 0 1 C0 0.67 0 0.34 0 0 Z " fill="#5FDFED" transform="translate(583,369)"/>
<path d="M0 0 C1.18771723 3.42943519 0.80226223 5.37784675 -0.4375 8.75 C-0.86869141 9.94882812 -0.86869141 9.94882812 -1.30859375 11.171875 C-1.65083984 12.07679688 -1.65083984 12.07679688 -2 13 C-3.4500578 8.45580479 -2.32826388 5.50133869 -1 1 C-0.67 0.67 -0.34 0.34 0 0 Z " fill="#76E1ED" transform="translate(598,344)"/>
<path d="M0 0 C0.99 0 1.98 0 3 0 C3.33 1.65 3.66 3.3 4 5 C4.99 5 5.98 5 7 5 C6.34 6.32 5.68 7.64 5 9 C4.16396622 7.68921847 3.3312426 6.37632511 2.5 5.0625 C2.0359375 4.33160156 1.571875 3.60070312 1.09375 2.84765625 C0 1 0 1 0 0 Z " fill="#22C7DC" transform="translate(317,124)"/>
<path d="M0 0 C4.12797305 0.60705486 7.37438822 1.93999331 11 4 C11.33 4.66 11.66 5.32 12 6 C11.01 6 10.02 6 9 6 C9 5.34 9 4.68 9 4 C8.2575 4.0825 7.515 4.165 6.75 4.25 C3.21842973 3.92894816 2.23369636 2.64734383 0 0 Z " fill="#75E1EE" transform="translate(569,28)"/>
<path d="M0 0 C3.06243607 1.02081202 4.14657225 1.44050454 6 4 C6.1875 7.1875 6.1875 7.1875 6 10 C3.47650757 6.87567603 1.72743854 3.61939504 0 0 Z " fill="#20C5D7" transform="translate(551,222)"/>
<path d="M0 0 C0.66 0.33 1.32 0.66 2 1 C0.68 2.65 -0.64 4.3 -2 6 C-2.99 5.67 -3.98 5.34 -5 5 C-3.35 3.35 -1.7 1.7 0 0 Z " fill="#17D4ED" transform="translate(241,289)"/>
<path d="M0 0 C0.66 0.33 1.32 0.66 2 1 C1.01 3.97 0.02 6.94 -1 10 C-1.33 10 -1.66 10 -2 10 C-2.6875 6.6875 -2.6875 6.6875 -3 3 C-1.5625 1.0625 -1.5625 1.0625 0 0 Z " fill="#283A3B" transform="translate(251,259)"/>
<path d="M0 0 C0.66 0.33 1.32 0.66 2 1 C1.01 3.97 0.02 6.94 -1 10 C-1.33 10 -1.66 10 -2 10 C-2.22036864 6.14354879 -1.60355101 3.50776784 0 0 Z " fill="#1FCAE0" transform="translate(225,200)"/>
<path d="M0 0 C0 1.66666667 0 3.33333333 0 5 C-0.66 5 -1.32 5 -2 5 C-2 5.66 -2 6.32 -2 7 C-3.32 6.67 -4.64 6.34 -6 6 C-5.38125 5.7525 -4.7625 5.505 -4.125 5.25 C-1.64931313 3.79371361 -1.04874998 2.62187494 0 0 Z " fill="#24AEC3" transform="translate(523,182)"/>
<path d="M0 0 C1.0326802 2.78823655 1.04509293 3.8677274 0.0625 6.75 C-0.288125 7.4925 -0.63875 8.235 -1 9 C-1.33 9 -1.66 9 -2 9 C-2.125 5.625 -2.125 5.625 -2 2 C-1.34 1.34 -0.68 0.68 0 0 Z " fill="#1D5A67" transform="translate(531,163)"/>
<path d="M0 0 C2.4375 0.625 2.4375 0.625 5 2 C5.8125 5.125 5.8125 5.125 6 8 C3.33264727 5.51047079 1.44253657 3.36591866 0 0 Z " fill="#24BDD3" transform="translate(327,141)"/>
</svg>
