<?xml version="1.0" encoding="UTF-8"?>
<svg version="1.1" xmlns="http://www.w3.org/2000/svg" width="611" height="408">
<path d="M0 0 C201.63 0 403.26 0 611 0 C611 134.64 611 269.28 611 408 C409.37 408 207.74 408 0 408 C0 273.36 0 138.72 0 0 Z " fill="#323437" transform="translate(0,0)"/>
<path d="M0 0 C5.46499683 3.72489834 8.91168591 8.4022138 11.71875 14.3359375 C14.09574021 19.18734649 16.79685471 23.69956486 19.73046875 28.23046875 C20.79619216 29.89804191 21.86126551 31.56603065 22.92578125 33.234375 C23.48426758 34.10723145 24.04275391 34.98008789 24.61816406 35.87939453 C27.64220634 40.62454012 30.62414899 45.39590473 33.60546875 50.16796875 C34.23026123 51.16739502 34.85505371 52.16682129 35.4987793 53.1965332 C40.21369712 60.74985908 44.884089 68.32998308 49.54296875 75.91796875 C55.06472389 84.91073024 60.64816879 93.86003997 66.296875 102.7734375 C74.70306335 116.0409692 83.04825278 129.34780639 91.16796875 142.79296875 C91.66554688 143.6120874 92.163125 144.43120605 92.67578125 145.27514648 C97.43998955 153.2140957 99.46819293 159.2000212 98.35546875 168.60546875 C96.12981543 176.00706002 92.06497659 180.84407799 85.35546875 184.60546875 C79.74664372 187.24061003 74.45246392 187.46345188 68.35546875 186.60546875 C57.14760408 182.20069956 51.50852439 172.64000099 45.48046875 162.79296875 C44.83553467 161.75052002 44.19060059 160.70807129 43.52612305 159.6340332 C41.46272087 156.29514565 39.40828644 152.95087266 37.35546875 149.60546875 C35.9845732 147.37618019 34.61348035 145.14701294 33.2421875 142.91796875 C31.20377875 139.60381787 29.16578746 136.28941688 27.12963867 132.97387695 C22.76248238 125.86865489 18.34851011 118.7958372 13.88012695 111.75390625 C9.02136674 104.09497233 4.2224771 96.3989345 -0.57055664 88.69873047 C-3.52924994 83.95357412 -6.50274708 79.23174594 -9.64453125 74.60546875 C-11.83668583 77.36337874 -13.44106673 80.03682484 -14.89453125 83.2421875 C-15.54446045 84.66374146 -15.54446045 84.66374146 -16.20751953 86.11401367 C-16.91884033 87.68759644 -16.91884033 87.68759644 -17.64453125 89.29296875 C-18.43905249 91.03252457 -19.23361084 92.77206363 -20.02908325 94.51118469 C-20.6112379 95.78427899 -21.19282268 97.05763399 -21.77389526 98.33122253 C-24.17322595 103.58749969 -26.59616867 108.8326028 -29.02734375 114.07421875 C-29.41010971 114.89978271 -29.79287567 115.72534668 -30.1872406 116.57592773 C-32.18988319 120.89349957 -34.19608315 125.20938646 -36.20629883 129.5234375 C-39.98278377 137.6380142 -43.73218736 145.76085013 -47.36199951 153.94230652 C-48.95816634 157.53766175 -50.56964567 161.12606523 -52.18182373 164.71426392 C-52.94069212 166.41560699 -53.69173298 168.12046596 -54.43438721 169.82894897 C-61.90311604 187.00175215 -61.90311604 187.00175215 -69.64453125 190.60546875 C-70.68930917 191.11358754 -71.73408709 191.62170633 -72.81052494 192.14522266 C-76.63455164 193.77031005 -79.95622721 193.97522102 -84.12998962 193.9662323 C-84.85059226 193.96879557 -85.5711949 193.97135885 -86.31363398 193.9739998 C-88.71054302 193.97891236 -91.10681182 193.96248736 -93.50366211 193.94604492 C-95.22881048 193.9451981 -96.95395993 193.94567487 -98.67910767 193.94737244 C-103.35012707 193.94823166 -108.02091442 193.93061764 -112.69187999 193.90965056 C-117.57790491 193.89087168 -122.4639354 193.88913237 -127.34999084 193.88557434 C-136.59691798 193.87625745 -145.84373846 193.85164844 -155.09061867 193.82152587 C-165.62019077 193.78797083 -176.14976802 193.77149307 -186.6793803 193.75643957 C-208.3344901 193.7250986 -229.98950395 193.67234498 -251.64453125 193.60546875 C-251.7380653 171.22181816 -251.80855493 148.83819991 -251.85177994 126.45439339 C-251.87238552 116.06067488 -251.90046781 105.66707796 -251.94628906 95.2734375 C-251.98621817 86.2119758 -252.01197863 77.15060218 -252.02088523 68.08905494 C-252.02608969 63.293147 -252.03828025 58.49749099 -252.06745148 53.70166397 C-252.0947166 49.18234777 -252.10295392 44.66338593 -252.09696198 40.14399529 C-252.09805727 38.49046715 -252.10594488 36.83692647 -252.12135315 35.18346977 C-252.2166539 24.42383528 -251.94480882 14.92795361 -244.20703125 6.66796875 C-238.20787408 1.23163229 -232.9920439 -0.79924316 -224.828125 -0.67578125 C-218.23629892 0.17325538 -212.8091805 3.51534189 -208.64453125 8.60546875 C-204.56749383 14.40829758 -202.5170746 18.65864636 -202.52427673 25.83197021 C-202.52290207 26.88923813 -202.5215274 27.94650604 -202.52011108 29.03581238 C-202.525504 30.7675042 -202.525504 30.7675042 -202.53100586 32.53417969 C-202.53085983 33.75396011 -202.53071381 34.97374054 -202.53056335 36.23048401 C-202.53114045 39.57107397 -202.53615417 42.91160205 -202.54313731 46.25218105 C-202.54939054 49.74488073 -202.54997621 53.23758124 -202.55116272 56.73028564 C-202.55427022 63.34232147 -202.5624758 69.95434075 -202.57251221 76.5663693 C-202.5847881 84.83330552 -202.59026044 93.10024443 -202.59570312 101.3671875 C-202.60544153 116.11329414 -202.62547396 130.85936467 -202.64453125 145.60546875 C-167.99453125 145.27546875 -133.34453125 144.94546875 -97.64453125 144.60546875 C-88.13604988 124.46986114 -78.70097552 104.38020098 -69.53125 84.1015625 C-64.56565189 73.159552 -59.39527957 62.31329829 -54.2175293 51.47045898 C-50.70504497 44.10853977 -47.22658991 36.73856032 -43.89453125 29.29296875 C-43.31413015 28.0055407 -42.73356823 26.71818513 -42.15283203 25.4309082 C-41.10617924 23.09964164 -40.07210371 20.76266284 -39.05419922 18.41870117 C-35.18406407 9.8312139 -30.54035731 2.08576791 -21.70703125 -1.95703125 C-13.57933471 -4.63730981 -7.52768576 -4.16648654 0 0 Z " fill="#E0E0E2" transform="translate(302.64453125,104.39453125)"/>
<path d="M0 0 C31.16700668 -0.12049101 31.16700668 -0.12049101 46.57567978 -0.1507616 C54.90499764 -0.16737771 63.23422524 -0.18846422 71.56347656 -0.22631836 C78.15869827 -0.25627745 84.75385183 -0.27558842 91.34913969 -0.28226548 C94.83933673 -0.28616677 98.32933887 -0.2952964 101.81947327 -0.31719017 C105.72148209 -0.34146772 109.62330252 -0.34196582 113.52539062 -0.34057617 C114.67482147 -0.351362 115.82425232 -0.36214783 117.0085144 -0.3732605 C125.11674575 -0.34204421 132.18834149 0.46246734 138.1875 6.5 C148.28475845 17.25318272 148.53869422 30.31042922 148.34375 44.22265625 C147.9602183 54.10658786 144.40851587 64.11958608 137 71 C130.45314753 76.48587873 124.55913466 76.69448072 116.25 76.56762695 C114.36093178 76.56872215 114.36093178 76.56872215 112.43370056 76.56983948 C109.00210247 76.57126635 105.57138914 76.54199723 102.13999557 76.50696969 C98.54593211 76.47558297 94.95184539 76.47276581 91.35766602 76.46684265 C84.56141399 76.45134012 77.76556705 76.41036101 70.96949291 76.3600952 C61.77907628 76.29360458 52.58854784 76.26673814 43.39795113 76.23758411 C28.93166435 76.19065585 14.46623218 76.09102076 0 76 C0 50.92 0 25.84 0 0 Z " fill="#E0E0E2" transform="translate(411,213)"/>
<path d="M0 0 C25.09474504 -0.24065286 25.09474504 -0.24065286 35.81835938 -0.29296875 C43.12648765 -0.3287913 50.4341635 -0.37110045 57.74194336 -0.45263672 C63.63585927 -0.5179839 69.5292898 -0.55373913 75.42354012 -0.56926346 C77.66858622 -0.58032207 79.91360673 -0.6019173 82.15844536 -0.63438034 C85.31120403 -0.67814636 88.46197509 -0.68392549 91.61499023 -0.68115234 C92.53640808 -0.702724 93.45782593 -0.72429565 94.40716553 -0.746521 C101.36671912 -0.680588 105.69031936 1.56201143 111 6 C120.91198876 16.56718802 122.51910989 29.74850728 122.27734375 43.66796875 C121.83564486 53.73035297 117.43340022 65.02276211 109.90625 71.91796875 C105.90965644 74.96609536 102.98769873 77.12652051 97.88717651 77.12025452 C97.02618347 77.12162918 96.16519043 77.12300385 95.27810669 77.12442017 C94.33152191 77.12082489 93.38493713 77.11722961 92.40966797 77.11352539 C90.91693359 77.11374443 90.91693359 77.11374443 89.39404297 77.1139679 C86.09340257 77.11326931 82.79281808 77.10547944 79.4921875 77.09765625 C77.20818106 77.09579188 74.92417422 77.09436807 72.64016724 77.09336853 C66.61988222 77.08954487 60.59962121 77.07971586 54.5793457 77.06866455 C47.36070756 77.05665172 40.14206141 77.05204747 32.92341614 77.04621124 C21.94892738 77.03650405 10.97449133 77.0173464 0 77 C0 51.59 0 26.18 0 0 Z " fill="#E0E0E2" transform="translate(411,114)"/>
<path d="M0 0 C0.33 0 0.66 0 1 0 C1 54.78 1 109.56 1 166 C-84.8 166 -170.6 166 -259 166 C-259 165.67 -259 165.34 -259 165 C-257.78795898 164.96036133 -256.57591797 164.92072266 -255.32714844 164.87988281 C-230.92931621 164.06300457 -206.58840154 162.9140159 -182.25 161 C-181.1827771 160.91641235 -180.1155542 160.83282471 -179.01599121 160.7467041 C-172.00809023 160.19335619 -165.00348275 159.60652034 -158 159 C-157.08410095 158.92215271 -156.1682019 158.84430542 -155.22454834 158.76409912 C-142.6048399 157.68195693 -130.13154281 156.12006823 -117.625 154.125 C-115.9178448 153.85668653 -114.21065025 153.58862333 -112.50341797 153.32080078 C-107.66703861 152.55889002 -102.83310003 151.78241424 -98 151 C-96.76636719 150.80083984 -95.53273438 150.60167969 -94.26171875 150.39648438 C-59.07288302 144.78278155 -59.07288302 144.78278155 -27 130 C-25.99259766 129.36384766 -25.99259766 129.36384766 -24.96484375 128.71484375 C-11.12088315 118.63314845 -8.9685324 89.72723848 -6.50509644 74.16322327 C-2.8011238 49.67092131 -1.57237529 24.70631302 0 0 Z " fill="#FBFBFC" transform="translate(610,242)"/>
<path d="M0 0 C84.81 0 169.62 0 257 0 C257 56.43 257 112.86 257 171 C256.67 171 256.34 171 256 171 C255.94392578 169.26169922 255.94392578 169.26169922 255.88671875 167.48828125 C256.23137575 98.64397357 256.23137575 98.64397357 232 38 C194.33519223 8.80080617 124.04346069 9.04857765 78.67822266 5.38183594 C74.82894464 5.0705746 70.98263513 4.7334609 67.13671875 4.3828125 C44.81727307 2.41584683 22.38338902 1.85111065 0 1 C0 0.67 0 0.34 0 0 Z " fill="#FCFCFC" transform="translate(354,0)"/>
<path d="M0 0 C0.33 0 0.66 0 1 0 C1.07516846 1.17167725 1.15033691 2.34335449 1.2277832 3.55053711 C1.43810655 69.10076851 1.43810655 69.10076851 24.68359375 126.6875 C43.54186011 140.79969932 69.32701824 145.07188136 92 149 C93.01897369 149.17692383 93.01897369 149.17692383 94.05853271 149.35742188 C126.36790526 154.94322464 158.73035528 158.76041739 191.46875 160.56640625 C196.266298 160.83110277 201.05425082 161.14371208 205.84375 161.52734375 C225.88152589 163.13187734 245.90762737 163.61517256 266 164 C266 164.33 266 164.66 266 165 C178.22 165 90.44 165 0 165 C0 110.55 0 56.1 0 0 Z " fill="#FCFCFC" transform="translate(0,243)"/>
<path d="M0 0 C84.48 0 168.96 0 256 0 C256 0.33 256 0.66 256 1 C254.78795898 1.03963867 253.57591797 1.07927734 252.32714844 1.12011719 C133.31792464 -0.6244226 133.31792464 -0.6244226 25 38 C-1.04919395 66.45804414 3.08105024 127.7366722 1 164 C0.67 164 0.34 164 0 164 C0 109.88 0 55.76 0 0 Z " fill="#FDFDFD" transform="translate(0,0)"/>
</svg>
